SourceSerif_c1.ufo
<glyph name="exclam" format="2">
	<unicode hex="0021"/>
	<advance width="288"/>
	<outline>
		<contour>
			<point x="144" y="-12" type="curve" smooth="yes"/>
			<point x="184" y="-12"/>
			<point x="216" y="20"/>
			<point x="216" y="60" type="curve" smooth="yes"/>
			<point x="216" y="100"/>
			<point x="184" y="132"/>
			<point x="144" y="132" type="curve" smooth="yes"/>
			<point x="104" y="132"/>
			<point x="72" y="100"/>
			<point x="72" y="60" type="curve" smooth="yes"/>
			<point x="72" y="20"/>
			<point x="104" y="-12"/>
		</contour>
		<contour>
			<point x="143" y="688" type="curve" smooth="yes"/>
			<point x="104" y="688"/>
			<point x="80" y="664"/>
			<point x="80" y="624" type="curve" smooth="yes"/>
			<point x="80" y="584"/>
			<point x="88" y="496"/>
			<point x="104" y="340" type="curve" smooth="yes"/>
			<point x="116" y="220" type="line"/>
			<point x="168" y="220" type="line"/>
			<point x="180" y="340" type="line" smooth="yes"/>
			<point x="196" y="496"/>
			<point x="204" y="584"/>
			<point x="204" y="624" type="curve" smooth="yes"/>
			<point x="204" y="664"/>
			<point x="182" y="688"/>
		</contour>
	</outline>
</glyph>
<glyph name="dollar" format="2">
	<unicode hex="0024"/>
	<advance width="537"/>
	<outline>
		<contour>
			<point x="268" y="35" type="curve" smooth="yes"/>
			<point x="229" y="35"/>
			<point x="184" y="40"/>
			<point x="138" y="58" type="curve"/>
			<point x="191" y="22" type="line"/>
			<point x="174" y="98" type="line" smooth="yes"/>
			<point x="162" y="151"/>
			<point x="140" y="164"/>
			<point x="116" y="164" type="curve" smooth="yes"/>
			<point x="94" y="164"/>
			<point x="80" y="153"/>
			<point x="71" y="133" type="curve"/>
			<point x="75" y="46"/>
			<point x="156" y="-13"/>
			<point x="263" y="-13" type="curve" smooth="yes"/>
			<point x="399" y="-13"/>
			<point x="481" y="63"/>
			<point x="481" y="170" type="curve" smooth="yes"/>
			<point x="481" y="252"/>
			<point x="440" y="317"/>
			<point x="305" y="364" type="curve" smooth="yes"/>
			<point x="267" y="377" type="line" smooth="yes"/>
			<point x="196" y="400"/>
			<point x="156" y="435"/>
			<point x="156" y="499" type="curve" smooth="yes"/>
			<point x="156" y="574"/>
			<point x="213" y="611"/>
			<point x="287" y="611" type="curve" smooth="yes"/>
			<point x="317" y="611"/>
			<point x="353" y="606"/>
			<point x="395" y="589" type="curve"/>
			<point x="343" y="625" type="line"/>
			<point x="360" y="549" type="line" smooth="yes"/>
			<point x="372" y="497"/>
			<point x="397" y="483"/>
			<point x="419" y="483" type="curve" smooth="yes"/>
			<point x="438" y="483"/>
			<point x="455" y="493"/>
			<point x="463" y="514" type="curve"/>
			<point x="457" y="600"/>
			<point x="377" y="660"/>
			<point x="276" y="660" type="curve" smooth="yes"/>
			<point x="161" y="660"/>
			<point x="78" y="580"/>
			<point x="78" y="478" type="curve" smooth="yes"/>
			<point x="78" y="378"/>
			<point x="140" y="324"/>
			<point x="245" y="287" type="curve" smooth="yes"/>
			<point x="282" y="274" type="line" smooth="yes"/>
			<point x="367" y="244"/>
			<point x="403" y="214"/>
			<point x="403" y="151" type="curve" smooth="yes"/>
			<point x="403" y="77"/>
			<point x="350" y="35"/>
		</contour>
		<contour>
			<point x="299" y="322" type="line"/>
			<point x="299" y="750" type="line"/>
			<point x="259" y="750" type="line"/>
			<point x="259" y="322" type="line"/>
		</contour>
		<contour>
			<point x="258" y="-115" type="line"/>
			<point x="298" y="-115" type="line"/>
			<point x="298" y="322" type="line"/>
			<point x="258" y="322" type="line"/>
		</contour>
	</outline>
</glyph>
<glyph name="ampersand" format="2">
	<unicode hex="0026"/>
	<advance width="736"/>
	<outline>
		<contour>
			<point x="292" y="236" type="line"/>
			<point x="468" y="44" type="line" smooth="yes"/>
			<point x="504" y="4"/>
			<point x="548" y="-8"/>
			<point x="596" y="-8" type="curve" smooth="yes"/>
			<point x="636" y="-8"/>
			<point x="668" y="-4"/>
			<point x="692" y="0" type="curve"/>
			<point x="692" y="56" type="line"/>
			<point x="536" y="64" type="line"/>
			<point x="596" y="32" type="line"/>
			<point x="348" y="300" type="line"/>
			<point x="252" y="404" type="line" smooth="yes"/>
			<point x="200" y="460"/>
			<point x="176" y="496"/>
			<point x="176" y="544" type="curve" smooth="yes"/>
			<point x="176" y="604"/>
			<point x="212" y="636"/>
			<point x="268" y="636" type="curve" smooth="yes"/>
			<point x="320" y="636"/>
			<point x="352" y="608"/>
			<point x="352" y="556" type="curve" smooth="yes"/>
			<point x="352" y="488"/>
			<point x="304" y="440"/>
			<point x="232" y="392" type="curve"/>
			<point x="273" y="360" type="line"/>
			<point x="273" y="394" type="line"/>
			<point x="382" y="428"/>
			<point x="428" y="478"/>
			<point x="428" y="556" type="curve" smooth="yes"/>
			<point x="428" y="640"/>
			<point x="360" y="688"/>
			<point x="268" y="688" type="curve" smooth="yes"/>
			<point x="172" y="688"/>
			<point x="96" y="636"/>
			<point x="96" y="536" type="curve" smooth="yes"/>
			<point x="96" y="448"/>
			<point x="148" y="392"/>
			<point x="200" y="336" type="curve" smooth="yes"/>
		</contour>
		<contour>
			<point x="471" y="154" type="line"/>
			<point x="488" y="112" type="line"/>
			<point x="576" y="192"/>
			<point x="608" y="280"/>
			<point x="624" y="396" type="curve"/>
			<point x="552" y="396" type="line"/>
			<point x="545" y="301"/>
			<point x="525" y="221"/>
			<point x="495" y="154" type="curve"/>
		</contour>
		<contour>
			<point x="224" y="368" type="curve"/>
			<point x="167" y="397" type="line"/>
			<point x="167" y="360" type="line"/>
			<point x="80" y="330"/>
			<point x="20" y="281"/>
			<point x="20" y="180" type="curve" smooth="yes"/>
			<point x="20" y="56"/>
			<point x="120" y="-12"/>
			<point x="240" y="-12" type="curve" smooth="yes"/>
			<point x="343" y="-12"/>
			<point x="396" y="27"/>
			<point x="432" y="71" type="curve"/>
			<point x="459" y="71" type="line"/>
			<point x="448" y="120" type="line"/>
			<point x="396" y="80"/>
			<point x="344" y="56"/>
			<point x="272" y="56" type="curve" smooth="yes"/>
			<point x="168" y="56"/>
			<point x="120" y="112"/>
			<point x="120" y="196" type="curve" smooth="yes"/>
			<point x="120" y="272"/>
			<point x="168" y="328"/>
		</contour>
		<contour>
			<point x="604" y="368" type="line"/>
			<point x="696" y="368" type="line"/>
			<point x="696" y="432" type="line"/>
			<point x="468" y="432" type="line"/>
			<point x="468" y="368" type="line"/>
			<point x="580" y="368" type="line"/>
		</contour>
	</outline>
</glyph>
<glyph name="quotesingle" format="2">
	<unicode hex="0027"/>
	<advance width="180"/>
	<outline>
		<contour>
			<point x="90" y="742" type="curve" smooth="yes"/>
			<point x="56" y="742"/>
			<point x="36" y="722"/>
			<point x="36" y="682" type="curve" smooth="yes"/>
			<point x="36" y="634"/>
			<point x="48" y="550"/>
			<point x="56" y="490" type="curve" smooth="yes"/>
			<point x="64" y="430" type="line"/>
			<point x="116" y="430" type="line"/>
			<point x="124" y="490" type="line" smooth="yes"/>
			<point x="132" y="550"/>
			<point x="144" y="634"/>
			<point x="144" y="682" type="curve" smooth="yes"/>
			<point x="144" y="722"/>
			<point x="124" y="742"/>
		</contour>
	</outline>
</glyph>
<glyph name="parenleft" format="2">
	<unicode hex="0028"/>
	<advance width="384"/>
	<outline>
		<contour>
			<point x="182" y="280" type="curve" smooth="yes"/>
			<point x="182" y="440"/>
			<point x="226" y="568"/>
			<point x="330" y="720" type="curve"/>
			<point x="290" y="752" type="line"/>
			<point x="162" y="624"/>
			<point x="82" y="472"/>
			<point x="82" y="280" type="curve" smooth="yes"/>
			<point x="82" y="88"/>
			<point x="162" y="-64"/>
			<point x="290" y="-192" type="curve"/>
			<point x="330" y="-160" type="line"/>
			<point x="226" y="-8"/>
			<point x="182" y="120"/>
		</contour>
	</outline>
</glyph>
<glyph name="asterisk" format="2">
	<unicode hex="002A"/>
	<advance width="477"/>
	<outline>
		<contour>
			<point x="238" y="752" type="curve" smooth="yes"/>
			<point x="213" y="752"/>
			<point x="197" y="735"/>
			<point x="197" y="710" type="curve" smooth="yes"/>
			<point x="197" y="685"/>
			<point x="205" y="648"/>
			<point x="216" y="606" type="curve" smooth="yes"/>
			<point x="234" y="542" type="line"/>
			<point x="205" y="560" type="line" smooth="yes"/>
			<point x="122" y="614"/>
			<point x="101" y="627"/>
			<point x="74" y="627" type="curve" smooth="yes"/>
			<point x="47" y="627"/>
			<point x="32" y="610"/>
			<point x="32" y="589" type="curve" smooth="yes"/>
			<point x="32" y="552"/>
			<point x="72" y="539"/>
			<point x="192" y="533" type="curve" smooth="yes"/>
			<point x="230" y="531" type="line"/>
			<point x="192" y="502" type="line" smooth="yes"/>
			<point x="117" y="444"/>
			<point x="92" y="419"/>
			<point x="92" y="389" type="curve" smooth="yes"/>
			<point x="92" y="367"/>
			<point x="109" y="352"/>
			<point x="130" y="352" type="curve" smooth="yes"/>
			<point x="163" y="352"/>
			<point x="180" y="377"/>
			<point x="222" y="481" type="curve" smooth="yes"/>
			<point x="238" y="523" type="line"/>
			<point x="255" y="481" type="line" smooth="yes"/>
			<point x="297" y="377"/>
			<point x="313" y="352"/>
			<point x="347" y="352" type="curve" smooth="yes"/>
			<point x="367" y="352"/>
			<point x="384" y="367"/>
			<point x="384" y="389" type="curve" smooth="yes"/>
			<point x="384" y="419"/>
			<point x="359" y="444"/>
			<point x="284" y="502" type="curve" smooth="yes"/>
			<point x="247" y="531" type="line"/>
			<point x="284" y="533" type="line" smooth="yes"/>
			<point x="405" y="539"/>
			<point x="445" y="552"/>
			<point x="445" y="589" type="curve" smooth="yes"/>
			<point x="445" y="610"/>
			<point x="430" y="627"/>
			<point x="403" y="627" type="curve" smooth="yes"/>
			<point x="376" y="627"/>
			<point x="355" y="614"/>
			<point x="272" y="560" type="curve" smooth="yes"/>
			<point x="242" y="542" type="line"/>
			<point x="260" y="606" type="line" smooth="yes"/>
			<point x="272" y="648"/>
			<point x="280" y="685"/>
			<point x="280" y="710" type="curve" smooth="yes"/>
			<point x="280" y="735"/>
			<point x="263" y="752"/>
		</contour>
	</outline>
</glyph>
<glyph name="comma" format="2">
	<unicode hex="002C"/>
	<advance width="304"/>
	<outline>
		<contour>
			<point x="54" y="-190" type="line"/>
			<point x="167" y="-140"/>
			<point x="224" y="-65"/>
			<point x="224" y="28" type="curve" smooth="yes"/>
			<point x="224" y="60"/>
			<point x="220" y="88"/>
			<point x="212" y="110" type="curve"/>
			<point x="200" y="120"/>
			<point x="180" y="128"/>
			<point x="156" y="128" type="curve" smooth="yes"/>
			<point x="114" y="128"/>
			<point x="84" y="100"/>
			<point x="84" y="58" type="curve" smooth="yes"/>
			<point x="84" y="19"/>
			<point x="106" y="-6"/>
			<point x="149" y="-6" type="curve"/>
			<point x="170" y="-16" type="line"/>
			<point x="170" y="-3" type="line"/>
			<point x="159" y="-68"/>
			<point x="126" y="-107"/>
			<point x="37" y="-152" type="curve"/>
		</contour>
	</outline>
</glyph>
<glyph name="hyphen" format="2">
	<unicode hex="002D"/>
	<unicode hex="00AD"/>
	<unicode hex="2010"/>
	<advance width="328"/>
	<outline>
		<contour>
			<point x="40" y="227" type="line"/>
			<point x="288" y="227" type="line"/>
			<point x="288" y="307" type="line"/>
			<point x="40" y="307" type="line"/>
		</contour>
	</outline>
</glyph>
<glyph name="period" format="2">
	<unicode hex="002E"/>
	<advance width="304"/>
	<outline>
		<contour>
			<point x="152" y="-12" type="curve" smooth="yes"/>
			<point x="192" y="-12"/>
			<point x="224" y="20"/>
			<point x="224" y="60" type="curve" smooth="yes"/>
			<point x="224" y="100"/>
			<point x="192" y="132"/>
			<point x="152" y="132" type="curve" smooth="yes"/>
			<point x="112" y="132"/>
			<point x="80" y="100"/>
			<point x="80" y="60" type="curve" smooth="yes"/>
			<point x="80" y="20"/>
			<point x="112" y="-12"/>
		</contour>
	</outline>
</glyph>
<glyph name="slash" format="2">
	<unicode hex="002F"/>
	<advance width="327"/>
	<outline>
		<contour>
			<point x="2" y="-160" type="line"/>
			<point x="58" y="-160" type="line"/>
			<point x="325" y="710" type="line"/>
			<point x="269" y="710" type="line"/>
		</contour>
	</outline>
</glyph>
<glyph name="zero" format="2">
	<unicode hex="0030"/>
	<advance width="548"/>
	<outline>
		<contour>
			<point x="154" y="324" type="curve" smooth="yes"/>
			<point x="154" y="492"/>
			<point x="190" y="596"/>
			<point x="274" y="596" type="curve" smooth="yes"/>
			<point x="358" y="596"/>
			<point x="394" y="492"/>
			<point x="394" y="324" type="curve" smooth="yes"/>
			<point x="394" y="156"/>
			<point x="358" y="52"/>
			<point x="274" y="52" type="curve" smooth="yes"/>
			<point x="190" y="52"/>
			<point x="154" y="156"/>
		</contour>
		<contour>
			<point x="274" y="660" type="curve" smooth="yes"/>
			<point x="138" y="660"/>
			<point x="46" y="532"/>
			<point x="46" y="320" type="curve" smooth="yes"/>
			<point x="46" y="108"/>
			<point x="138" y="-12"/>
			<point x="274" y="-12" type="curve" smooth="yes"/>
			<point x="410" y="-12"/>
			<point x="502" y="116"/>
			<point x="502" y="328" type="curve" smooth="yes"/>
			<point x="502" y="540"/>
			<point x="410" y="660"/>
		</contour>
	</outline>
</glyph>
<glyph name="one" format="2">
	<unicode hex="0031"/>
	<advance width="588"/>
	<outline>
		<contour>
			<point x="108" y="0" type="line"/>
			<point x="480" y="0" type="line"/>
			<point x="480" y="64" type="line"/>
			<point x="320" y="64" type="line"/>
			<point x="276" y="64" type="line"/>
			<point x="108" y="64" type="line"/>
		</contour>
		<contour>
			<point x="244" y="0" type="curve"/>
			<point x="352" y="0" type="line"/>
			<point x="352" y="104"/>
			<point x="352" y="208"/>
			<point x="352" y="312" type="curve" smooth="yes"/>
			<point x="352" y="360" type="line"/>
			<point x="352" y="648" type="line"/>
			<point x="312" y="648" type="line"/>
			<point x="108" y="588" type="line"/>
			<point x="108" y="528" type="line"/>
			<point x="244" y="552" type="line"/>
			<point x="244" y="312" type="line" smooth="yes"/>
			<point x="244" y="208"/>
			<point x="244" y="104"/>
		</contour>
	</outline>
</glyph>
<glyph name="question" format="2">
	<unicode hex="003F"/>
	<advance width="412"/>
	<outline>
		<contour>
			<point x="152" y="-12" type="curve" smooth="yes"/>
			<point x="192" y="-12"/>
			<point x="224" y="20"/>
			<point x="224" y="60" type="curve" smooth="yes"/>
			<point x="224" y="100"/>
			<point x="192" y="132"/>
			<point x="152" y="132" type="curve" smooth="yes"/>
			<point x="112" y="132"/>
			<point x="80" y="100"/>
			<point x="80" y="60" type="curve" smooth="yes"/>
			<point x="80" y="20"/>
			<point x="112" y="-12"/>
		</contour>
		<contour>
			<point x="356" y="484" type="curve" smooth="yes"/>
			<point x="356" y="596"/>
			<point x="236" y="666"/>
			<point x="104" y="686" type="curve"/>
			<point x="84" y="678"/>
			<point x="64" y="658"/>
			<point x="64" y="630" type="curve" smooth="yes"/>
			<point x="64" y="602"/>
			<point x="84" y="578"/>
			<point x="132" y="578" type="curve" smooth="yes"/>
			<point x="284" y="578" type="line"/>
			<point x="236" y="614" type="line"/>
			<point x="268" y="578"/>
			<point x="284" y="548"/>
			<point x="284" y="508" type="curve" smooth="yes"/>
			<point x="284" y="460"/>
			<point x="260" y="436"/>
			<point x="196" y="404" type="curve" smooth="yes"/>
			<point x="180" y="396" type="line" smooth="yes"/>
			<point x="124" y="368"/>
			<point x="100" y="348"/>
			<point x="100" y="308" type="curve" smooth="yes"/>
			<point x="100" y="284"/>
			<point x="108" y="260"/>
			<point x="116" y="236" type="curve" smooth="yes"/>
			<point x="124" y="212" type="line"/>
			<point x="176" y="212" type="line"/>
			<point x="176" y="236" type="line" smooth="yes"/>
			<point x="176" y="292"/>
			<point x="192" y="308"/>
			<point x="232" y="328" type="curve" smooth="yes"/>
			<point x="240" y="332" type="line" smooth="yes"/>
			<point x="312" y="368"/>
			<point x="356" y="404"/>
		</contour>
	</outline>
</glyph>
<glyph name="A" format="2">
	<unicode hex="0041"/>
	<advance width="760"/>
	<outline>
		<contour>
			<point x="20" y="0" type="line"/>
			<point x="272" y="0" type="line"/>
			<point x="272" y="64" type="line"/>
			<point x="148" y="64" type="line"/>
			<point x="124" y="64" type="line"/>
			<point x="20" y="64" type="line"/>
		</contour>
		<contour>
			<point x="80" y="0" type="line"/>
			<point x="152" y="0" type="line"/>
			<point x="344" y="560" type="line"/>
			<point x="360" y="560" type="line"/>
			<point x="556" y="0" type="line"/>
			<point x="672" y="0" type="line"/>
			<point x="426" y="676" type="line"/>
			<point x="322" y="676" type="line"/>
		</contour>
		<contour>
			<point x="200" y="208" type="line"/>
			<point x="512" y="208" type="line"/>
			<point x="512" y="268" type="line"/>
			<point x="200" y="268" type="line"/>
		</contour>
		<contour>
			<point x="428" y="0" type="line"/>
			<point x="740" y="0" type="line"/>
			<point x="740" y="64" type="line"/>
			<point x="602" y="64" type="line"/>
			<point x="568" y="64" type="line"/>
			<point x="428" y="64" type="line"/>
		</contour>
	</outline>
	<anchor name="aboveUC" x="374" y="700"/>
	<anchor name="belowLC" x="380" y="-24"/>
	<anchor name="ogonek" x="626" y="0"/>
</glyph>
<glyph name="B" format="2">
	<unicode hex="0042"/>
	<advance width="691"/>
	<outline>
		<contour>
			<point x="50" y="0" type="line"/>
			<point x="204" y="0" type="line"/>
			<point x="204" y="55" type="line"/>
			<point x="193" y="55" type="line"/>
			<point x="50" y="40" type="line"/>
		</contour>
		<contour>
			<point x="154" y="205"/>
			<point x="154" y="101"/>
			<point x="151" y="0" type="curve"/>
			<point x="256" y="0" type="line"/>
			<point x="253" y="103"/>
			<point x="253" y="207"/>
			<point x="253" y="325" type="curve" smooth="yes"/>
			<point x="253" y="360" type="line" smooth="yes"/>
			<point x="253" y="465"/>
			<point x="253" y="569"/>
			<point x="256" y="670" type="curve"/>
			<point x="151" y="670" type="line"/>
			<point x="154" y="567"/>
			<point x="154" y="463"/>
			<point x="154" y="360" type="curve" smooth="yes"/>
			<point x="154" y="310" type="line" smooth="yes"/>
		</contour>
		<contour>
			<point x="204" y="0" type="line"/>
			<point x="351" y="0" type="line" smooth="yes"/>
			<point x="559" y="0"/>
			<point x="641" y="92"/>
			<point x="641" y="183" type="curve" smooth="yes"/>
			<point x="641" y="269"/>
			<point x="571" y="339"/>
			<point x="399" y="352" type="curve"/>
			<point x="399" y="343" type="line"/>
			<point x="546" y="359"/>
			<point x="605" y="428"/>
			<point x="605" y="506" type="curve" smooth="yes"/>
			<point x="605" y="602"/>
			<point x="517" y="670"/>
			<point x="366" y="670" type="curve" smooth="yes"/>
			<point x="204" y="670" type="line"/>
			<point x="204" y="624" type="line"/>
			<point x="334" y="624" type="line" smooth="yes"/>
			<point x="448" y="624"/>
			<point x="506" y="592"/>
			<point x="506" y="500" type="curve" smooth="yes"/>
			<point x="506" y="408"/>
			<point x="448" y="369"/>
			<point x="312" y="369" type="curve" smooth="yes"/>
			<point x="204" y="369" type="line"/>
			<point x="204" y="323" type="line"/>
			<point x="316" y="323" type="line" smooth="yes"/>
			<point x="470" y="323"/>
			<point x="537" y="276"/>
			<point x="537" y="183" type="curve" smooth="yes"/>
			<point x="537" y="95"/>
			<point x="468" y="46"/>
			<point x="324" y="46" type="curve" smooth="yes"/>
			<point x="204" y="46" type="line"/>
		</contour>
		<contour>
			<point x="50" y="630" type="line"/>
			<point x="193" y="615" type="line"/>
			<point x="204" y="615" type="line"/>
			<point x="204" y="670" type="line"/>
			<point x="50" y="670" type="line"/>
		</contour>
	</outline>
	<anchor name="aboveUC" x="330" y="691"/>
	<anchor name="belowLC" x="363" y="-22"/>
</glyph>
<glyph name="C" format="2">
	<unicode hex="0043"/>
	<advance width="695"/>
	<outline>
		<contour>
			<point x="53" y="131"/>
			<point x="202" y="-15"/>
			<point x="425" y="-15" type="curve" smooth="yes"/>
			<point x="502" y="-15"/>
			<point x="578" y="-1"/>
			<point x="647" y="33" type="curve"/>
			<point x="651" y="178" type="line"/>
			<point x="584" y="178" type="line"/>
			<point x="557" y="30" type="line"/>
			<point x="625" y="44" type="line"/>
			<point x="625" y="99" type="line"/>
			<point x="562" y="52"/>
			<point x="492" y="35"/>
			<point x="429" y="35" type="curve" smooth="yes"/>
			<point x="276" y="35"/>
			<point x="168" y="140"/>
			<point x="168" y="335" type="curve" smooth="yes"/>
			<point x="168" y="530"/>
			<point x="288" y="635"/>
			<point x="437" y="635" type="curve" smooth="yes"/>
			<point x="490" y="635"/>
			<point x="551" y="618"/>
			<point x="614" y="565" type="curve"/>
			<point x="614" y="626" type="line"/>
			<point x="546" y="640" type="line"/>
			<point x="573" y="492" type="line"/>
			<point x="640" y="492" type="line"/>
			<point x="636" y="637" type="line"/>
			<point x="561" y="676"/>
			<point x="483" y="685"/>
			<point x="424" y="685" type="curve" smooth="yes"/>
			<point x="209" y="685"/>
			<point x="53" y="535"/>
			<point x="53" y="335" type="curve" smooth="yes"/>
		</contour>
	</outline>
	<anchor name="aboveUC" x="408" y="691"/>
	<anchor name="belowLC" x="416" y="-22"/>
	<anchor name="baseLC" x="417" y="0"/>
</glyph>
<glyph name="D" format="2">
	<unicode hex="0044"/>
	<advance width="781"/>
	<outline>
		<contour>
			<point x="50" y="0" type="line"/>
			<point x="204" y="0" type="line"/>
			<point x="204" y="70" type="line"/>
			<point x="193" y="70" type="line"/>
			<point x="50" y="55" type="line"/>
		</contour>
		<contour>
			<point x="148" y="0" type="line"/>
			<point x="258" y="0" type="line"/>
			<point x="258" y="322" type="line"/>
			<point x="258" y="360" type="line"/>
			<point x="258" y="670" type="line"/>
			<point x="148" y="670" type="line"/>
			<point x="148" y="360" type="line"/>
			<point x="148" y="322" type="line"/>
		</contour>
		<contour>
			<point x="204" y="0" type="line"/>
			<point x="352" y="0" type="line" smooth="yes"/>
			<point x="565" y="0"/>
			<point x="728" y="118"/>
			<point x="728" y="334" type="curve" smooth="yes"/>
			<point x="728" y="552"/>
			<point x="583" y="670"/>
			<point x="374" y="670" type="curve" smooth="yes"/>
			<point x="204" y="670" type="line"/>
			<point x="204" y="609" type="line"/>
			<point x="355" y="609" type="line" smooth="yes"/>
			<point x="518" y="609"/>
			<point x="613" y="513"/>
			<point x="613" y="334" type="curve" smooth="yes"/>
			<point x="613" y="161"/>
			<point x="518" y="61"/>
			<point x="345" y="61" type="curve" smooth="yes"/>
			<point x="204" y="61" type="line"/>
		</contour>
		<contour>
			<point x="50" y="615" type="line"/>
			<point x="193" y="600" type="line"/>
			<point x="204" y="600" type="line"/>
			<point x="204" y="670" type="line"/>
			<point x="50" y="670" type="line"/>
		</contour>
	</outline>
	<anchor name="aboveUC" x="364" y="691"/>
	<anchor name="belowLC" x="366" y="-22"/>
</glyph>
<glyph name="E" format="2">
	<unicode hex="0045"/>
	<advance width="664"/>
	<outline>
		<contour>
			<point x="50" y="0" type="line"/>
			<point x="204" y="0" type="line"/>
			<point x="204" y="70" type="line"/>
			<point x="193" y="70" type="line"/>
			<point x="50" y="55" type="line"/>
		</contour>
		<contour>
			<point x="148" y="0" type="line"/>
			<point x="258" y="0" type="line"/>
			<point x="258" y="322" type="line"/>
			<point x="258" y="360" type="line"/>
			<point x="258" y="670" type="line"/>
			<point x="148" y="670" type="line"/>
			<point x="148" y="360" type="line"/>
			<point x="148" y="310" type="line"/>
		</contour>
		<contour>
			<point x="204" y="0" type="line"/>
			<point x="618" y="0" type="line"/>
			<point x="626" y="178" type="line"/>
			<point x="552" y="178" type="line"/>
			<point x="522" y="21" type="line"/>
			<point x="570" y="65" type="line"/>
			<point x="204" y="65" type="line"/>
		</contour>
		<contour>
			<point x="204" y="312" type="line"/>
			<point x="452" y="312" type="line"/>
			<point x="452" y="373" type="line"/>
			<point x="204" y="373" type="line"/>
		</contour>
		<contour>
			<point x="423" y="224" type="line"/>
			<point x="483" y="224" type="line"/>
			<point x="483" y="461" type="line"/>
			<point x="423" y="461" type="line"/>
			<point x="407" y="355" type="line"/>
			<point x="407" y="335" type="line"/>
		</contour>
		<contour>
			<point x="50" y="615" type="line"/>
			<point x="193" y="600" type="line"/>
			<point x="204" y="600" type="line"/>
			<point x="204" y="670" type="line"/>
			<point x="50" y="670" type="line"/>
		</contour>
		<contour>
			<point x="530" y="492" type="line"/>
			<point x="604" y="492" type="line"/>
			<point x="596" y="670" type="line"/>
			<point x="204" y="670" type="line"/>
			<point x="204" y="605" type="line"/>
			<point x="548" y="605" type="line"/>
			<point x="500" y="649" type="line"/>
		</contour>
	</outline>
	<anchor name="aboveUC" x="360" y="691"/>
	<anchor name="belowLC" x="387" y="-22"/>
	<anchor name="ogonek" x="530" y="0"/>
</glyph>
<glyph name="F" format="2">
	<unicode hex="0046"/>
	<advance width="644"/>
	<outline>
		<contour>
			<point x="36" y="0" type="line"/>
			<point x="368" y="0" type="line"/>
			<point x="368" y="64" type="line"/>
			<point x="216" y="64" type="line"/>
			<point x="172" y="64" type="line"/>
			<point x="36" y="64" type="line"/>
		</contour>
		<contour>
			<point x="140" y="0" type="line"/>
			<point x="248" y="0" type="line"/>
			<point x="248" y="312" type="line"/>
			<point x="248" y="360" type="line"/>
			<point x="248" y="672" type="line"/>
			<point x="140" y="672" type="line"/>
			<point x="140" y="360" type="line"/>
			<point x="140" y="312" type="line"/>
		</contour>
		<contour>
			<point x="196" y="308" type="line"/>
			<point x="448" y="308" type="line"/>
			<point x="448" y="368" type="line"/>
			<point x="196" y="368" type="line"/>
		</contour>
		<contour>
			<point x="420" y="220" type="line"/>
			<point x="480" y="220" type="line"/>
			<point x="480" y="456" type="line"/>
			<point x="420" y="456" type="line"/>
			<point x="396" y="352" type="line"/>
			<point x="396" y="324" type="line"/>
		</contour>
		<contour>
			<point x="36" y="608" type="line"/>
			<point x="172" y="608" type="line"/>
			<point x="188" y="608" type="line"/>
			<point x="188" y="672" type="line"/>
			<point x="36" y="672" type="line"/>
		</contour>
		<contour>
			<point x="540" y="488" type="line"/>
			<point x="604" y="488" type="line"/>
			<point x="596" y="672" type="line"/>
			<point x="188" y="672" type="line"/>
			<point x="188" y="608" type="line"/>
			<point x="548" y="608" type="line"/>
			<point x="500" y="648" type="line"/>
		</contour>
	</outline>
	<anchor name="aboveUC" x="369" y="691"/>
	<anchor name="belowLC" x="204" y="-22"/>
</glyph>
<glyph name="G" format="2">
	<unicode hex="0047"/>
	<advance width="764"/>
	<outline>
		<contour>
			<point x="416" y="-16" type="curve" smooth="yes"/>
			<point x="516" y="-16"/>
			<point x="600" y="8"/>
			<point x="660" y="36" type="curve"/>
			<point x="660" y="88" type="line"/>
			<point x="660" y="312" type="line"/>
			<point x="554" y="312" type="line"/>
			<point x="554" y="88" type="line"/>
			<point x="554" y="36" type="line"/>
			<point x="588" y="84" type="line"/>
			<point x="548" y="64"/>
			<point x="500" y="48"/>
			<point x="428" y="48" type="curve" smooth="yes"/>
			<point x="268" y="48"/>
			<point x="160" y="148"/>
			<point x="160" y="336" type="curve" smooth="yes"/>
			<point x="160" y="524"/>
			<point x="280" y="624"/>
			<point x="424" y="624" type="curve" smooth="yes"/>
			<point x="508" y="624"/>
			<point x="580" y="600"/>
			<point x="624" y="572" type="curve"/>
			<point x="624" y="636" type="line"/>
			<point x="552" y="636" type="line"/>
			<point x="584" y="492" type="line"/>
			<point x="648" y="492" type="line"/>
			<point x="644" y="644" type="line"/>
			<point x="604" y="664"/>
			<point x="524" y="688"/>
			<point x="424" y="688" type="curve" smooth="yes"/>
			<point x="216" y="688"/>
			<point x="48" y="556"/>
			<point x="48" y="332" type="curve" smooth="yes"/>
			<point x="48" y="108"/>
			<point x="204" y="-16"/>
		</contour>
		<contour>
			<point x="444" y="260" type="line"/>
			<point x="592" y="260" type="line"/>
			<point x="628" y="260" type="line"/>
			<point x="732" y="260" type="line"/>
			<point x="732" y="320" type="line"/>
			<point x="444" y="320" type="line"/>
		</contour>
	</outline>
	<anchor name="aboveUC" x="424" y="700"/>
	<anchor name="belowLC" x="422" y="-24"/>
</glyph>
<glyph name="H" format="2">
	<unicode hex="0048"/>
	<advance width="869"/>
	<outline>
		<contour>
			<point x="50" y="0" type="line"/>
			<point x="358" y="0" type="line"/>
			<point x="358" y="55" type="line"/>
			<point x="215" y="70" type="line"/>
			<point x="193" y="70" type="line"/>
			<point x="50" y="55" type="line"/>
		</contour>
		<contour>
			<point x="148" y="0" type="line"/>
			<point x="258" y="0" type="line"/>
			<point x="258" y="330" type="line"/>
			<point x="258" y="360" type="line"/>
			<point x="258" y="670" type="line"/>
			<point x="148" y="670" type="line"/>
			<point x="148" y="360" type="line"/>
			<point x="148" y="310" type="line"/>
		</contour>
		<contour>
			<point x="204" y="313" type="line"/>
			<point x="666" y="313" type="line"/>
			<point x="666" y="374" type="line"/>
			<point x="204" y="374" type="line"/>
		</contour>
		<contour>
			<point x="512" y="0" type="line"/>
			<point x="820" y="0" type="line"/>
			<point x="820" y="55" type="line"/>
			<point x="676" y="70" type="line"/>
			<point x="654" y="70" type="line"/>
			<point x="512" y="55" type="line"/>
		</contour>
		<contour>
			<point x="610" y="0" type="line"/>
			<point x="720" y="0" type="line"/>
			<point x="720" y="310" type="line"/>
			<point x="720" y="360" type="line"/>
			<point x="720" y="670" type="line"/>
			<point x="610" y="670" type="line"/>
			<point x="610" y="360" type="line"/>
			<point x="610" y="330" type="line"/>
		</contour>
		<contour>
			<point x="50" y="615" type="line"/>
			<point x="193" y="600" type="line"/>
			<point x="215" y="600" type="line"/>
			<point x="358" y="615" type="line"/>
			<point x="358" y="670" type="line"/>
			<point x="50" y="670" type="line"/>
		</contour>
		<contour>
			<point x="512" y="615" type="line"/>
			<point x="654" y="600" type="line"/>
			<point x="676" y="600" type="line"/>
			<point x="820" y="615" type="line"/>
			<point x="820" y="670" type="line"/>
			<point x="512" y="670" type="line"/>
		</contour>
	</outline>
	<anchor name="aboveUC" x="435" y="691"/>
	<anchor name="belowLC" x="435" y="-22"/>
</glyph>
<glyph name="I" format="2">
	<unicode hex="0049"/>
	<advance width="380"/>
	<outline>
		<contour>
			<point x="32" y="0" type="line"/>
			<point x="348" y="0" type="line"/>
			<point x="348" y="64" type="line"/>
			<point x="212" y="64" type="line"/>
			<point x="168" y="64" type="line"/>
			<point x="32" y="64" type="line"/>
		</contour>
		<contour>
			<point x="136" y="0" type="line"/>
			<point x="244" y="0" type="line"/>
			<point x="244" y="312" type="line"/>
			<point x="244" y="360" type="line"/>
			<point x="244" y="672" type="line"/>
			<point x="136" y="672" type="line"/>
			<point x="136" y="360" type="line"/>
			<point x="136" y="312" type="line"/>
		</contour>
		<contour>
			<point x="32" y="608" type="line"/>
			<point x="168" y="608" type="line"/>
			<point x="212" y="608" type="line"/>
			<point x="348" y="608" type="line"/>
			<point x="348" y="672" type="line"/>
			<point x="32" y="672" type="line"/>
		</contour>
	</outline>
	<anchor name="aboveUC" x="204" y="691"/>
	<anchor name="belowLC" x="204" y="-22"/>
	<anchor name="ogonek" x="246" y="0"/>
</glyph>
<glyph name="J" format="2">
	<unicode hex="004A"/>
	<advance width="368"/>
	<outline>
		<contour>
			<point x="42" y="-132" type="curve" smooth="yes"/>
			<point x="106" y="-132"/>
			<point x="150" y="-107"/>
			<point x="180" y="-72" type="curve" smooth="yes"/>
			<point x="222" y="-23"/>
			<point x="240" y="32"/>
			<point x="240" y="157" type="curve" smooth="yes"/>
			<point x="240" y="360" type="line" smooth="yes"/>
			<point x="240" y="464"/>
			<point x="240" y="568"/>
			<point x="240" y="672" type="curve"/>
			<point x="132" y="672" type="line"/>
			<point x="132" y="461"/>
			<point x="132" y="251"/>
			<point x="132" y="116" type="curve" smooth="yes"/>
			<point x="132" y="-32"/>
			<point x="128" y="-54"/>
			<point x="112" y="-89" type="curve"/>
			<point x="126" y="-80" type="line"/>
			<point x="86" y="-80" type="line"/>
			<point x="111" y="-88" type="line"/>
			<point x="88" y="-65" type="line" smooth="yes"/>
			<point x="64" y="-41"/>
			<point x="47" y="-32"/>
			<point x="15" y="-32" type="curve" smooth="yes"/>
			<point x="-24" y="-32"/>
			<point x="-46" y="-49"/>
			<point x="-50" y="-84" type="curve"/>
			<point x="-43" y="-117"/>
			<point x="-13" y="-132"/>
		</contour>
		<contour>
			<point x="12" y="608" type="line"/>
			<point x="164" y="608" type="line"/>
			<point x="208" y="608" type="line"/>
			<point x="344" y="608" type="line"/>
			<point x="344" y="672" type="line"/>
			<point x="12" y="672" type="line"/>
		</contour>
	</outline>
	<anchor name="aboveUC" x="184" y="700"/>
	<anchor name="belowLC" x="93" y="-156"/>
</glyph>
<glyph name="K" format="2">
	<unicode hex="004B"/>
	<advance width="732"/>
	<outline>
		<contour>
			<point x="50" y="0" type="line"/>
			<point x="358" y="0" type="line"/>
			<point x="358" y="40" type="line"/>
			<point x="215" y="55" type="line"/>
			<point x="193" y="55" type="line"/>
			<point x="50" y="40" type="line"/>
		</contour>
		<contour>
			<point x="154" y="205"/>
			<point x="154" y="101"/>
			<point x="151" y="0" type="curve"/>
			<point x="253" y="0" type="line"/>
			<point x="250" y="103"/>
			<point x="250" y="207"/>
			<point x="250" y="284" type="curve" smooth="yes"/>
			<point x="250" y="360" type="line" smooth="yes"/>
			<point x="250" y="465"/>
			<point x="250" y="569"/>
			<point x="253" y="670" type="curve"/>
			<point x="151" y="670" type="line"/>
			<point x="154" y="567"/>
			<point x="154" y="463"/>
			<point x="154" y="360" type="curve" smooth="yes"/>
			<point x="154" y="310" type="line" smooth="yes"/>
		</contour>
		<contour>
			<point x="201" y="177" type="line"/>
			<point x="652" y="670" type="line"/>
			<point x="586" y="670" type="line"/>
			<point x="201" y="242" type="line"/>
		</contour>
		<contour>
			<point x="446" y="0" type="line"/>
			<point x="726" y="0" type="line"/>
			<point x="726" y="40" type="line"/>
			<point x="594" y="55" type="line"/>
			<point x="578" y="55" type="line"/>
			<point x="446" y="40" type="line"/>
		</contour>
		<contour>
			<point x="568" y="0" type="line"/>
			<point x="671" y="0" type="line"/>
			<point x="405" y="435" type="line"/>
			<point x="348" y="373" type="line"/>
		</contour>
		<contour>
			<point x="50" y="630" type="line"/>
			<point x="193" y="615" type="line"/>
			<point x="215" y="615" type="line"/>
			<point x="358" y="630" type="line"/>
			<point x="358" y="670" type="line"/>
			<point x="50" y="670" type="line"/>
		</contour>
		<contour>
			<point x="458" y="630" type="line"/>
			<point x="568" y="610" type="line"/>
			<point x="590" y="615" type="line"/>
			<point x="711" y="630" type="line"/>
			<point x="711" y="670" type="line"/>
			<point x="458" y="670" type="line"/>
		</contour>
	</outline>
	<anchor name="aboveUC" x="391" y="691"/>
	<anchor name="belowLC" x="399" y="-22"/>
</glyph>
<glyph name="L" format="2">
	<unicode hex="004C"/>
	<advance width="657"/>
	<outline>
		<contour>
			<point x="50" y="0" type="line"/>
			<point x="204" y="0" type="line"/>
			<point x="204" y="55" type="line"/>
			<point x="193" y="55" type="line"/>
			<point x="50" y="40" type="line"/>
		</contour>
		<contour>
			<point x="154" y="207"/>
			<point x="154" y="103"/>
			<point x="151" y="0" type="curve"/>
			<point x="256" y="0" type="line"/>
			<point x="253" y="101"/>
			<point x="253" y="205"/>
			<point x="253" y="290" type="curve" smooth="yes"/>
			<point x="253" y="360" type="line" smooth="yes"/>
			<point x="253" y="463"/>
			<point x="253" y="567"/>
			<point x="256" y="670" type="curve"/>
			<point x="151" y="670" type="line"/>
			<point x="154" y="569"/>
			<point x="154" y="465"/>
			<point x="154" y="360" type="curve" smooth="yes"/>
			<point x="154" y="310" type="line" smooth="yes"/>
		</contour>
		<contour>
			<point x="204" y="0" type="line"/>
			<point x="596" y="0" type="line"/>
			<point x="607" y="188" type="line"/>
			<point x="541" y="188" type="line"/>
			<point x="502" y="21" type="line"/>
			<point x="539" y="50" type="line"/>
			<point x="204" y="50" type="line"/>
		</contour>
		<contour>
			<point x="50" y="630" type="line"/>
			<point x="193" y="615" type="line"/>
			<point x="215" y="615" type="line"/>
			<point x="358" y="630" type="line"/>
			<point x="358" y="670" type="line"/>
			<point x="50" y="670" type="line"/>
		</contour>
	</outline>
	<anchor name="aboveUC" x="212" y="691"/>
	<anchor name="belowLC" x="360" y="-22"/>
</glyph>
<glyph name="M" format="2">
	<unicode hex="004D"/>
	<advance width="968"/>
	<outline>
		<contour>
			<point x="32" y="0" type="line"/>
			<point x="312" y="0" type="line"/>
			<point x="312" y="64" type="line"/>
			<point x="188" y="64" type="line"/>
			<point x="152" y="64" type="line"/>
			<point x="32" y="64" type="line"/>
		</contour>
		<contour>
			<point x="32" y="608" type="line"/>
			<point x="152" y="608" type="line"/>
			<point x="168" y="608" type="line"/>
			<point x="168" y="672" type="line"/>
			<point x="32" y="672" type="line"/>
		</contour>
		<contour>
			<point x="136" y="0" type="line"/>
			<point x="204" y="0" type="line"/>
			<point x="204" y="360" type="line"/>
			<point x="196" y="672" type="line"/>
			<point x="136" y="672" type="line"/>
		</contour>
		<contour>
			<point x="432" y="0" type="line"/>
			<point x="488" y="0" type="line"/>
			<point x="780" y="672" type="line"/>
			<point x="712" y="672" type="line"/>
			<point x="456" y="72" type="line"/>
			<point x="508" y="72" type="line"/>
			<point x="248" y="672" type="line"/>
			<point x="136" y="672" type="line"/>
		</contour>
		<contour>
			<point x="616" y="0" type="line"/>
			<point x="936" y="0" type="line"/>
			<point x="936" y="64" type="line"/>
			<point x="816" y="64" type="line"/>
			<point x="740" y="64" type="line"/>
			<point x="616" y="64" type="line"/>
		</contour>
		<contour>
			<point x="724" y="0" type="line"/>
			<point x="832" y="0" type="line"/>
			<point x="832" y="312" type="line"/>
			<point x="832" y="360" type="line"/>
			<point x="832" y="672" type="line"/>
			<point x="732" y="672" type="line"/>
			<point x="724" y="360" type="line"/>
		</contour>
		<contour>
			<point x="800" y="608" type="line"/>
			<point x="816" y="608" type="line"/>
			<point x="936" y="608" type="line"/>
			<point x="936" y="672" type="line"/>
			<point x="800" y="672" type="line"/>
		</contour>
	</outline>
	<anchor name="aboveUC" x="484" y="700"/>
	<anchor name="belowLC" x="484" y="-24"/>
</glyph>
<glyph name="N" format="2">
	<unicode hex="004E"/>
	<advance width="809"/>
	<outline>
		<contour>
			<point x="44" y="0" type="line"/>
			<point x="308" y="0" type="line"/>
			<point x="308" y="40" type="line"/>
			<point x="182" y="55" type="line"/>
			<point x="160" y="55" type="line"/>
			<point x="44" y="40" type="line"/>
		</contour>
		<contour>
			<point x="138" y="0" type="line"/>
			<point x="193" y="0" type="line"/>
			<point x="193" y="647" type="line"/>
			<point x="138" y="647" type="line"/>
		</contour>
		<contour>
			<point x="501" y="630" type="line"/>
			<point x="632" y="615" type="line"/>
			<point x="654" y="615" type="line"/>
			<point x="765" y="630" type="line"/>
			<point x="765" y="670" type="line"/>
			<point x="501" y="670" type="line"/>
		</contour>
		<contour>
			<point x="636" y="-7" type="line"/>
			<point x="671" y="-7" type="line"/>
			<point x="671" y="670" type="line"/>
			<point x="616" y="670" type="line"/>
			<point x="616" y="168" type="line"/>
			<point x="215" y="670" type="line"/>
			<point x="50" y="670" type="line"/>
			<point x="50" y="630" type="line"/>
			<point x="128" y="621" type="line"/>
		</contour>
	</outline>
	<anchor name="aboveUC" x="399" y="691"/>
	<anchor name="belowLC" x="414" y="-22"/>
</glyph>
<glyph name="O" format="2">
	<unicode hex="004F"/>
	<advance width="778"/>
	<outline>
		<contour>
			<point x="389" y="-15" type="curve" smooth="yes"/>
			<point x="565" y="-15"/>
			<point x="725" y="116"/>
			<point x="725" y="335" type="curve" smooth="yes"/>
			<point x="725" y="563"/>
			<point x="564" y="685"/>
			<point x="389" y="685" type="curve" smooth="yes"/>
			<point x="214" y="685"/>
			<point x="53" y="554"/>
			<point x="53" y="335" type="curve" smooth="yes"/>
			<point x="53" y="107"/>
			<point x="213" y="-15"/>
		</contour>
		<contour>
			<point x="389" y="50" type="curve" smooth="yes"/>
			<point x="234" y="50"/>
			<point x="169" y="192"/>
			<point x="169" y="335" type="curve" smooth="yes"/>
			<point x="169" y="478"/>
			<point x="234" y="620"/>
			<point x="389" y="620" type="curve" smooth="yes"/>
			<point x="544" y="620"/>
			<point x="609" y="478"/>
			<point x="609" y="335" type="curve" smooth="yes"/>
			<point x="609" y="192"/>
			<point x="544" y="50"/>
		</contour>
	</outline>
	<anchor name="aboveUC" x="388" y="691"/>
	<anchor name="belowLC" x="388" y="-22"/>
	<anchor name="ogonek" x="488" y="0"/>
	<anchor name="hornLC" x="556" y="658"/>
</glyph>
<glyph name="P" format="2">
	<unicode hex="0050"/>
	<advance width="652"/>
	<outline>
		<contour>
			<point x="32" y="0" type="line"/>
			<point x="364" y="0" type="line"/>
			<point x="364" y="64" type="line"/>
			<point x="212" y="64" type="line"/>
			<point x="168" y="64" type="line"/>
			<point x="32" y="64" type="line"/>
		</contour>
		<contour>
			<point x="136" y="0" type="line"/>
			<point x="244" y="0" type="line"/>
			<point x="244" y="312" type="line"/>
			<point x="244" y="360" type="line"/>
			<point x="244" y="672" type="line"/>
			<point x="136" y="672" type="line"/>
			<point x="136" y="360" type="line"/>
			<point x="136" y="312" type="line" smooth="yes"/>
		</contour>
		<contour>
			<point x="196" y="260" type="line"/>
			<point x="304" y="260" type="line" smooth="yes"/>
			<point x="512" y="260"/>
			<point x="612" y="348"/>
			<point x="612" y="472" type="curve" smooth="yes"/>
			<point x="612" y="596"/>
			<point x="512" y="672"/>
			<point x="320" y="672" type="curve" smooth="yes"/>
			<point x="212" y="672" type="line"/>
			<point x="212" y="610" type="line"/>
			<point x="312" y="610" type="line" smooth="yes"/>
			<point x="448" y="610"/>
			<point x="502" y="564"/>
			<point x="502" y="468" type="curve" smooth="yes"/>
			<point x="502" y="372"/>
			<point x="448" y="320"/>
			<point x="296" y="320" type="curve" smooth="yes"/>
			<point x="196" y="320" type="line"/>
		</contour>
		<contour>
			<point x="32" y="608" type="line"/>
			<point x="152" y="608" type="line"/>
			<point x="168" y="608" type="line"/>
			<point x="168" y="672" type="line"/>
			<point x="32" y="672" type="line"/>
		</contour>
	</outline>
	<anchor name="aboveUC" x="325" y="691"/>
	<anchor name="belowLC" x="204" y="-22"/>
</glyph>
<glyph name="Q" format="2">
	<unicode hex="0051"/>
	<advance width="778"/>
	<outline>
		<contour>
			<point x="550" y="-217" type="curve" smooth="yes"/>
			<point x="595" y="-217"/>
			<point x="647" y="-207"/>
			<point x="685" y="-185" type="curve"/>
			<point x="673" y="-150" type="line"/>
			<point x="638" y="-159"/>
			<point x="609" y="-162"/>
			<point x="587" y="-162" type="curve" smooth="yes"/>
			<point x="486" y="-162"/>
			<point x="426" y="-98"/>
			<point x="433" y="16" type="curve"/>
			<point x="334" y="31" type="line"/>
			<point x="334" y="-6" type="line" smooth="yes"/>
			<point x="334" y="-118"/>
			<point x="411" y="-217"/>
		</contour>
		<component base="O" xScale="1.1"/>
	</outline>
	<anchor name="aboveUC" x="388" y="691"/>
</glyph>
<glyph name="R" format="2">
	<unicode hex="0052"/>
	<advance width="714"/>
	<outline>
		<contour>
			<point x="50" y="0" type="line"/>
			<point x="358" y="0" type="line"/>
			<point x="358" y="40" type="line"/>
			<point x="215" y="55" type="line"/>
			<point x="193" y="55" type="line"/>
			<point x="50" y="40" type="line"/>
		</contour>
		<contour>
			<point x="154" y="205"/>
			<point x="154" y="101"/>
			<point x="151" y="0" type="curve"/>
			<point x="256" y="0" type="line"/>
			<point x="253" y="103"/>
			<point x="253" y="207"/>
			<point x="253" y="320" type="curve" smooth="yes"/>
			<point x="253" y="350" type="line" smooth="yes"/>
			<point x="253" y="468"/>
			<point x="253" y="566"/>
			<point x="256" y="670" type="curve"/>
			<point x="151" y="670" type="line"/>
			<point x="154" y="567"/>
			<point x="154" y="463"/>
			<point x="154" y="360" type="curve" smooth="yes"/>
			<point x="154" y="310" type="line" smooth="yes"/>
		</contour>
		<contour>
			<point x="618" y="-10" type="curve" smooth="yes"/>
			<point x="651" y="-10"/>
			<point x="678" y="-6"/>
			<point x="697" y="0" type="curve"/>
			<point x="697" y="40" type="line"/>
			<point x="584" y="52" type="line"/>
			<point x="618" y="33" type="line"/>
			<point x="564" y="199" type="line" smooth="yes"/>
			<point x="535" y="289"/>
			<point x="486" y="322"/>
			<point x="407" y="329" type="curve"/>
			<point x="404" y="321" type="line"/>
			<point x="548" y="332"/>
			<point x="622" y="409"/>
			<point x="622" y="494" type="curve" smooth="yes"/>
			<point x="622" y="605"/>
			<point x="522" y="670"/>
			<point x="354" y="670" type="curve" smooth="yes"/>
			<point x="204" y="670" type="line"/>
			<point x="204" y="624" type="line"/>
			<point x="353" y="624" type="line" smooth="yes"/>
			<point x="468" y="624"/>
			<point x="517" y="578"/>
			<point x="517" y="494" type="curve" smooth="yes"/>
			<point x="517" y="413"/>
			<point x="460" y="355"/>
			<point x="341" y="355" type="curve" smooth="yes"/>
			<point x="204" y="355" type="line"/>
			<point x="204" y="310" type="line"/>
			<point x="308" y="310" type="line" smooth="yes"/>
			<point x="399" y="310"/>
			<point x="440" y="296"/>
			<point x="462" y="215" type="curve" smooth="yes"/>
			<point x="507" y="52" type="line" smooth="yes"/>
			<point x="520" y="6"/>
			<point x="550" y="-10"/>
		</contour>
		<contour>
			<point x="50" y="630" type="line"/>
			<point x="193" y="615" type="line"/>
			<point x="204" y="615" type="line"/>
			<point x="204" y="670" type="line"/>
			<point x="50" y="670" type="line"/>
		</contour>
	</outline>
	<anchor name="aboveUC" x="338" y="691"/>
	<anchor name="belowLC" x="391" y="-22"/>
</glyph>
<glyph name="S" format="2">
	<unicode hex="0053"/>
	<advance width="561"/>
	<outline>
		<contour>
			<point x="257" y="-15" type="curve" smooth="yes"/>
			<point x="418" y="-15"/>
			<point x="517" y="57"/>
			<point x="517" y="175" type="curve" smooth="yes"/>
			<point x="517" y="282"/>
			<point x="462" y="332"/>
			<point x="316" y="383" type="curve" smooth="yes"/>
			<point x="273" y="398" type="line" smooth="yes"/>
			<point x="199" y="424"/>
			<point x="157" y="460"/>
			<point x="157" y="517" type="curve" smooth="yes"/>
			<point x="157" y="586"/>
			<point x="218" y="620"/>
			<point x="298" y="620" type="curve" smooth="yes"/>
			<point x="356" y="620"/>
			<point x="397" y="603"/>
			<point x="451" y="555" type="curve"/>
			<point x="451" y="620" type="line"/>
			<point x="376" y="653" type="line"/>
			<point x="406" y="502" type="line"/>
			<point x="477" y="502" type="line"/>
			<point x="484" y="632" type="line"/>
			<point x="437" y="664"/>
			<point x="378" y="685"/>
			<point x="305" y="685" type="curve" smooth="yes"/>
			<point x="154" y="685"/>
			<point x="58" y="615"/>
			<point x="58" y="500" type="curve" smooth="yes"/>
			<point x="58" y="383"/>
			<point x="135" y="336"/>
			<point x="248" y="295" type="curve" smooth="yes"/>
			<point x="289" y="280" type="line" smooth="yes"/>
			<point x="379" y="247"/>
			<point x="418" y="219"/>
			<point x="418" y="161" type="curve" smooth="yes"/>
			<point x="418" y="89"/>
			<point x="353" y="50"/>
			<point x="254" y="50" type="curve" smooth="yes"/>
			<point x="179" y="50"/>
			<point x="142" y="70"/>
			<point x="74" y="115" type="curve"/>
			<point x="74" y="52" type="line"/>
			<point x="150" y="24" type="line"/>
			<point x="122" y="178" type="line"/>
			<point x="51" y="178" type="line"/>
			<point x="44" y="38" type="line"/>
			<point x="95" y="9"/>
			<point x="175" y="-15"/>
		</contour>
	</outline>
	<anchor name="aboveUC" x="283" y="691"/>
	<anchor name="belowLC" x="268" y="-22"/>
	<anchor name="baseLC" x="266" y="0"/>
</glyph>
<glyph name="T" format="2">
	<unicode hex="0054"/>
	<advance width="662"/>
	<outline>
		<contour>
			<point x="166" y="0" type="line"/>
			<point x="496" y="0" type="line"/>
			<point x="496" y="40" type="line"/>
			<point x="342" y="55" type="line"/>
			<point x="320" y="55" type="line"/>
			<point x="166" y="40" type="line"/>
		</contour>
		<contour>
			<point x="282" y="205"/>
			<point x="282" y="101"/>
			<point x="278" y="0" type="curve"/>
			<point x="384" y="0" type="line"/>
			<point x="381" y="103"/>
			<point x="381" y="207"/>
			<point x="381" y="310" type="curve" smooth="yes"/>
			<point x="381" y="360" type="line" smooth="yes"/>
			<point x="381" y="465"/>
			<point x="381" y="569"/>
			<point x="384" y="670" type="curve"/>
			<point x="278" y="670" type="line"/>
			<point x="282" y="567"/>
			<point x="282" y="463"/>
			<point x="282" y="360" type="curve" smooth="yes"/>
			<point x="282" y="310" type="line" smooth="yes"/>
		</contour>
		<contour>
			<point x="22" y="492" type="line"/>
			<point x="84" y="492" type="line"/>
			<point x="119" y="670" type="line"/>
			<point x="69" y="620" type="line"/>
			<point x="593" y="620" type="line"/>
			<point x="543" y="670" type="line"/>
			<point x="579" y="492" type="line"/>
			<point x="640" y="492" type="line"/>
			<point x="631" y="670" type="line"/>
			<point x="31" y="670" type="line"/>
		</contour>
	</outline>
	<anchor name="aboveUC" x="331" y="691"/>
	<anchor name="belowLC" x="331" y="-22"/>
	<anchor name="baseLC" x="331" y="0"/>
</glyph>
<glyph name="U" format="2">
	<unicode hex="0055"/>
	<advance width="800"/>
	<outline>
		<contour>
			<point x="138" y="66"/>
			<point x="245" y="-15"/>
			<point x="405" y="-15" type="curve" smooth="yes"/>
			<point x="553" y="-15"/>
			<point x="666" y="63"/>
			<point x="666" y="273" type="curve" smooth="yes"/>
			<point x="666" y="670" type="line"/>
			<point x="610" y="670" type="line"/>
			<point x="610" y="299" type="line" smooth="yes"/>
			<point x="610" y="120"/>
			<point x="547" y="55"/>
			<point x="420" y="55" type="curve" smooth="yes"/>
			<point x="308" y="55"/>
			<point x="237" y="109"/>
			<point x="237" y="281" type="curve" smooth="yes"/>
			<point x="237" y="360" type="line" smooth="yes"/>
			<point x="237" y="465"/>
			<point x="237" y="569"/>
			<point x="240" y="670" type="curve"/>
			<point x="134" y="670" type="line"/>
			<point x="138" y="567"/>
			<point x="138" y="463"/>
			<point x="138" y="360" type="curve" smooth="yes"/>
			<point x="138" y="252" type="line" smooth="yes"/>
		</contour>
		<contour>
			<point x="44" y="630" type="line"/>
			<point x="187" y="615" type="line"/>
			<point x="209" y="615" type="line"/>
			<point x="352" y="630" type="line"/>
			<point x="352" y="670" type="line"/>
			<point x="44" y="670" type="line"/>
		</contour>
		<contour>
			<point x="497" y="630" type="line"/>
			<point x="618" y="615" type="line"/>
			<point x="640" y="615" type="line"/>
			<point x="761" y="630" type="line"/>
			<point x="761" y="670" type="line"/>
			<point x="497" y="670" type="line"/>
		</contour>
	</outline>
	<anchor name="aboveUC" x="417" y="691"/>
	<anchor name="belowLC" x="410" y="-22"/>
	<anchor name="ogonek" x="497" y="0"/>
	<anchor name="hornLC" x="641" y="679"/>
</glyph>
<glyph name="V" format="2">
	<unicode hex="0056"/>
	<advance width="744"/>
	<outline>
		<contour>
			<point x="318" y="-4" type="line"/>
			<point x="438" y="-4" type="line"/>
			<point x="672" y="672" type="line"/>
			<point x="600" y="672" type="line"/>
			<point x="411" y="93" type="line"/>
			<point x="391" y="93" type="line"/>
			<point x="196" y="672" type="line"/>
			<point x="80" y="672" type="line"/>
		</contour>
		<contour>
			<point x="12" y="608" type="line"/>
			<point x="128" y="608" type="line"/>
			<point x="192" y="608" type="line"/>
			<point x="328" y="608" type="line"/>
			<point x="328" y="672" type="line"/>
			<point x="12" y="672" type="line"/>
		</contour>
		<contour>
			<point x="476" y="608" type="line"/>
			<point x="596" y="608" type="line"/>
			<point x="628" y="608" type="line"/>
			<point x="732" y="608" type="line"/>
			<point x="732" y="672" type="line"/>
			<point x="476" y="672" type="line"/>
		</contour>
	</outline>
	<anchor name="aboveUC" x="380" y="700"/>
	<anchor name="belowLC" x="372" y="-24"/>
</glyph>
<glyph name="W" format="2">
	<unicode hex="0057"/>
	<advance width="1057"/>
	<outline>
		<contour>
			<point x="308" y="-7" type="line"/>
			<point x="351" y="-7" type="line"/>
			<point x="542" y="543" type="line"/>
			<point x="522" y="543" type="line"/>
			<point x="725" y="-7" type="line"/>
			<point x="769" y="-7" type="line"/>
			<point x="969" y="670" type="line"/>
			<point x="914" y="670" type="line"/>
			<point x="748" y="122" type="line"/>
			<point x="767" y="123" type="line"/>
			<point x="572" y="670" type="line"/>
			<point x="537" y="670" type="line"/>
			<point x="338" y="127" type="line"/>
			<point x="356" y="126" type="line"/>
			<point x="196" y="670" type="line"/>
			<point x="94" y="670" type="line"/>
		</contour>
		<contour>
			<point x="16" y="630" type="line"/>
			<point x="160" y="615" type="line"/>
			<point x="182" y="615" type="line"/>
			<point x="314" y="630" type="line"/>
			<point x="314" y="670" type="line"/>
			<point x="16" y="670" type="line"/>
		</contour>
		<contour>
			<point x="406" y="630" type="line"/>
			<point x="547" y="615" type="line"/>
			<point x="569" y="615" type="line"/>
			<point x="703" y="630" type="line"/>
			<point x="703" y="670" type="line"/>
			<point x="406" y="670" type="line"/>
		</contour>
		<contour>
			<point x="795" y="630" type="line"/>
			<point x="911" y="615" type="line"/>
			<point x="933" y="615" type="line"/>
			<point x="1046" y="630" type="line"/>
			<point x="1046" y="670" type="line"/>
			<point x="795" y="670" type="line"/>
		</contour>
	</outline>
	<anchor name="aboveUC" x="549" y="691"/>
	<anchor name="belowLC" x="549" y="-22"/>
</glyph>
<glyph name="X" format="2">
	<unicode hex="0058"/>
	<advance width="713"/>
	<outline>
		<contour>
			<point x="11" y="0" type="line"/>
			<point x="264" y="0" type="line"/>
			<point x="264" y="40" type="line"/>
			<point x="154" y="55" type="line"/>
			<point x="132" y="55" type="line"/>
			<point x="11" y="40" type="line"/>
		</contour>
		<contour>
			<point x="79" y="0" type="line"/>
			<point x="141" y="0" type="line"/>
			<point x="370" y="328" type="line"/>
			<point x="334" y="354" type="line"/>
		</contour>
		<contour>
			<point x="394" y="0" type="line"/>
			<point x="702" y="0" type="line"/>
			<point x="702" y="40" type="line"/>
			<point x="559" y="55" type="line"/>
			<point x="537" y="55" type="line"/>
			<point x="394" y="40" type="line"/>
		</contour>
		<contour>
			<point x="366" y="316" type="line"/>
			<point x="618" y="670" type="line"/>
			<point x="557" y="670" type="line"/>
			<point x="331" y="342" type="line"/>
		</contour>
		<contour>
			<point x="530" y="0" type="line"/>
			<point x="640" y="0" type="line"/>
			<point x="196" y="670" type="line"/>
			<point x="86" y="670" type="line"/>
		</contour>
		<contour>
			<point x="21" y="630" type="line"/>
			<point x="164" y="615" type="line"/>
			<point x="186" y="615" type="line"/>
			<point x="329" y="630" type="line"/>
			<point x="329" y="670" type="line"/>
			<point x="21" y="670" type="line"/>
		</contour>
		<contour>
			<point x="426" y="630" type="line"/>
			<point x="536" y="615" type="line"/>
			<point x="558" y="615" type="line"/>
			<point x="679" y="630" type="line"/>
			<point x="679" y="670" type="line"/>
			<point x="426" y="670" type="line"/>
		</contour>
	</outline>
	<anchor name="aboveUC" x="355" y="691"/>
	<anchor name="belowLC" x="344" y="-22"/>
</glyph>
<glyph name="Y" format="2">
	<unicode hex="0059"/>
	<advance width="696"/>
	<outline>
		<contour>
			<point x="185" y="0" type="line"/>
			<point x="515" y="0" type="line"/>
			<point x="515" y="40" type="line"/>
			<point x="361" y="55" type="line"/>
			<point x="339" y="55" type="line"/>
			<point x="185" y="40" type="line"/>
		</contour>
		<contour>
			<point x="297" y="0" type="curve"/>
			<point x="403" y="0" type="line"/>
			<point x="399" y="89"/>
			<point x="399" y="186"/>
			<point x="399" y="300" type="curve"/>
			<point x="300" y="300" type="line"/>
			<point x="300" y="185"/>
			<point x="300" y="87"/>
		</contour>
		<contour>
			<point x="319" y="225" type="line"/>
			<point x="380" y="225" type="line"/>
			<point x="616" y="670" type="line"/>
			<point x="560" y="670" type="line"/>
			<point x="354" y="276" type="line"/>
			<point x="393" y="276" type="line"/>
			<point x="193" y="670" type="line"/>
			<point x="78" y="670" type="line"/>
		</contour>
		<contour>
			<point x="16" y="630" type="line"/>
			<point x="160" y="615" type="line"/>
			<point x="182" y="615" type="line"/>
			<point x="324" y="630" type="line"/>
			<point x="324" y="670" type="line"/>
			<point x="16" y="670" type="line"/>
		</contour>
		<contour>
			<point x="432" y="630" type="line"/>
			<point x="554" y="615" type="line"/>
			<point x="575" y="615" type="line"/>
			<point x="685" y="630" type="line"/>
			<point x="685" y="670" type="line"/>
			<point x="432" y="670" type="line"/>
		</contour>
	</outline>
	<anchor name="aboveUC" x="369" y="691"/>
	<anchor name="belowLC" x="348" y="-22"/>
</glyph>
<glyph name="Z" format="2">
	<unicode hex="005A"/>
	<advance width="605"/>
	<outline>
		<contour>
			<point x="22" y="0" type="line"/>
			<point x="574" y="0" type="line"/>
			<point x="583" y="178" type="line"/>
			<point x="517" y="178" type="line"/>
			<point x="480" y="21" type="line"/>
			<point x="517" y="50" type="line"/>
			<point x="110" y="50" type="line"/>
			<point x="123" y="26" type="line"/>
			<point x="559" y="635" type="line"/>
			<point x="559" y="670" type="line"/>
			<point x="42" y="670" type="line"/>
			<point x="33" y="492" type="line"/>
			<point x="99" y="492" type="line"/>
			<point x="136" y="649" type="line"/>
			<point x="99" y="620" type="line"/>
			<point x="472" y="620" type="line"/>
			<point x="459" y="644" type="line"/>
			<point x="22" y="35" type="line"/>
		</contour>
	</outline>
	<anchor name="aboveUC" x="311" y="691"/>
	<anchor name="belowLC" x="311" y="-22"/>
</glyph>
<glyph name="bracketleft" format="2">
	<unicode hex="005B"/>
	<advance width="320"/>
	<outline>
		<contour>
			<point x="132" y="-160" type="line"/>
			<point x="288" y="-160" type="line"/>
			<point x="288" y="-96" type="line"/>
			<point x="148" y="-96" type="line"/>
			<point x="132" y="-96" type="line"/>
		</contour>
		<contour>
			<point x="132" y="652" type="line"/>
			<point x="148" y="652" type="line"/>
			<point x="288" y="652" type="line"/>
			<point x="288" y="716" type="line"/>
			<point x="132" y="716" type="line"/>
		</contour>
		<contour>
			<point x="92" y="158" type="line"/>
			<point x="92" y="-160" type="line"/>
			<point x="172" y="-160" type="line"/>
			<point x="172" y="158" type="line"/>
			<point x="172" y="398" type="line"/>
			<point x="172" y="716" type="line"/>
			<point x="92" y="716" type="line"/>
			<point x="92" y="398" type="line"/>
		</contour>
	</outline>
</glyph>
<glyph name="backslash" format="2">
	<unicode hex="005C"/>
	<advance width="327"/>
	<outline>
		<contour>
			<point x="325" y="-160" type="line"/>
			<point x="58" y="710" type="line"/>
			<point x="2" y="710" type="line"/>
			<point x="269" y="-160" type="line"/>
		</contour>
	</outline>
</glyph>
<glyph name="a" format="2">
	<unicode hex="0061"/>
	<advance width="576"/>
	<outline>
		<contour>
			<point x="52" y="30"/>
			<point x="120" y="-14"/>
			<point x="188" y="-14" type="curve" smooth="yes"/>
			<point x="249" y="-14"/>
			<point x="301" y="18"/>
			<point x="324" y="80" type="curve"/>
			<point x="408" y="80" type="line"/>
			<point x="386" y="140" type="line"/>
			<point x="313" y="77"/>
			<point x="278" y="61"/>
			<point x="223" y="61" type="curve" smooth="yes"/>
			<point x="189" y="61"/>
			<point x="152" y="85"/>
			<point x="152" y="140" type="curve" smooth="yes"/>
			<point x="152" y="169"/>
			<point x="158" y="193"/>
			<point x="181" y="222" type="curve"/>
			<point x="409" y="290" type="line"/>
			<point x="409" y="326" type="line"/>
			<point x="209" y="267" type="line" smooth="yes"/>
			<point x="89" y="232"/>
			<point x="52" y="185"/>
			<point x="52" y="109" type="curve" smooth="yes"/>
		</contour>
		<contour>
			<point x="462" y="-10" type="curve" smooth="yes"/>
			<point x="504" y="-10"/>
			<point x="520" y="0"/>
			<point x="562" y="25" type="curve"/>
			<point x="553" y="72" type="line"/>
			<point x="532" y="66"/>
			<point x="513" y="63"/>
			<point x="498" y="63" type="curve" smooth="yes"/>
			<point x="479" y="63"/>
			<point x="464" y="80"/>
			<point x="464" y="117" type="curve" smooth="yes"/>
			<point x="464" y="330" type="line" smooth="yes"/>
			<point x="464" y="464"/>
			<point x="400" y="511"/>
			<point x="281" y="511" type="curve" smooth="yes"/>
			<point x="179" y="511"/>
			<point x="87" y="449"/>
			<point x="66" y="371" type="curve"/>
			<point x="68" y="343"/>
			<point x="86" y="325"/>
			<point x="116" y="325" type="curve" smooth="yes"/>
			<point x="147" y="325"/>
			<point x="174" y="343"/>
			<point x="176" y="377" type="curve" smooth="yes"/>
			<point x="183" y="488" type="line"/>
			<point x="158" y="461" type="line"/>
			<point x="199" y="465"/>
			<point x="233" y="466"/>
			<point x="259" y="466" type="curve" smooth="yes"/>
			<point x="336" y="466"/>
			<point x="368" y="441"/>
			<point x="368" y="336" type="curve" smooth="yes"/>
			<point x="368" y="97" type="line" smooth="yes"/>
			<point x="368" y="32"/>
			<point x="406" y="-10"/>
		</contour>
	</outline>
	<anchor name="aboveLC" x="273" y="531"/>
	<anchor name="belowLC" x="272" y="-23"/>
	<anchor name="ogonek" x="500" y="0"/>
</glyph>
<glyph name="b" format="2">
	<unicode hex="0062"/>
	<advance width="632"/>
	<outline>
		<contour>
			<point x="36" y="0" type="line"/>
			<point x="202" y="-10" type="line"/>
			<point x="214" y="83" type="line"/>
			<point x="214" y="404" type="line"/>
			<point x="209" y="418" type="line"/>
			<point x="209" y="587" type="line"/>
			<point x="213" y="736" type="line"/>
			<point x="187" y="755" type="line"/>
			<point x="20" y="707" type="line"/>
			<point x="20" y="660" type="line"/>
			<point x="118" y="649" type="line"/>
			<point x="118" y="220" type="line"/>
			<point x="118" y="66" type="line"/>
			<point x="36" y="52" type="line"/>
		</contour>
		<contour>
			<point x="279" y="10"/>
			<point x="323" y="-14"/>
			<point x="370" y="-14" type="curve" smooth="yes"/>
			<point x="502" y="-14"/>
			<point x="586" y="82"/>
			<point x="586" y="251" type="curve" smooth="yes"/>
			<point x="586" y="413"/>
			<point x="501" y="511"/>
			<point x="392" y="511" type="curve" smooth="yes"/>
			<point x="332" y="511"/>
			<point x="276" y="481"/>
			<point x="249" y="426" type="curve"/>
			<point x="173" y="426" type="line"/>
			<point x="173" y="347" type="line"/>
			<point x="224" y="398"/>
			<point x="288" y="437"/>
			<point x="350" y="437" type="curve" smooth="yes"/>
			<point x="430" y="437"/>
			<point x="490" y="384"/>
			<point x="490" y="249" type="curve" smooth="yes"/>
			<point x="490" y="112"/>
			<point x="434" y="57"/>
			<point x="344" y="57" type="curve" smooth="yes"/>
			<point x="287" y="57"/>
			<point x="232" y="80"/>
			<point x="173" y="125" type="curve"/>
			<point x="173" y="51" type="line"/>
			<point x="256" y="51" type="line"/>
		</contour>
	</outline>
	<anchor name="aboveLC" x="137" y="776"/>
	<anchor name="belowLC" x="356" y="-23"/>
</glyph>
<glyph name="c" format="2">
	<unicode hex="0063"/>
	<advance width="544"/>
	<outline>
		<contour>
			<point x="48" y="87"/>
			<point x="144" y="-14"/>
			<point x="298" y="-14" type="curve" smooth="yes"/>
			<point x="403" y="-14"/>
			<point x="475" y="35"/>
			<point x="505" y="122" type="curve"/>
			<point x="478" y="134" type="line"/>
			<point x="444" y="82"/>
			<point x="386" y="52"/>
			<point x="321" y="52" type="curve" smooth="yes"/>
			<point x="216" y="52"/>
			<point x="141" y="125"/>
			<point x="141" y="257" type="curve" smooth="yes"/>
			<point x="141" y="392"/>
			<point x="211" y="464"/>
			<point x="308" y="464" type="curve" smooth="yes"/>
			<point x="339" y="464"/>
			<point x="377" y="457"/>
			<point x="416" y="438" type="curve"/>
			<point x="364" y="477" type="line"/>
			<point x="392" y="384" type="line" smooth="yes"/>
			<point x="400" y="358"/>
			<point x="414" y="337"/>
			<point x="451" y="337" type="curve" smooth="yes"/>
			<point x="479" y="337"/>
			<point x="496" y="350"/>
			<point x="502" y="376" type="curve"/>
			<point x="487" y="454"/>
			<point x="404" y="511"/>
			<point x="305" y="511" type="curve" smooth="yes"/>
			<point x="171" y="511"/>
			<point x="48" y="413"/>
			<point x="48" y="248" type="curve" smooth="yes"/>
		</contour>
	</outline>
	<anchor name="aboveLC" x="306" y="531"/>
	<anchor name="belowLC" x="308" y="-23"/>
	<anchor name="baseLC" x="308" y="0"/>
</glyph>
<glyph name="d" format="2">
	<unicode hex="0064"/>
	<advance width="633"/>
	<outline>
		<contour>
			<point x="52" y="92"/>
			<point x="143" y="-14"/>
			<point x="280" y="-14" type="curve" smooth="yes"/>
			<point x="355" y="-14"/>
			<point x="405" y="18"/>
			<point x="444" y="73" type="curve"/>
			<point x="483" y="73" type="line"/>
			<point x="452" y="129" type="line"/>
			<point x="401" y="67"/>
			<point x="362" y="44"/>
			<point x="305" y="44" type="curve" smooth="yes"/>
			<point x="214" y="44"/>
			<point x="147" y="107"/>
			<point x="147" y="247" type="curve" smooth="yes"/>
			<point x="147" y="391"/>
			<point x="220" y="454"/>
			<point x="304" y="454" type="curve" smooth="yes"/>
			<point x="346" y="454"/>
			<point x="391" y="437"/>
			<point x="456" y="378" type="curve"/>
			<point x="477" y="428" type="line"/>
			<point x="450" y="428" type="line"/>
			<point x="398" y="492"/>
			<point x="348" y="511"/>
			<point x="290" y="511" type="curve" smooth="yes"/>
			<point x="152" y="511"/>
			<point x="52" y="404"/>
			<point x="52" y="245" type="curve" smooth="yes"/>
		</contour>
		<contour>
			<point x="445" y="-10" type="line"/>
			<point x="616" y="0" type="line"/>
			<point x="616" y="37" type="line"/>
			<point x="523" y="50" type="line"/>
			<point x="523" y="620" type="line"/>
			<point x="528" y="769" type="line"/>
			<point x="512" y="777" type="line"/>
			<point x="340" y="730" type="line"/>
			<point x="340" y="693" type="line"/>
			<point x="437" y="682" type="line"/>
			<point x="437" y="418" type="line"/>
			<point x="433" y="404" type="line"/>
			<point x="433" y="97" type="line"/>
		</contour>
	</outline>
	<anchor name="aboveLC" x="444" y="776"/>
	<anchor name="belowLC" x="320" y="-23"/>
</glyph>
<glyph name="e" format="2">
	<unicode hex="0065"/>
	<advance width="565"/>
	<outline>
		<contour>
			<point x="46" y="84"/>
			<point x="141" y="-14"/>
			<point x="298" y="-14" type="curve" smooth="yes"/>
			<point x="390" y="-14"/>
			<point x="449" y="24"/>
			<point x="510" y="88" type="curve"/>
			<point x="489" y="122" type="line"/>
			<point x="441" y="86"/>
			<point x="391" y="64"/>
			<point x="319" y="64" type="curve" smooth="yes"/>
			<point x="212" y="64"/>
			<point x="143" y="130"/>
			<point x="143" y="257" type="curve" smooth="yes"/>
			<point x="143" y="387"/>
			<point x="203" y="457"/>
			<point x="290" y="457" type="curve" smooth="yes"/>
			<point x="359" y="457"/>
			<point x="410" y="412"/>
			<point x="410" y="340" type="curve" smooth="yes"/>
			<point x="410" y="313"/>
			<point x="410" y="296"/>
			<point x="406" y="282" type="curve"/>
			<point x="87" y="282" type="line"/>
			<point x="87" y="234" type="line"/>
			<point x="491" y="234" type="line"/>
			<point x="496" y="251"/>
			<point x="499" y="277"/>
			<point x="499" y="307" type="curve" smooth="yes"/>
			<point x="499" y="444"/>
			<point x="415" y="511"/>
			<point x="294" y="511" type="curve" smooth="yes"/>
			<point x="155" y="511"/>
			<point x="46" y="403"/>
			<point x="46" y="244" type="curve" smooth="yes"/>
		</contour>
	</outline>
	<anchor name="aboveLC" x="303" y="531"/>
	<anchor name="belowLC" x="312" y="-23"/>
	<anchor name="ogonek" x="378" y="0"/>
</glyph>
<glyph name="f" format="2">
	<unicode hex="0066"/>
	<advance width="406"/>
	<outline>
		<contour>
			<point x="46" y="0" type="line"/>
			<point x="313" y="0" type="line"/>
			<point x="313" y="52" type="line"/>
			<point x="190" y="73" type="line"/>
			<point x="168" y="73" type="line"/>
			<point x="46" y="52" type="line"/>
		</contour>
		<contour>
			<point x="128" y="0" type="line"/>
			<point x="224" y="0" type="line"/>
			<point x="224" y="220" type="line"/>
			<point x="224" y="457" type="line"/>
			<point x="224" y="576"/>
			<point x="233" y="648"/>
			<point x="247" y="675" type="curve"/>
			<point x="277" y="690"/>
			<point x="310" y="706"/>
			<point x="338" y="719" type="curve"/>
			<point x="356" y="715"/>
			<point x="383" y="709"/>
			<point x="394" y="703" type="curve"/>
			<point x="368" y="735" type="line"/>
			<point x="274" y="714" type="line"/>
			<point x="329" y="675" type="line" smooth="yes"/>
			<point x="356" y="656"/>
			<point x="381" y="646"/>
			<point x="409" y="646" type="curve" smooth="yes"/>
			<point x="449" y="646"/>
			<point x="474" y="666"/>
			<point x="476" y="701" type="curve"/>
			<point x="455" y="730"/>
			<point x="422" y="748"/>
			<point x="369" y="748" type="curve" smooth="yes"/>
			<point x="319" y="748"/>
			<point x="266" y="733"/>
			<point x="221" y="690" type="curve" smooth="yes"/>
			<point x="166" y="639"/>
			<point x="138" y="593"/>
			<point x="138" y="496" type="curve"/>
			<point x="134" y="468" type="line"/>
			<point x="167" y="504" type="line"/>
			<point x="34" y="488" type="line"/>
			<point x="34" y="433" type="line"/>
			<point x="128" y="433" type="line"/>
			<point x="128" y="220" type="line"/>
		</contour>
		<contour>
			<point x="179" y="433" type="line"/>
			<point x="378" y="433" type="line"/>
			<point x="378" y="498" type="line"/>
			<point x="179" y="498" type="line"/>
		</contour>
	</outline>
	<anchor name="belowLC" x="177" y="-23"/>
</glyph>
<glyph name="g" format="2">
	<unicode hex="0067"/>
	<advance width="588"/>
	<outline>
		<contour>
			<point x="32" y="-100" type="curve" smooth="yes"/>
			<point x="32" y="-172"/>
			<point x="120" y="-224"/>
			<point x="264" y="-224" type="curve" smooth="yes"/>
			<point x="408" y="-224"/>
			<point x="532" y="-148"/>
			<point x="532" y="-48" type="curve" smooth="yes"/>
			<point x="532" y="28"/>
			<point x="472" y="80"/>
			<point x="360" y="80" type="curve" smooth="yes"/>
			<point x="228" y="80" type="line" smooth="yes"/>
			<point x="168" y="80"/>
			<point x="148" y="100"/>
			<point x="148" y="128" type="curve" smooth="yes"/>
			<point x="148" y="160"/>
			<point x="168" y="176"/>
			<point x="212" y="208" type="curve"/>
			<point x="144" y="208" type="line"/>
			<point x="144" y="176" type="line"/>
			<point x="92" y="168"/>
			<point x="56" y="148"/>
			<point x="56" y="100" type="curve" smooth="yes"/>
			<point x="56" y="52"/>
			<point x="96" y="36"/>
			<point x="144" y="28" type="curve"/>
			<point x="144" y="0" type="line"/>
			<point x="212" y="0" type="line"/>
			<point x="344" y="0" type="line" smooth="yes"/>
			<point x="408" y="0"/>
			<point x="440" y="-20"/>
			<point x="440" y="-64" type="curve" smooth="yes"/>
			<point x="440" y="-116"/>
			<point x="384" y="-168"/>
			<point x="270" y="-168" type="curve" smooth="yes"/>
			<point x="156" y="-168"/>
			<point x="128" y="-124"/>
			<point x="128" y="-84" type="curve" smooth="yes"/>
			<point x="128" y="-44"/>
			<point x="152" y="-16"/>
			<point x="188" y="4" type="curve"/>
			<point x="180" y="12" type="line"/>
			<point x="80" y="-8"/>
			<point x="32" y="-36"/>
		</contour>
		<contour>
			<point x="52" y="346" type="curve" smooth="yes"/>
			<point x="52" y="244"/>
			<point x="136" y="176"/>
			<point x="256" y="176" type="curve" smooth="yes"/>
			<point x="376" y="176"/>
			<point x="460" y="248"/>
			<point x="460" y="350" type="curve" smooth="yes"/>
			<point x="460" y="452"/>
			<point x="376" y="520"/>
			<point x="256" y="520" type="curve" smooth="yes"/>
			<point x="136" y="520"/>
			<point x="52" y="448"/>
		</contour>
		<contour>
			<point x="364" y="348" type="curve" smooth="yes"/>
			<point x="364" y="276"/>
			<point x="320" y="232"/>
			<point x="256" y="232" type="curve" smooth="yes"/>
			<point x="192" y="232"/>
			<point x="148" y="276"/>
			<point x="148" y="348" type="curve" smooth="yes"/>
			<point x="148" y="420"/>
			<point x="192" y="464"/>
			<point x="256" y="464" type="curve" smooth="yes"/>
			<point x="320" y="464"/>
			<point x="364" y="420"/>
		</contour>
		<contour>
			<point x="404" y="416" type="line"/>
			<point x="556" y="416" type="line"/>
			<point x="556" y="520" type="line"/>
			<point x="508" y="520" type="line"/>
			<point x="452" y="444" type="line"/>
			<point x="404" y="444" type="line"/>
		</contour>
	</outline>
	<anchor name="aboveLC" x="279" y="531"/>
	<anchor name="belowLC" x="285" y="-255"/>
</glyph>
<glyph name="h" format="2">
	<unicode hex="0068"/>
	<advance width="668"/>
	<outline>
		<contour>
			<point x="39" y="0" type="line"/>
			<point x="300" y="0" type="line"/>
			<point x="300" y="53" type="line"/>
			<point x="188" y="74" type="line"/>
			<point x="166" y="74" type="line"/>
			<point x="39" y="53" type="line"/>
		</contour>
		<contour>
			<point x="125" y="0" type="line"/>
			<point x="221" y="0" type="line"/>
			<point x="221" y="220" type="line"/>
			<point x="221" y="383" type="line"/>
			<point x="216" y="397" type="line"/>
			<point x="216" y="598" type="line"/>
			<point x="222" y="737" type="line"/>
			<point x="195" y="755" type="line"/>
			<point x="27" y="708" type="line"/>
			<point x="27" y="660" type="line"/>
			<point x="125" y="649" type="line"/>
			<point x="125" y="220" type="line"/>
		</contour>
		<contour>
			<point x="383" y="0" type="line"/>
			<point x="640" y="0" type="line"/>
			<point x="640" y="53" type="line"/>
			<point x="528" y="74" type="line"/>
			<point x="506" y="74" type="line"/>
			<point x="383" y="53" type="line"/>
		</contour>
		<contour>
			<point x="467" y="0" type="line"/>
			<point x="563" y="0" type="line"/>
			<point x="563" y="220" type="line"/>
			<point x="563" y="317" type="line" smooth="yes"/>
			<point x="563" y="456"/>
			<point x="509" y="511"/>
			<point x="413" y="511" type="curve" smooth="yes"/>
			<point x="360" y="511"/>
			<point x="291" y="471"/>
			<point x="261" y="416" type="curve"/>
			<point x="191" y="416" type="line"/>
			<point x="206" y="360" type="line"/>
			<point x="271" y="403"/>
			<point x="323" y="428"/>
			<point x="382" y="428" type="curve" smooth="yes"/>
			<point x="442" y="428"/>
			<point x="467" y="399"/>
			<point x="467" y="309" type="curve" smooth="yes"/>
			<point x="467" y="220" type="line"/>
		</contour>
	</outline>
	<anchor name="aboveLC" x="150" y="776"/>
	<anchor name="belowLC" x="348" y="-23"/>
</glyph>
<glyph name="i" format="2">
	<unicode hex="0069"/>
	<advance width="336"/>
	<outline>
		<contour>
			<point x="53" y="0" type="line"/>
			<point x="311" y="0" type="line"/>
			<point x="311" y="52" type="line"/>
			<point x="199" y="73" type="line"/>
			<point x="176" y="73" type="line"/>
			<point x="53" y="52" type="line"/>
		</contour>
		<contour>
			<point x="135" y="0" type="line"/>
			<point x="231" y="0" type="line"/>
			<point x="231" y="220" type="line"/>
			<point x="231" y="359" type="line"/>
			<point x="233" y="501" type="line"/>
			<point x="210" y="511" type="line"/>
			<point x="42" y="448" type="line"/>
			<point x="42" y="402" type="line"/>
			<point x="135" y="392" type="line"/>
			<point x="135" y="270" type="line"/>
			<point x="135" y="220" type="line"/>
		</contour>
		<contour>
			<point x="177" y="626" type="curve" smooth="yes"/>
			<point x="219" y="626"/>
			<point x="251" y="656"/>
			<point x="251" y="695" type="curve" smooth="yes"/>
			<point x="251" y="735"/>
			<point x="219" y="762"/>
			<point x="177" y="762" type="curve" smooth="yes"/>
			<point x="136" y="762"/>
			<point x="103" y="735"/>
			<point x="103" y="695" type="curve" smooth="yes"/>
			<point x="103" y="656"/>
			<point x="136" y="626"/>
		</contour>
	</outline>
	<anchor name="aboveLC" x="177" y="741"/>
	<anchor name="belowLC" x="181" y="-23"/>
	<anchor name="ogonek" x="215" y="0"/>
</glyph>
<glyph name="j" format="2">
	<unicode hex="006A"/>
	<advance width="308"/>
	<outline>
		<contour>
			<point x="-91" y="-230"/>
			<point x="-60" y="-262"/>
			<point x="7" y="-262" type="curve" smooth="yes"/>
			<point x="73" y="-262"/>
			<point x="104" y="-243"/>
			<point x="142" y="-207" type="curve" smooth="yes"/>
			<point x="204" y="-149"/>
			<point x="212" y="-66"/>
			<point x="212" y="108" type="curve" smooth="yes"/>
			<point x="212" y="359" type="line"/>
			<point x="215" y="501" type="line"/>
			<point x="198" y="511" type="line"/>
			<point x="34" y="448" type="line"/>
			<point x="34" y="412" type="line"/>
			<point x="123" y="402" type="line"/>
			<point x="125" y="360"/>
			<point x="127" y="328"/>
			<point x="127" y="270" type="curve" smooth="yes"/>
			<point x="127" y="108" type="line" smooth="yes"/>
			<point x="127" y="-54"/>
			<point x="120" y="-138"/>
			<point x="102" y="-181" type="curve" smooth="yes"/>
			<point x="85" y="-220"/>
			<point x="59" y="-227"/>
			<point x="28" y="-227" type="curve"/>
			<point x="30" y="-248" type="line"/>
			<point x="108" y="-226" type="line"/>
			<point x="57" y="-192" type="line" smooth="yes"/>
			<point x="27" y="-172"/>
			<point x="3" y="-162"/>
			<point x="-26" y="-162" type="curve" smooth="yes"/>
			<point x="-58" y="-162"/>
			<point x="-81" y="-175"/>
			<point x="-91" y="-203" type="curve"/>
		</contour>
		<contour>
			<point x="170" y="630" type="curve" smooth="yes"/>
			<point x="212" y="630"/>
			<point x="244" y="657"/>
			<point x="244" y="696" type="curve" smooth="yes"/>
			<point x="244" y="736"/>
			<point x="212" y="762"/>
			<point x="170" y="762" type="curve" smooth="yes"/>
			<point x="129" y="762"/>
			<point x="96" y="736"/>
			<point x="96" y="696" type="curve" smooth="yes"/>
			<point x="96" y="657"/>
			<point x="129" y="630"/>
		</contour>
	</outline>
	<anchor name="aboveLC" x="170" y="741"/>
	<anchor name="belowLC" x="59" y="-264"/>
</glyph>
<glyph name="k" format="2">
	<unicode hex="006B"/>
	<advance width="640"/>
	<outline>
		<contour>
			<point x="48" y="0" type="line"/>
			<point x="312" y="0" type="line"/>
			<point x="312" y="60" type="line"/>
			<point x="196" y="60" type="line"/>
			<point x="164" y="60" type="line"/>
			<point x="48" y="60" type="line"/>
		</contour>
		<contour>
			<point x="132" y="0" type="line"/>
			<point x="228" y="0" type="line"/>
			<point x="228" y="220" type="line"/>
			<point x="228" y="628" type="line"/>
			<point x="228" y="740" type="line"/>
			<point x="188" y="740" type="line"/>
			<point x="40" y="716" type="line"/>
			<point x="40" y="668" type="line"/>
			<point x="132" y="648" type="line"/>
			<point x="132" y="220" type="line"/>
		</contour>
		<contour>
			<point x="188" y="156" type="line"/>
			<point x="580" y="508" type="line"/>
			<point x="484" y="508" type="line"/>
			<point x="188" y="220" type="line"/>
		</contour>
		<contour>
			<point x="464" y="0" type="line"/>
			<point x="620" y="0" type="line"/>
			<point x="620" y="56" type="line"/>
			<point x="542" y="64" type="line"/>
			<point x="356" y="344" type="line"/>
			<point x="296" y="280" type="line"/>
		</contour>
		<contour>
			<point x="332" y="452" type="line"/>
			<point x="436" y="444" type="line"/>
			<point x="484" y="444" type="line"/>
			<point x="604" y="452" type="line"/>
			<point x="604" y="508" type="line"/>
			<point x="332" y="508" type="line"/>
		</contour>
	</outline>
	<anchor name="aboveLC" x="167" y="776"/>
	<anchor name="belowLC" x="343" y="-23"/>
</glyph>
<glyph name="l" format="2">
	<unicode hex="006C"/>
	<advance width="360"/>
	<outline>
		<contour>
			<point x="48" y="0" type="line"/>
			<point x="312" y="0" type="line"/>
			<point x="312" y="60" type="line"/>
			<point x="196" y="60" type="line"/>
			<point x="164" y="60" type="line"/>
			<point x="48" y="60" type="line"/>
		</contour>
		<contour>
			<point x="132" y="147"/>
			<point x="132" y="73"/>
			<point x="132" y="0" type="curve"/>
			<point x="228" y="0" type="line"/>
			<point x="228" y="73"/>
			<point x="228" y="147"/>
			<point x="228" y="220" type="curve" smooth="yes"/>
			<point x="228" y="628" type="line"/>
			<point x="228" y="740" type="line"/>
			<point x="188" y="740" type="line"/>
			<point x="40" y="716" type="line"/>
			<point x="40" y="668" type="line"/>
			<point x="132" y="648" type="line"/>
			<point x="132" y="220" type="line" smooth="yes"/>
		</contour>
	</outline>
	<anchor name="aboveLC" x="180" y="772"/>
	<anchor name="belowLC" x="180" y="-24"/>
</glyph>
<glyph name="m" format="2">
	<unicode hex="006D"/>
	<advance width="1012"/>
	<outline>
		<contour>
			<point x="53" y="0" type="line"/>
			<point x="311" y="0" type="line"/>
			<point x="311" y="52" type="line"/>
			<point x="199" y="73" type="line"/>
			<point x="176" y="73" type="line"/>
			<point x="53" y="52" type="line"/>
		</contour>
		<contour>
			<point x="135" y="0" type="line"/>
			<point x="231" y="0" type="line"/>
			<point x="231" y="220" type="line"/>
			<point x="231" y="379" type="line"/>
			<point x="216" y="501" type="line"/>
			<point x="190" y="511" type="line"/>
			<point x="42" y="448" type="line"/>
			<point x="42" y="400" type="line"/>
			<point x="135" y="390" type="line"/>
			<point x="135" y="270" type="line"/>
			<point x="135" y="220" type="line"/>
		</contour>
		<contour>
			<point x="393" y="0" type="line"/>
			<point x="651" y="0" type="line"/>
			<point x="651" y="52" type="line"/>
			<point x="539" y="73" type="line"/>
			<point x="516" y="73" type="line"/>
			<point x="393" y="52" type="line"/>
		</contour>
		<contour>
			<point x="477" y="0" type="line"/>
			<point x="573" y="0" type="line"/>
			<point x="573" y="220" type="line"/>
			<point x="573" y="317" type="line" smooth="yes"/>
			<point x="573" y="456"/>
			<point x="519" y="511"/>
			<point x="423" y="511" type="curve" smooth="yes"/>
			<point x="370" y="511"/>
			<point x="301" y="476"/>
			<point x="271" y="416" type="curve"/>
			<point x="201" y="416" type="line"/>
			<point x="216" y="360" type="line"/>
			<point x="281" y="403"/>
			<point x="333" y="428"/>
			<point x="392" y="428" type="curve" smooth="yes"/>
			<point x="452" y="428"/>
			<point x="477" y="399"/>
			<point x="477" y="309" type="curve" smooth="yes"/>
			<point x="477" y="220" type="line"/>
		</contour>
		<contour>
			<point x="726" y="0" type="line"/>
			<point x="984" y="0" type="line"/>
			<point x="984" y="52" type="line"/>
			<point x="872" y="73" type="line"/>
			<point x="849" y="73" type="line"/>
			<point x="726" y="52" type="line"/>
		</contour>
		<contour>
			<point x="811" y="0" type="line"/>
			<point x="907" y="0" type="line"/>
			<point x="907" y="220" type="line"/>
			<point x="907" y="317" type="line" smooth="yes"/>
			<point x="907" y="456"/>
			<point x="853" y="511"/>
			<point x="757" y="511" type="curve" smooth="yes"/>
			<point x="704" y="511"/>
			<point x="635" y="474"/>
			<point x="605" y="416" type="curve"/>
			<point x="534" y="416" type="line"/>
			<point x="549" y="360" type="line"/>
			<point x="614" y="403"/>
			<point x="667" y="428"/>
			<point x="726" y="428" type="curve" smooth="yes"/>
			<point x="786" y="428"/>
			<point x="811" y="399"/>
			<point x="811" y="309" type="curve" smooth="yes"/>
			<point x="811" y="220" type="line"/>
		</contour>
	</outline>
	<anchor name="aboveLC" x="512" y="531"/>
	<anchor name="belowLC" x="521" y="-23"/>
</glyph>
<glyph name="n" format="2">
	<unicode hex="006E"/>
	<advance width="678"/>
	<outline>
		<contour>
			<point x="54" y="0" type="line"/>
			<point x="312" y="0" type="line"/>
			<point x="312" y="52" type="line"/>
			<point x="200" y="73" type="line"/>
			<point x="177" y="73" type="line"/>
			<point x="54" y="52" type="line"/>
		</contour>
		<contour>
			<point x="136" y="0" type="line"/>
			<point x="232" y="0" type="line"/>
			<point x="232" y="220" type="line"/>
			<point x="232" y="379" type="line"/>
			<point x="217" y="501" type="line"/>
			<point x="191" y="511" type="line"/>
			<point x="42" y="448" type="line"/>
			<point x="42" y="400" type="line"/>
			<point x="136" y="390" type="line"/>
			<point x="136" y="270" type="line"/>
			<point x="136" y="220" type="line"/>
		</contour>
		<contour>
			<point x="396" y="0" type="line"/>
			<point x="654" y="0" type="line"/>
			<point x="654" y="52" type="line"/>
			<point x="542" y="73" type="line"/>
			<point x="520" y="73" type="line"/>
			<point x="396" y="52" type="line"/>
		</contour>
		<contour>
			<point x="478" y="0" type="line"/>
			<point x="574" y="0" type="line"/>
			<point x="574" y="220" type="line"/>
			<point x="574" y="317" type="line" smooth="yes"/>
			<point x="574" y="456"/>
			<point x="520" y="511"/>
			<point x="424" y="511" type="curve" smooth="yes"/>
			<point x="371" y="511"/>
			<point x="302" y="480"/>
			<point x="272" y="416" type="curve"/>
			<point x="202" y="416" type="line"/>
			<point x="217" y="360" type="line"/>
			<point x="282" y="403"/>
			<point x="334" y="428"/>
			<point x="393" y="428" type="curve" smooth="yes"/>
			<point x="453" y="428"/>
			<point x="478" y="399"/>
			<point x="478" y="309" type="curve" smooth="yes"/>
			<point x="478" y="220" type="line"/>
		</contour>
	</outline>
	<anchor name="aboveLC" x="354" y="531"/>
	<anchor name="belowLC" x="359" y="-23"/>
</glyph>
<glyph name="o" format="2">
	<unicode hex="006F"/>
	<advance width="602"/>
	<outline>
		<contour>
			<point x="301" y="-14" type="curve" smooth="yes"/>
			<point x="427" y="-14"/>
			<point x="556" y="72"/>
			<point x="556" y="247" type="curve" smooth="yes"/>
			<point x="556" y="421"/>
			<point x="427" y="511"/>
			<point x="301" y="511" type="curve" smooth="yes"/>
			<point x="172" y="511"/>
			<point x="46" y="421"/>
			<point x="46" y="247" type="curve" smooth="yes"/>
			<point x="46" y="72"/>
			<point x="172" y="-14"/>
		</contour>
		<contour>
			<point x="301" y="40" type="curve" smooth="yes"/>
			<point x="206" y="40"/>
			<point x="151" y="107"/>
			<point x="151" y="247" type="curve" smooth="yes"/>
			<point x="151" y="386"/>
			<point x="206" y="457"/>
			<point x="301" y="457" type="curve" smooth="yes"/>
			<point x="396" y="457"/>
			<point x="451" y="386"/>
			<point x="451" y="247" type="curve" smooth="yes"/>
			<point x="451" y="107"/>
			<point x="396" y="40"/>
		</contour>
	</outline>
	<anchor name="aboveLC" x="301" y="531"/>
	<anchor name="belowLC" x="302" y="-23"/>
	<anchor name="hornLC" x="433" y="504"/>
	<anchor name="ogonek" x="386" y="0"/>
</glyph>
<glyph name="p" format="2">
	<unicode hex="0070"/>
	<advance width="637"/>
	<outline>
		<contour>
			<point x="36" y="-212" type="line"/>
			<point x="323" y="-212" type="line"/>
			<point x="323" y="-160" type="line"/>
			<point x="185" y="-139" type="line"/>
			<point x="163" y="-139" type="line"/>
			<point x="36" y="-160" type="line"/>
		</contour>
		<contour>
			<point x="123" y="-212" type="line"/>
			<point x="218" y="-212" type="line"/>
			<point x="218" y="-29" type="line"/>
			<point x="218" y="76" type="line"/>
			<point x="219" y="82" type="line"/>
			<point x="219" y="410" type="line"/>
			<point x="215" y="412" type="line"/>
			<point x="204" y="501" type="line"/>
			<point x="180" y="511" type="line"/>
			<point x="30" y="448" type="line"/>
			<point x="30" y="400" type="line"/>
			<point x="123" y="390" type="line"/>
			<point x="123" y="270" type="line"/>
			<point x="123" y="-32" type="line"/>
		</contour>
		<contour>
			<point x="286" y="10"/>
			<point x="323" y="-14"/>
			<point x="365" y="-14" type="curve" smooth="yes"/>
			<point x="503" y="-14"/>
			<point x="591" y="82"/>
			<point x="591" y="251" type="curve" smooth="yes"/>
			<point x="591" y="413"/>
			<point x="502" y="511"/>
			<point x="387" y="511" type="curve" smooth="yes"/>
			<point x="333" y="511"/>
			<point x="286" y="479"/>
			<point x="258" y="426" type="curve"/>
			<point x="178" y="426" type="line"/>
			<point x="178" y="347" type="line"/>
			<point x="229" y="398"/>
			<point x="293" y="437"/>
			<point x="355" y="437" type="curve" smooth="yes"/>
			<point x="435" y="437"/>
			<point x="495" y="384"/>
			<point x="495" y="249" type="curve" smooth="yes"/>
			<point x="495" y="112"/>
			<point x="439" y="57"/>
			<point x="349" y="57" type="curve" smooth="yes"/>
			<point x="292" y="57"/>
			<point x="237" y="80"/>
			<point x="178" y="125" type="curve"/>
			<point x="178" y="51" type="line"/>
			<point x="263" y="51" type="line"/>
		</contour>
	</outline>
	<anchor name="aboveLC" x="335" y="531"/>
	<anchor name="belowLC" x="176" y="-244"/>
</glyph>
<glyph name="q" format="2">
	<unicode hex="0071"/>
	<advance width="622"/>
	<outline>
		<contour>
			<point x="335" y="-252" type="line"/>
			<point x="622" y="-252" type="line"/>
			<point x="622" y="-215" type="line"/>
			<point x="495" y="-194" type="line"/>
			<point x="473" y="-194" type="line"/>
			<point x="335" y="-215" type="line"/>
		</contour>
		<contour>
			<point x="52" y="91"/>
			<point x="143" y="-14"/>
			<point x="280" y="-14" type="curve" smooth="yes"/>
			<point x="350" y="-14"/>
			<point x="404" y="15"/>
			<point x="450" y="81" type="curve"/>
			<point x="468" y="81" type="line"/>
			<point x="452" y="129" type="line"/>
			<point x="401" y="68"/>
			<point x="361" y="44"/>
			<point x="305" y="44" type="curve" smooth="yes"/>
			<point x="214" y="44"/>
			<point x="147" y="106"/>
			<point x="147" y="246" type="curve" smooth="yes"/>
			<point x="147" y="390"/>
			<point x="220" y="454"/>
			<point x="304" y="454" type="curve" smooth="yes"/>
			<point x="346" y="454"/>
			<point x="391" y="437"/>
			<point x="456" y="378" type="curve"/>
			<point x="470" y="424" type="line"/>
			<point x="453" y="424" type="line"/>
			<point x="399" y="491"/>
			<point x="343" y="511"/>
			<point x="286" y="511" type="curve" smooth="yes"/>
			<point x="152" y="511"/>
			<point x="52" y="403"/>
			<point x="52" y="244" type="curve" smooth="yes"/>
		</contour>
		<contour>
			<point x="441" y="-103"/>
			<point x="440" y="-178"/>
			<point x="438" y="-252" type="curve"/>
			<point x="531" y="-252" type="line"/>
			<point x="529" y="-178"/>
			<point x="528" y="-103"/>
			<point x="528" y="-29" type="curve" smooth="yes"/>
			<point x="528" y="359" type="line"/>
			<point x="531" y="501" type="line"/>
			<point x="514" y="511" type="line"/>
			<point x="438" y="436" type="line"/>
			<point x="438" y="90" type="line"/>
			<point x="441" y="76" type="line"/>
			<point x="441" y="-29" type="line" smooth="yes"/>
		</contour>
	</outline>
	<anchor name="aboveLC" x="336" y="531"/>
	<anchor name="belowLC" x="478" y="-264"/>
</glyph>
<glyph name="r" format="2">
	<unicode hex="0072"/>
	<advance width="470"/>
	<outline>
		<contour>
			<point x="46" y="0" type="line"/>
			<point x="317" y="0" type="line"/>
			<point x="317" y="51" type="line"/>
			<point x="194" y="72" type="line"/>
			<point x="171" y="72" type="line"/>
			<point x="46" y="52" type="line"/>
		</contour>
		<contour>
			<point x="128" y="0" type="line"/>
			<point x="224" y="0" type="line"/>
			<point x="224" y="220" type="line"/>
			<point x="224" y="370" type="line"/>
			<point x="209" y="501" type="line"/>
			<point x="182" y="511" type="line"/>
			<point x="35" y="448" type="line"/>
			<point x="35" y="401" type="line"/>
			<point x="128" y="390" type="line"/>
			<point x="128" y="270" type="line"/>
			<point x="128" y="220" type="line"/>
		</contour>
		<contour>
			<point x="212" y="310" type="line"/>
			<point x="246" y="344"/>
			<point x="283" y="376"/>
			<point x="351" y="428" type="curve"/>
			<point x="300" y="433" type="line"/>
			<point x="330" y="409" type="line" smooth="yes"/>
			<point x="351" y="393"/>
			<point x="372" y="384"/>
			<point x="398" y="384" type="curve" smooth="yes"/>
			<point x="442" y="384"/>
			<point x="463" y="416"/>
			<point x="463" y="461" type="curve"/>
			<point x="451" y="493"/>
			<point x="425" y="511"/>
			<point x="392" y="511" type="curve" smooth="yes"/>
			<point x="347" y="511"/>
			<point x="288" y="459"/>
			<point x="264" y="374" type="curve"/>
			<point x="212" y="374" type="line"/>
		</contour>
	</outline>
	<anchor name="aboveLC" x="270" y="531"/>
	<anchor name="belowLC" x="183" y="-23"/>
</glyph>
<glyph name="s" format="2">
	<unicode hex="0073"/>
	<advance width="479"/>
	<outline>
		<contour>
			<point x="230" y="-14" type="curve" smooth="yes"/>
			<point x="378" y="-14"/>
			<point x="446" y="57"/>
			<point x="446" y="135" type="curve" smooth="yes"/>
			<point x="446" y="209"/>
			<point x="404" y="257"/>
			<point x="299" y="284" type="curve" smooth="yes"/>
			<point x="252" y="296" type="line" smooth="yes"/>
			<point x="178" y="315"/>
			<point x="151" y="340"/>
			<point x="151" y="381" type="curve" smooth="yes"/>
			<point x="151" y="430"/>
			<point x="188" y="461"/>
			<point x="258" y="461" type="curve" smooth="yes"/>
			<point x="300" y="461"/>
			<point x="349" y="455"/>
			<point x="378" y="451" type="curve"/>
			<point x="378" y="462" type="line"/>
			<point x="341" y="478" type="line"/>
			<point x="349" y="362" type="line"/>
			<point x="418" y="362" type="line"/>
			<point x="423" y="478" type="line"/>
			<point x="376" y="499"/>
			<point x="323" y="511"/>
			<point x="259" y="511" type="curve" smooth="yes"/>
			<point x="129" y="511"/>
			<point x="61" y="443"/>
			<point x="61" y="365" type="curve" smooth="yes"/>
			<point x="61" y="291"/>
			<point x="111" y="244"/>
			<point x="194" y="222" type="curve" smooth="yes"/>
			<point x="254" y="206" type="line" smooth="yes"/>
			<point x="324" y="187"/>
			<point x="354" y="167"/>
			<point x="354" y="121" type="curve" smooth="yes"/>
			<point x="354" y="75"/>
			<point x="314" y="36"/>
			<point x="230" y="36" type="curve" smooth="yes"/>
			<point x="169" y="36"/>
			<point x="114" y="41"/>
			<point x="80" y="49" type="curve"/>
			<point x="80" y="31" type="line"/>
			<point x="132" y="7" type="line"/>
			<point x="116" y="141" type="line"/>
			<point x="44" y="141" type="line"/>
			<point x="48" y="16" type="line"/>
			<point x="105" y="-5"/>
			<point x="160" y="-14"/>
		</contour>
	</outline>
	<anchor name="aboveLC" x="253" y="531"/>
	<anchor name="belowLC" x="245" y="-23"/>
	<anchor name="baseLC" x="240" y="0"/>
	<guideline x="239" y="-100" angle="90" identifier="EPVmyAiQZw"/>
</glyph>
<glyph name="t" format="2">
	<unicode hex="0074"/>
	<advance width="398"/>
	<outline>
		<contour>
			<point x="127" y="29"/>
			<point x="172" y="-9"/>
			<point x="249" y="-9" type="curve" smooth="yes"/>
			<point x="305" y="-9"/>
			<point x="336" y="4"/>
			<point x="381" y="27" type="curve"/>
			<point x="370" y="79" type="line"/>
			<point x="343" y="73"/>
			<point x="307" y="68"/>
			<point x="283" y="68" type="curve" smooth="yes"/>
			<point x="245" y="68"/>
			<point x="223" y="91"/>
			<point x="223" y="146" type="curve" smooth="yes"/>
			<point x="223" y="457" type="line"/>
			<point x="214" y="471" type="line"/>
			<point x="232" y="640" type="line"/>
			<point x="161" y="640" type="line"/>
			<point x="127" y="470" type="line"/>
			<point x="170" y="505" type="line"/>
			<point x="31" y="488" type="line"/>
			<point x="31" y="428" type="line"/>
			<point x="127" y="428" type="line"/>
			<point x="127" y="198" type="line"/>
			<point x="127" y="110" type="line" smooth="yes"/>
		</contour>
		<contour>
			<point x="180" y="428" type="line"/>
			<point x="369" y="428" type="line"/>
			<point x="369" y="498" type="line"/>
			<point x="180" y="498" type="line"/>
		</contour>
	</outline>
	<anchor name="aboveLC" x="178" y="670"/>
	<anchor name="belowLC" x="215" y="-23"/>
	<anchor name="baseLC" x="215" y="0"/>
</glyph>
<glyph name="u" format="2">
	<unicode hex="0075"/>
	<advance width="647"/>
	<outline>
		<contour>
			<point x="112" y="37"/>
			<point x="173" y="-14"/>
			<point x="260" y="-14" type="curve" smooth="yes"/>
			<point x="310" y="-14"/>
			<point x="374" y="16"/>
			<point x="403" y="84" type="curve"/>
			<point x="473" y="84" type="line"/>
			<point x="457" y="139" type="line"/>
			<point x="406" y="99"/>
			<point x="349" y="68"/>
			<point x="289" y="68" type="curve" smooth="yes"/>
			<point x="237" y="68"/>
			<point x="210" y="98"/>
			<point x="210" y="186" type="curve" smooth="yes"/>
			<point x="210" y="346" type="line"/>
			<point x="215" y="494" type="line"/>
			<point x="204" y="504" type="line"/>
			<point x="43" y="490" type="line"/>
			<point x="43" y="442" type="line"/>
			<point x="147" y="421" type="line"/>
			<point x="118" y="453" type="line"/>
			<point x="114" y="175" type="line" smooth="yes"/>
		</contour>
		<contour>
			<point x="457" y="-8" type="line"/>
			<point x="616" y="0" type="line"/>
			<point x="616" y="52" type="line"/>
			<point x="542" y="67" type="line"/>
			<point x="542" y="346" type="line"/>
			<point x="546" y="494" type="line"/>
			<point x="535" y="504" type="line"/>
			<point x="364" y="490" type="line"/>
			<point x="364" y="442" type="line"/>
			<point x="445" y="426" type="line"/>
			<point x="445" y="114" type="line"/>
		</contour>
	</outline>
	<anchor name="aboveLC" x="302" y="531"/>
	<anchor name="belowLC" x="321" y="-23"/>
	<anchor name="hornLC" x="489" y="495"/>
	<anchor name="ogonek" x="538" y="0"/>
</glyph>
<glyph name="v" format="2">
	<unicode hex="0076"/>
	<advance width="603"/>
	<outline>
		<contour>
			<point x="242" y="0" type="line"/>
			<point x="384" y="0" type="line"/>
			<point x="563" y="498" type="line"/>
			<point x="483" y="498" type="line"/>
			<point x="339" y="51" type="line"/>
			<point x="319" y="51" type="line"/>
			<point x="171" y="498" type="line"/>
			<point x="50" y="498" type="line"/>
		</contour>
		<contour>
			<point x="15" y="445" type="line"/>
			<point x="115" y="427" type="line"/>
			<point x="137" y="427" type="line"/>
			<point x="274" y="445" type="line"/>
			<point x="274" y="498" type="line"/>
			<point x="15" y="498" type="line"/>
		</contour>
		<contour>
			<point x="385" y="445" type="line"/>
			<point x="497" y="427" type="line"/>
			<point x="520" y="427" type="line"/>
			<point x="598" y="445" type="line"/>
			<point x="598" y="498" type="line"/>
			<point x="385" y="498" type="line"/>
		</contour>
	</outline>
	<anchor name="aboveLC" x="316" y="531"/>
	<anchor name="belowLC" x="305" y="-23"/>
</glyph>
<glyph name="w" format="2">
	<unicode hex="0077"/>
	<advance width="853"/>
	<outline>
		<contour>
			<point x="245" y="-6" type="line"/>
			<point x="284" y="-6" type="line"/>
			<point x="444" y="396" type="line"/>
			<point x="422" y="396" type="line"/>
			<point x="580" y="-6" type="line"/>
			<point x="619" y="-6" type="line"/>
			<point x="802" y="498" type="line"/>
			<point x="739" y="498" type="line"/>
			<point x="607" y="92" type="line"/>
			<point x="627" y="93" type="line"/>
			<point x="464" y="498" type="line"/>
			<point x="430" y="498" type="line"/>
			<point x="271" y="92" type="line"/>
			<point x="292" y="92" type="line"/>
			<point x="146" y="498" type="line"/>
			<point x="45" y="498" type="line"/>
		</contour>
		<contour>
			<point x="0" y="458" type="line"/>
			<point x="110" y="440" type="line"/>
			<point x="132" y="440" type="line"/>
			<point x="253" y="458" type="line"/>
			<point x="253" y="498" type="line"/>
			<point x="0" y="498" type="line"/>
		</contour>
		<contour>
			<point x="325" y="458" type="line"/>
			<point x="442" y="440" type="line"/>
			<point x="465" y="440" type="line"/>
			<point x="571" y="458" type="line"/>
			<point x="571" y="498" type="line"/>
			<point x="325" y="498" type="line"/>
		</contour>
		<contour>
			<point x="637" y="458" type="line"/>
			<point x="741" y="440" type="line"/>
			<point x="764" y="440" type="line"/>
			<point x="842" y="458" type="line"/>
			<point x="842" y="498" type="line"/>
			<point x="637" y="498" type="line"/>
		</contour>
	</outline>
	<anchor name="aboveLC" x="438" y="531"/>
	<anchor name="belowLC" x="433" y="-23"/>
</glyph>
<glyph name="x" format="2">
	<unicode hex="0078"/>
	<advance width="596"/>
	<outline>
		<contour>
			<point x="24" y="0" type="line"/>
			<point x="252" y="0" type="line"/>
			<point x="252" y="60" type="line"/>
			<point x="156" y="60" type="line"/>
			<point x="120" y="60" type="line"/>
			<point x="24" y="60" type="line"/>
		</contour>
		<contour>
			<point x="52" y="0" type="line"/>
			<point x="140" y="0" type="line"/>
			<point x="308" y="256" type="line"/>
			<point x="268" y="284" type="line"/>
		</contour>
		<contour>
			<point x="320" y="0" type="line"/>
			<point x="588" y="0" type="line"/>
			<point x="588" y="60" type="line"/>
			<point x="484" y="60" type="line"/>
			<point x="428" y="60" type="line"/>
			<point x="320" y="60" type="line"/>
		</contour>
		<contour>
			<point x="332" y="236" type="line"/>
			<point x="544" y="508" type="line"/>
			<point x="456" y="508" type="line"/>
			<point x="292" y="264" type="line"/>
		</contour>
		<contour>
			<point x="268" y="240" type="line"/>
			<point x="444" y="0" type="line"/>
			<point x="568" y="0" type="line"/>
			<point x="332" y="284" type="line"/>
			<point x="172" y="508" type="line"/>
			<point x="48" y="508" type="line"/>
		</contour>
		<contour>
			<point x="24" y="452" type="line"/>
			<point x="128" y="444" type="line"/>
			<point x="184" y="444" type="line"/>
			<point x="288" y="452" type="line"/>
			<point x="288" y="508" type="line"/>
			<point x="24" y="508" type="line"/>
		</contour>
		<contour>
			<point x="348" y="452" type="line"/>
			<point x="432" y="444" type="line"/>
			<point x="472" y="444" type="line"/>
			<point x="572" y="452" type="line"/>
			<point x="572" y="508" type="line"/>
			<point x="348" y="508" type="line"/>
		</contour>
	</outline>
	<anchor name="aboveLC" x="300" y="531"/>
	<anchor name="belowLC" x="283" y="-23"/>
</glyph>
<glyph name="y" format="2">
	<unicode hex="0079"/>
	<advance width="572"/>
	<outline>
		<contour>
			<point x="102" y="-262" type="curve" smooth="yes"/>
			<point x="194" y="-262"/>
			<point x="256" y="-183"/>
			<point x="333" y="6" type="curve" smooth="yes"/>
			<point x="532" y="498" type="line"/>
			<point x="472" y="498" type="line"/>
			<point x="299" y="51" type="line"/>
			<point x="264" y="-40" type="line" smooth="yes"/>
			<point x="236" y="-113"/>
			<point x="192" y="-186"/>
			<point x="116" y="-220" type="curve"/>
			<point x="147" y="-244" type="line"/>
			<point x="190" y="-220" type="line"/>
			<point x="156" y="-188" type="line" smooth="yes"/>
			<point x="125" y="-160"/>
			<point x="103" y="-149"/>
			<point x="74" y="-149" type="curve" smooth="yes"/>
			<point x="40" y="-149"/>
			<point x="8" y="-164"/>
			<point x="0" y="-193" type="curve"/>
			<point x="0" y="-234"/>
			<point x="47" y="-262"/>
		</contour>
		<contour>
			<point x="281" y="-55" type="line"/>
			<point x="327" y="50" type="line"/>
			<point x="320" y="69" type="line"/>
			<point x="151" y="498" type="line"/>
			<point x="47" y="498" type="line"/>
		</contour>
		<contour>
			<point x="4" y="461" type="line"/>
			<point x="114" y="445" type="line"/>
			<point x="137" y="445" type="line"/>
			<point x="271" y="460" type="line"/>
			<point x="271" y="498" type="line"/>
			<point x="4" y="498" type="line"/>
		</contour>
		<contour>
			<point x="353" y="461" type="line"/>
			<point x="472" y="445" type="line"/>
			<point x="494" y="445" type="line"/>
			<point x="572" y="461" type="line"/>
			<point x="572" y="498" type="line"/>
			<point x="353" y="498" type="line"/>
		</contour>
	</outline>
	<anchor name="aboveLC" x="302" y="531"/>
	<anchor name="belowLC" x="138" y="-268"/>
</glyph>
<glyph name="z" format="2">
	<unicode hex="007A"/>
	<advance width="510"/>
	<outline>
		<contour>
			<point x="34" y="0" type="line"/>
			<point x="470" y="0" type="line"/>
			<point x="482" y="171" type="line"/>
			<point x="426" y="171" type="line"/>
			<point x="384" y="15" type="line"/>
			<point x="422" y="44" type="line"/>
			<point x="112" y="44" type="line"/>
			<point x="124" y="20" type="line"/>
			<point x="465" y="461" type="line"/>
			<point x="465" y="498" type="line"/>
			<point x="49" y="498" type="line"/>
			<point x="40" y="341" type="line"/>
			<point x="96" y="337" type="line"/>
			<point x="135" y="483" type="line"/>
			<point x="97" y="454" type="line"/>
			<point x="386" y="454" type="line"/>
			<point x="374" y="478" type="line"/>
			<point x="34" y="37" type="line"/>
		</contour>
	</outline>
	<anchor name="aboveLC" x="268" y="531"/>
	<anchor name="belowLC" x="270" y="-23"/>
</glyph>
<glyph name="bar" format="2">
	<unicode hex="007C"/>
	<advance width="248"/>
	<outline>
		<contour>
			<point x="88" y="-212" type="line"/>
			<point x="160" y="-212" type="line"/>
			<point x="160" y="740" type="line"/>
			<point x="88" y="740" type="line"/>
		</contour>
	</outline>
</glyph>
<glyph name="asciitilde" format="2">
	<unicode hex="007E"/>
	<advance width="538"/>
	<outline>
		<contour>
			<point x="294" y="367" type="curve" smooth="yes"/>
			<point x="258" y="407"/>
			<point x="222" y="431"/>
			<point x="180" y="431" type="curve" smooth="yes"/>
			<point x="108" y="431"/>
			<point x="61" y="381"/>
			<point x="49" y="275" type="curve"/>
			<point x="105" y="265" type="line"/>
			<point x="113" y="336"/>
			<point x="136" y="363"/>
			<point x="170" y="363" type="curve" smooth="yes"/>
			<point x="197" y="363"/>
			<point x="220" y="347"/>
			<point x="244" y="321" type="curve" smooth="yes"/>
			<point x="280" y="281"/>
			<point x="316" y="257"/>
			<point x="358" y="257" type="curve" smooth="yes"/>
			<point x="430" y="257"/>
			<point x="477" y="307"/>
			<point x="489" y="413" type="curve"/>
			<point x="433" y="423" type="line"/>
			<point x="425" y="352"/>
			<point x="402" y="325"/>
			<point x="368" y="325" type="curve" smooth="yes"/>
			<point x="341" y="325"/>
			<point x="318" y="341"/>
		</contour>
	</outline>
</glyph>
<glyph name="cent" format="2">
	<unicode hex="00A2"/>
	<advance width="537"/>
	<outline>
		<contour>
			<point x="306" y="-45" type="line"/>
			<point x="306" y="660" type="line"/>
			<point x="266" y="660" type="line"/>
			<point x="266" y="-45" type="line"/>
		</contour>
		<contour>
			<point x="294" y="523" type="curve" smooth="yes"/>
			<point x="323" y="523"/>
			<point x="358" y="516"/>
			<point x="392" y="498" type="curve"/>
			<point x="346" y="535" type="line"/>
			<point x="360" y="477" type="line" smooth="yes"/>
			<point x="373" y="424"/>
			<point x="391" y="402"/>
			<point x="423" y="402" type="curve" smooth="yes"/>
			<point x="449" y="402"/>
			<point x="464" y="414"/>
			<point x="469" y="439" type="curve"/>
			<point x="456" y="513"/>
			<point x="382" y="568"/>
			<point x="294" y="568" type="curve" smooth="yes"/>
			<point x="174" y="568"/>
			<point x="64" y="471"/>
			<point x="64" y="314" type="curve" smooth="yes"/>
			<point x="64" y="161"/>
			<point x="150" y="63"/>
			<point x="283" y="63" type="curve" smooth="yes"/>
			<point x="381" y="63"/>
			<point x="445" y="109"/>
			<point x="472" y="192" type="curve"/>
			<point x="448" y="204" type="line"/>
			<point x="417" y="154"/>
			<point x="359" y="126"/>
			<point x="300" y="126" type="curve" smooth="yes"/>
			<point x="209" y="126"/>
			<point x="147" y="197"/>
			<point x="147" y="323" type="curve" smooth="yes"/>
			<point x="147" y="451"/>
			<point x="209" y="523"/>
		</contour>
	</outline>
</glyph>
<glyph name="yen" format="2">
	<unicode hex="00A5"/>
	<advance width="537"/>
	<outline>
		<contour>
			<point x="131" y="0" type="line"/>
			<point x="407" y="0" type="line"/>
			<point x="407" y="60" type="line"/>
			<point x="291" y="60" type="line"/>
			<point x="247" y="60" type="line"/>
			<point x="131" y="60" type="line"/>
		</contour>
		<contour>
			<point x="219" y="0" type="line"/>
			<point x="319" y="0" type="line"/>
			<point x="311" y="324" type="line"/>
			<point x="227" y="324" type="line"/>
		</contour>
		<contour>
			<point x="247" y="252" type="line"/>
			<point x="291" y="252" type="line"/>
			<point x="479" y="648" type="line"/>
			<point x="415" y="648" type="line"/>
			<point x="267" y="308" type="line"/>
			<point x="307" y="308" type="line"/>
			<point x="167" y="648" type="line"/>
			<point x="59" y="648" type="line"/>
		</contour>
		<contour>
			<point x="31" y="588" type="line"/>
			<point x="95" y="588" type="line"/>
			<point x="175" y="588" type="line"/>
			<point x="255" y="588" type="line"/>
			<point x="255" y="648" type="line"/>
			<point x="31" y="648" type="line"/>
		</contour>
		<contour>
			<point x="327" y="588" type="line"/>
			<point x="395" y="588" type="line"/>
			<point x="443" y="588" type="line"/>
			<point x="507" y="588" type="line"/>
			<point x="507" y="648" type="line"/>
			<point x="327" y="648" type="line"/>
		</contour>
		<contour>
			<point x="83" y="144" type="line"/>
			<point x="455" y="144" type="line"/>
			<point x="455" y="192" type="line"/>
			<point x="83" y="192" type="line"/>
		</contour>
		<contour>
			<point x="83" y="268" type="line"/>
			<point x="455" y="268" type="line"/>
			<point x="455" y="316" type="line"/>
			<point x="83" y="316" type="line"/>
		</contour>
	</outline>
</glyph>
<glyph name="brokenbar" format="2">
	<unicode hex="00A6"/>
	<advance width="248"/>
	<outline>
		<contour>
			<point x="88" y="-212" type="line"/>
			<point x="160" y="-212" type="line"/>
			<point x="160" y="196" type="line"/>
			<point x="88" y="196" type="line"/>
		</contour>
		<contour>
			<point x="160" y="332" type="line"/>
			<point x="160" y="740" type="line"/>
			<point x="88" y="740" type="line"/>
			<point x="88" y="332" type="line"/>
		</contour>
	</outline>
</glyph>
<glyph name="section" format="2">
	<unicode hex="00A7"/>
	<advance width="496"/>
	<outline>
		<contour>
			<point x="252" y="688" type="curve" smooth="yes"/>
			<point x="148" y="688"/>
			<point x="68" y="636"/>
			<point x="68" y="544" type="curve" smooth="yes"/>
			<point x="68" y="468"/>
			<point x="124" y="420"/>
			<point x="240" y="376" type="curve" smooth="yes"/>
			<point x="324" y="344"/>
			<point x="360" y="312"/>
			<point x="360" y="268" type="curve" smooth="yes"/>
			<point x="360" y="224"/>
			<point x="336" y="192"/>
			<point x="314" y="178" type="curve"/>
			<point x="329" y="161" type="line"/>
			<point x="392" y="184"/>
			<point x="448" y="232"/>
			<point x="448" y="300" type="curve" smooth="yes"/>
			<point x="448" y="384"/>
			<point x="380" y="424"/>
			<point x="276" y="464" type="curve" smooth="yes"/>
			<point x="192" y="496"/>
			<point x="156" y="516"/>
			<point x="156" y="564" type="curve" smooth="yes"/>
			<point x="156" y="612"/>
			<point x="196" y="640"/>
			<point x="260" y="640" type="curve" smooth="yes"/>
			<point x="288" y="640"/>
			<point x="316" y="636"/>
			<point x="332" y="632" type="curve"/>
			<point x="292" y="664" type="line"/>
			<point x="316" y="600" type="line" smooth="yes"/>
			<point x="332" y="556"/>
			<point x="352" y="544"/>
			<point x="383" y="544" type="curve" smooth="yes"/>
			<point x="408" y="544"/>
			<point x="424" y="556"/>
			<point x="432" y="580" type="curve"/>
			<point x="416" y="644"/>
			<point x="352" y="688"/>
		</contour>
		<contour>
			<point x="232" y="-104" type="curve"/>
			<point x="340" y="-104"/>
			<point x="420" y="-48"/>
			<point x="420" y="48" type="curve" smooth="yes"/>
			<point x="420" y="128"/>
			<point x="364" y="180"/>
			<point x="248" y="224" type="curve" smooth="yes"/>
			<point x="164" y="256"/>
			<point x="128" y="288"/>
			<point x="128" y="332" type="curve" smooth="yes"/>
			<point x="128" y="376"/>
			<point x="152" y="408"/>
			<point x="174" y="422" type="curve"/>
			<point x="159" y="439" type="line"/>
			<point x="96" y="416"/>
			<point x="40" y="368"/>
			<point x="40" y="300" type="curve" smooth="yes"/>
			<point x="40" y="216"/>
			<point x="108" y="176"/>
			<point x="212" y="136" type="curve" smooth="yes"/>
			<point x="296" y="104"/>
			<point x="332" y="80"/>
			<point x="332" y="28" type="curve" smooth="yes"/>
			<point x="332" y="-24"/>
			<point x="292" y="-56"/>
			<point x="224" y="-56" type="curve" smooth="yes"/>
			<point x="192" y="-56"/>
			<point x="164" y="-52"/>
			<point x="148" y="-48" type="curve"/>
			<point x="188" y="-80" type="line"/>
			<point x="164" y="-16" type="line" smooth="yes"/>
			<point x="148" y="28"/>
			<point x="128" y="40"/>
			<point x="97" y="40" type="curve" smooth="yes"/>
			<point x="72" y="40"/>
			<point x="56" y="28"/>
			<point x="48" y="4" type="curve"/>
			<point x="64" y="-60"/>
			<point x="128" y="-104"/>
		</contour>
	</outline>
</glyph>
<glyph name="copyright" format="2">
	<unicode hex="00A9"/>
	<advance width="756"/>
	<outline>
		<contour>
			<point x="88" y="337" type="curve" smooth="yes"/>
			<point x="88" y="524"/>
			<point x="213" y="637"/>
			<point x="378" y="637" type="curve" smooth="yes"/>
			<point x="543" y="637"/>
			<point x="668" y="524"/>
			<point x="668" y="337" type="curve" smooth="yes"/>
			<point x="668" y="149"/>
			<point x="543" y="33"/>
			<point x="378" y="33" type="curve" smooth="yes"/>
			<point x="213" y="33"/>
			<point x="88" y="148"/>
		</contour>
		<contour>
			<point x="30" y="337" type="curve" smooth="yes"/>
			<point x="30" y="119"/>
			<point x="184" y="-15"/>
			<point x="378" y="-15" type="curve" smooth="yes"/>
			<point x="572" y="-15"/>
			<point x="726" y="119"/>
			<point x="726" y="337" type="curve" smooth="yes"/>
			<point x="726" y="555"/>
			<point x="572" y="685"/>
			<point x="378" y="685" type="curve" smooth="yes"/>
			<point x="184" y="685"/>
			<point x="30" y="555"/>
		</contour>
		<contour>
			<point x="401" y="183" type="curve" smooth="yes"/>
			<point x="322" y="183"/>
			<point x="269" y="238"/>
			<point x="269" y="338" type="curve" smooth="yes"/>
			<point x="269" y="439"/>
			<point x="328" y="494"/>
			<point x="401" y="494" type="curve" smooth="yes"/>
			<point x="428" y="494"/>
			<point x="462" y="487"/>
			<point x="495" y="466" type="curve"/>
			<point x="443" y="514" type="line"/>
			<point x="462" y="402" type="line"/>
			<point x="509" y="402" type="line"/>
			<point x="507" y="513" type="line"/>
			<point x="468" y="535"/>
			<point x="436" y="541"/>
			<point x="393" y="541" type="curve" smooth="yes"/>
			<point x="282" y="541"/>
			<point x="199" y="454"/>
			<point x="199" y="338" type="curve" smooth="yes"/>
			<point x="199" y="219"/>
			<point x="278" y="135"/>
			<point x="394" y="135" type="curve" smooth="yes"/>
			<point x="436" y="135"/>
			<point x="476" y="143"/>
			<point x="512" y="162" type="curve"/>
			<point x="515" y="273" type="line"/>
			<point x="467" y="273" type="line"/>
			<point x="448" y="161" type="line"/>
			<point x="500" y="209" type="line"/>
			<point x="469" y="188"/>
			<point x="424" y="183"/>
		</contour>
	</outline>
</glyph>
<glyph name="logicalnot" format="2">
	<unicode hex="00AC"/>
	<advance width="538"/>
	<outline>
		<contour>
			<point x="32" y="334" type="line"/>
			<point x="456" y="334" type="line"/>
			<point x="436" y="364" type="line"/>
			<point x="436" y="140" type="line"/>
			<point x="506" y="140" type="line"/>
			<point x="506" y="400" type="line"/>
			<point x="32" y="400" type="line"/>
		</contour>
	</outline>
</glyph>
<glyph name="registered" format="2">
	<unicode hex="00AE"/>
	<advance width="460"/>
	<outline>
		<contour>
			<point x="332" y="444" type="line"/>
			<point x="284" y="444" type="line"/>
			<point x="312" y="436" type="line"/>
			<point x="300" y="480" type="line" smooth="yes"/>
			<point x="292" y="508"/>
			<point x="280" y="512"/>
			<point x="224" y="512" type="curve"/>
			<point x="224" y="520" type="line"/>
			<point x="280" y="520"/>
			<point x="310" y="532"/>
			<point x="310" y="568" type="curve" smooth="yes"/>
			<point x="310" y="600"/>
			<point x="280" y="620"/>
			<point x="228" y="620" type="curve" smooth="yes"/>
			<point x="188" y="620" type="line"/>
			<point x="188" y="596" type="line"/>
			<point x="224" y="596" type="line" smooth="yes"/>
			<point x="252" y="596"/>
			<point x="264" y="584"/>
			<point x="264" y="564" type="curve" smooth="yes"/>
			<point x="264" y="544"/>
			<point x="252" y="528"/>
			<point x="224" y="528" type="curve" smooth="yes"/>
			<point x="188" y="528" type="line"/>
			<point x="188" y="504" type="line"/>
			<point x="224" y="504" type="line" smooth="yes"/>
			<point x="244" y="504"/>
			<point x="250" y="500"/>
			<point x="254" y="482" type="curve" smooth="yes"/>
			<point x="260" y="452" type="line" smooth="yes"/>
			<point x="266" y="424"/>
			<point x="276" y="414"/>
			<point x="308" y="414" type="curve" smooth="yes"/>
			<point x="320" y="414"/>
			<point x="326" y="415"/>
			<point x="332" y="416" type="curve"/>
		</contour>
		<contour>
			<point x="177" y="444" type="line"/>
			<point x="132" y="444" type="line"/>
			<point x="132" y="416" type="line"/>
			<point x="232" y="416" type="line"/>
			<point x="232" y="444" type="line"/>
			<point x="185" y="444" type="line"/>
		</contour>
		<contour>
			<point x="176" y="592" type="line"/>
			<point x="184" y="592" type="line"/>
			<point x="184" y="620" type="line"/>
			<point x="132" y="620" type="line"/>
			<point x="132" y="592" type="line"/>
		</contour>
		<contour>
			<point x="68" y="516" type="curve" smooth="yes"/>
			<point x="68" y="616"/>
			<point x="141" y="678"/>
			<point x="229" y="678" type="curve" smooth="yes"/>
			<point x="317" y="678"/>
			<point x="390" y="616"/>
			<point x="390" y="516" type="curve" smooth="yes"/>
			<point x="390" y="416"/>
			<point x="317" y="352"/>
			<point x="229" y="352" type="curve" smooth="yes"/>
			<point x="141" y="352"/>
			<point x="68" y="416"/>
		</contour>
		<contour>
			<point x="160" y="416" type="line"/>
			<point x="204" y="416" type="line"/>
			<point x="204" y="620" type="line"/>
			<point x="160" y="620" type="line"/>
		</contour>
		<contour>
			<point x="30" y="516" type="curve" smooth="yes"/>
			<point x="30" y="393"/>
			<point x="119" y="318"/>
			<point x="229" y="318" type="curve" smooth="yes"/>
			<point x="337" y="318"/>
			<point x="428" y="393"/>
			<point x="428" y="516" type="curve" smooth="yes"/>
			<point x="428" y="639"/>
			<point x="335" y="712"/>
			<point x="229" y="712" type="curve" smooth="yes"/>
			<point x="123" y="712"/>
			<point x="30" y="639"/>
		</contour>
	</outline>
</glyph>
<glyph name="degree" format="2">
	<unicode hex="00B0"/>
	<advance width="360"/>
	<outline>
		<contour>
			<point x="180" y="460" type="curve" smooth="yes"/>
			<point x="128" y="460"/>
			<point x="92" y="498"/>
			<point x="92" y="552" type="curve" smooth="yes"/>
			<point x="92" y="606"/>
			<point x="128" y="644"/>
			<point x="180" y="644" type="curve" smooth="yes"/>
			<point x="232" y="644"/>
			<point x="268" y="606"/>
			<point x="268" y="552" type="curve" smooth="yes"/>
			<point x="268" y="498"/>
			<point x="232" y="460"/>
		</contour>
		<contour>
			<point x="180" y="416" type="curve" smooth="yes"/>
			<point x="260" y="416"/>
			<point x="320" y="470"/>
			<point x="320" y="552" type="curve" smooth="yes"/>
			<point x="320" y="634"/>
			<point x="260" y="688"/>
			<point x="180" y="688" type="curve" smooth="yes"/>
			<point x="100" y="688"/>
			<point x="40" y="634"/>
			<point x="40" y="552" type="curve" smooth="yes"/>
			<point x="40" y="470"/>
			<point x="100" y="416"/>
		</contour>
	</outline>
</glyph>
<glyph name="plusminus" format="2">
	<unicode hex="00B1"/>
	<advance width="538"/>
	<outline>
		<contour>
			<point x="234" y="108" type="line"/>
			<point x="304" y="108" type="line"/>
			<point x="304" y="546" type="line"/>
			<point x="234" y="546" type="line"/>
		</contour>
		<contour>
			<point x="506" y="294" type="line"/>
			<point x="506" y="360" type="line"/>
			<point x="32" y="360" type="line"/>
			<point x="32" y="294" type="line"/>
		</contour>
		<contour>
			<point x="506" y="0" type="line"/>
			<point x="506" y="66" type="line"/>
			<point x="32" y="66" type="line"/>
			<point x="32" y="0" type="line"/>
		</contour>
	</outline>
</glyph>
<glyph name="two.sups" format="2">
	<unicode hex="00B2"/>
	<advance width="391"/>
	<outline>
		<contour>
			<point x="48" y="406" type="line"/>
			<point x="349" y="406" type="line"/>
			<point x="349" y="469" type="line"/>
			<point x="116" y="469" type="line"/>
			<point x="116" y="488" type="line"/>
			<point x="107" y="474" type="line"/>
			<point x="138" y="494"/>
			<point x="170" y="519"/>
			<point x="202" y="542" type="curve" smooth="yes"/>
			<point x="304" y="619"/>
			<point x="339" y="664"/>
			<point x="339" y="724" type="curve" smooth="yes"/>
			<point x="339" y="805"/>
			<point x="271" y="842"/>
			<point x="186" y="842" type="curve" smooth="yes"/>
			<point x="107" y="842"/>
			<point x="49" y="800"/>
			<point x="39" y="747" type="curve"/>
			<point x="42" y="736"/>
			<point x="51" y="716"/>
			<point x="81" y="716" type="curve" smooth="yes"/>
			<point x="112" y="716"/>
			<point x="124" y="736"/>
			<point x="134" y="770" type="curve" smooth="yes"/>
			<point x="147" y="822" type="line"/>
			<point x="110" y="805" type="line"/>
			<point x="124" y="803"/>
			<point x="140" y="805"/>
			<point x="166" y="805" type="curve" smooth="yes"/>
			<point x="226" y="805"/>
			<point x="259" y="771"/>
			<point x="259" y="718" type="curve" smooth="yes"/>
			<point x="259" y="668"/>
			<point x="229" y="618"/>
			<point x="151" y="548" type="curve" smooth="yes"/>
			<point x="117" y="518"/>
			<point x="83" y="488"/>
			<point x="48" y="460" type="curve"/>
		</contour>
	</outline>
</glyph>
<glyph name="three.sups" format="2">
	<unicode hex="00B3"/>
	<advance width="391"/>
	<outline>
		<contour>
			<point x="177" y="398" type="curve" smooth="yes"/>
			<point x="291" y="398"/>
			<point x="352" y="454"/>
			<point x="352" y="521" type="curve" smooth="yes"/>
			<point x="352" y="592"/>
			<point x="298" y="620"/>
			<point x="215" y="625" type="curve"/>
			<point x="215" y="633" type="line"/>
			<point x="286" y="638"/>
			<point x="344" y="674"/>
			<point x="344" y="742" type="curve" smooth="yes"/>
			<point x="344" y="805"/>
			<point x="275" y="842"/>
			<point x="191" y="842" type="curve" smooth="yes"/>
			<point x="114" y="842"/>
			<point x="59" y="809"/>
			<point x="48" y="757" type="curve"/>
			<point x="51" y="743"/>
			<point x="60" y="725"/>
			<point x="86" y="725" type="curve" smooth="yes"/>
			<point x="111" y="725"/>
			<point x="123" y="737"/>
			<point x="133" y="774" type="curve" smooth="yes"/>
			<point x="144" y="821" type="line"/>
			<point x="108" y="803" type="line"/>
			<point x="125" y="803"/>
			<point x="141" y="805"/>
			<point x="169" y="805" type="curve" smooth="yes"/>
			<point x="236" y="805"/>
			<point x="264" y="777"/>
			<point x="264" y="730" type="curve" smooth="yes"/>
			<point x="264" y="679"/>
			<point x="234" y="647"/>
			<point x="159" y="647" type="curve" smooth="yes"/>
			<point x="136" y="647" type="line"/>
			<point x="136" y="608" type="line"/>
			<point x="166" y="608" type="line" smooth="yes"/>
			<point x="240" y="608"/>
			<point x="275" y="576"/>
			<point x="275" y="525" type="curve" smooth="yes"/>
			<point x="275" y="471"/>
			<point x="242" y="434"/>
			<point x="176" y="434" type="curve" smooth="yes"/>
			<point x="139" y="434"/>
			<point x="117" y="436"/>
			<point x="104" y="436" type="curve"/>
			<point x="136" y="419" type="line"/>
			<point x="125" y="466" type="line" smooth="yes"/>
			<point x="116" y="504"/>
			<point x="101" y="514"/>
			<point x="77" y="514" type="curve" smooth="yes"/>
			<point x="51" y="514"/>
			<point x="40" y="497"/>
			<point x="38" y="483" type="curve"/>
			<point x="48" y="431"/>
			<point x="97" y="398"/>
		</contour>
	</outline>
</glyph>
<glyph name="paragraph" format="2">
	<unicode hex="00B6"/>
	<advance width="600"/>
	<outline>
		<contour>
			<point x="444" y="672" type="line"/>
			<point x="444" y="608" type="line"/>
			<point x="460" y="608" type="line"/>
			<point x="568" y="608" type="line"/>
			<point x="568" y="672" type="line"/>
		</contour>
		<contour>
			<point x="396" y="180" type="line"/>
			<point x="396" y="-132" type="line"/>
			<point x="476" y="-132" type="line"/>
			<point x="476" y="180" type="line"/>
			<point x="476" y="360" type="line"/>
			<point x="476" y="672" type="line"/>
			<point x="396" y="672" type="line"/>
		</contour>
		<contour>
			<point x="316" y="608" type="line"/>
			<point x="428" y="608" type="line"/>
			<point x="428" y="672" type="line"/>
			<point x="332" y="672" type="line" smooth="yes"/>
			<point x="148" y="672"/>
			<point x="24" y="576"/>
			<point x="24" y="410" type="curve" smooth="yes"/>
			<point x="24" y="244"/>
			<point x="148" y="148"/>
			<point x="316" y="148" type="curve"/>
		</contour>
	</outline>
</glyph>
<glyph name="one.sups" format="2">
	<unicode hex="00B9"/>
	<advance width="391"/>
	<outline>
		<contour>
			<point x="70" y="406" type="line"/>
			<point x="319" y="406" type="line"/>
			<point x="319" y="451" type="line"/>
			<point x="213" y="451" type="line"/>
			<point x="181" y="451" type="line"/>
			<point x="70" y="451" type="line"/>
		</contour>
		<contour>
			<point x="157" y="406" type="line"/>
			<point x="237" y="406" type="line"/>
			<point x="237" y="833" type="line"/>
			<point x="208" y="833" type="line"/>
			<point x="71" y="793" type="line"/>
			<point x="71" y="750" type="line"/>
			<point x="157" y="764" type="line"/>
		</contour>
	</outline>
</glyph>
<glyph name="Idieresis" format="2">
	<unicode hex="00CF"/>
	<advance width="380"/>
	<outline>
		<contour>
			<point x="97" y="746" type="curve" smooth="yes"/>
			<point x="129" y="746"/>
			<point x="153" y="769"/>
			<point x="153" y="800" type="curve" smooth="yes"/>
			<point x="153" y="831"/>
			<point x="129" y="854"/>
			<point x="97" y="854" type="curve" smooth="yes"/>
			<point x="67" y="854"/>
			<point x="41" y="831"/>
			<point x="41" y="800" type="curve" smooth="yes"/>
			<point x="41" y="769"/>
			<point x="67" y="746"/>
		</contour>
		<contour>
			<point x="283" y="746" type="curve" smooth="yes"/>
			<point x="313" y="746"/>
			<point x="339" y="769"/>
			<point x="339" y="800" type="curve" smooth="yes"/>
			<point x="339" y="831"/>
			<point x="313" y="854"/>
			<point x="283" y="854" type="curve" smooth="yes"/>
			<point x="251" y="854"/>
			<point x="227" y="831"/>
			<point x="227" y="800" type="curve" smooth="yes"/>
			<point x="227" y="769"/>
			<point x="251" y="746"/>
		</contour>
		<component base="I"/>
	</outline>
</glyph>
<glyph name="Eth" format="2">
	<unicode hex="00D0"/>
	<advance width="768"/>
	<outline>
		<contour>
			<point x="389" y="316" type="line"/>
			<point x="389" y="370" type="line"/>
			<point x="37" y="370" type="line"/>
			<point x="37" y="316" type="line"/>
		</contour>
		<component base="D"/>
	</outline>
</glyph>
<glyph name="multiply" format="2">
	<unicode hex="00D7"/>
	<advance width="538"/>
	<outline>
		<contour>
			<point x="440" y="111" type="line"/>
			<point x="488" y="159" type="line"/>
			<point x="98" y="549" type="line"/>
			<point x="50" y="501" type="line"/>
		</contour>
		<contour>
			<point x="487" y="502" type="line"/>
			<point x="441" y="548" type="line"/>
			<point x="51" y="158" type="line"/>
			<point x="97" y="112" type="line"/>
		</contour>
	</outline>
</glyph>
<glyph name="Oslash" format="2">
	<unicode hex="00D8"/>
	<advance width="768"/>
	<outline>
		<contour>
			<point x="712" y="652" type="line"/>
			<point x="672" y="688" type="line"/>
			<point x="56" y="20" type="line"/>
			<point x="96" y="-16" type="line"/>
		</contour>
		<contour>
			<point x="152" y="336" type="curve" smooth="yes"/>
			<point x="152" y="500"/>
			<point x="232" y="626"/>
			<point x="384" y="626" type="curve" smooth="yes"/>
			<point x="536" y="626"/>
			<point x="616" y="500"/>
			<point x="616" y="336" type="curve" smooth="yes"/>
			<point x="616" y="172"/>
			<point x="536" y="46"/>
			<point x="384" y="46" type="curve" smooth="yes"/>
			<point x="232" y="46"/>
			<point x="152" y="172"/>
		</contour>
		<contour>
			<point x="384" y="688" type="curve" smooth="yes"/>
			<point x="184" y="688"/>
			<point x="48" y="544"/>
			<point x="48" y="332" type="curve" smooth="yes"/>
			<point x="48" y="120"/>
			<point x="184" y="-16"/>
			<point x="384" y="-16" type="curve" smooth="yes"/>
			<point x="584" y="-16"/>
			<point x="720" y="128"/>
			<point x="720" y="340" type="curve" smooth="yes"/>
			<point x="720" y="552"/>
			<point x="584" y="688"/>
		</contour>
	</outline>
	<anchor name="aboveUC" x="384" y="700"/>
</glyph>
<glyph name="Thorn" format="2">
	<unicode hex="00DE"/>
	<advance width="636"/>
	<outline>
		<contour>
			<point x="196" y="156" type="line"/>
			<point x="304" y="156" type="line" smooth="yes"/>
			<point x="500" y="156"/>
			<point x="596" y="236"/>
			<point x="596" y="352" type="curve" smooth="yes"/>
			<point x="596" y="467"/>
			<point x="500" y="536"/>
			<point x="320" y="536" type="curve" smooth="yes"/>
			<point x="212" y="536" type="line"/>
			<point x="212" y="474" type="line"/>
			<point x="312" y="474" type="line" smooth="yes"/>
			<point x="436" y="474"/>
			<point x="486" y="432"/>
			<point x="486" y="348" type="curve" smooth="yes"/>
			<point x="486" y="264"/>
			<point x="436" y="216"/>
			<point x="296" y="216" type="curve" smooth="yes"/>
			<point x="196" y="216" type="line"/>
		</contour>
		<contour>
			<point x="136" y="208"/>
			<point x="136" y="104"/>
			<point x="136" y="0" type="curve"/>
			<point x="244" y="0" type="line"/>
			<point x="244" y="104"/>
			<point x="244" y="208"/>
			<point x="244" y="312" type="curve" smooth="yes"/>
			<point x="244" y="360" type="line" smooth="yes"/>
			<point x="244" y="464"/>
			<point x="244" y="568"/>
			<point x="244" y="672" type="curve"/>
			<point x="136" y="672" type="line"/>
			<point x="136" y="568"/>
			<point x="136" y="464"/>
			<point x="136" y="360" type="curve" smooth="yes"/>
			<point x="136" y="312" type="line" smooth="yes"/>
		</contour>
		<contour>
			<point x="184" y="608" type="line"/>
			<point x="228" y="608" type="line"/>
			<point x="364" y="608" type="line"/>
			<point x="364" y="672" type="line"/>
			<point x="32" y="672" type="line"/>
			<point x="32" y="608" type="line"/>
		</contour>
		<contour>
			<point x="32" y="0" type="line"/>
			<point x="364" y="0" type="line"/>
			<point x="364" y="64" type="line"/>
			<point x="212" y="64" type="line"/>
			<point x="168" y="64" type="line"/>
			<point x="32" y="64" type="line"/>
		</contour>
	</outline>
</glyph>
<glyph name="germandbls" format="2">
	<unicode hex="00DF"/>
	<advance width="668"/>
	<outline>
		<contour>
			<point x="40" y="0" type="line"/>
			<point x="204" y="0" type="line"/>
			<point x="204" y="60" type="line"/>
			<point x="140" y="60" type="line"/>
			<point x="40" y="60" type="line"/>
		</contour>
		<contour>
			<point x="124" y="147"/>
			<point x="124" y="73"/>
			<point x="124" y="0" type="curve"/>
			<point x="220" y="0" type="line"/>
			<point x="220" y="73"/>
			<point x="220" y="147"/>
			<point x="220" y="220" type="curve" smooth="yes"/>
			<point x="220" y="492" type="line" smooth="yes"/>
			<point x="220" y="561"/>
			<point x="235" y="610"/>
			<point x="262" y="643" type="curve" smooth="yes"/>
			<point x="290" y="676"/>
			<point x="329" y="692"/>
			<point x="376" y="692" type="curve" smooth="yes"/>
			<point x="448" y="692"/>
			<point x="484" y="656"/>
			<point x="484" y="608" type="curve" smooth="yes"/>
			<point x="484" y="560"/>
			<point x="452" y="520"/>
			<point x="420" y="488" type="curve" smooth="yes"/>
			<point x="388" y="456"/>
			<point x="352" y="420"/>
			<point x="352" y="364" type="curve" smooth="yes"/>
			<point x="352" y="300"/>
			<point x="392" y="268"/>
			<point x="456" y="228" type="curve" smooth="yes"/>
			<point x="520" y="188"/>
			<point x="544" y="164"/>
			<point x="544" y="120" type="curve" smooth="yes"/>
			<point x="544" y="76"/>
			<point x="516" y="40"/>
			<point x="454" y="40" type="curve" smooth="yes"/>
			<point x="416" y="40"/>
			<point x="384" y="48"/>
			<point x="352" y="64" type="curve"/>
			<point x="404" y="16" type="line"/>
			<point x="380" y="152" type="line"/>
			<point x="324" y="152" type="line"/>
			<point x="324" y="12" type="line"/>
			<point x="344" y="4"/>
			<point x="392" y="-12"/>
			<point x="456" y="-12" type="curve" smooth="yes"/>
			<point x="572" y="-12"/>
			<point x="636" y="52"/>
			<point x="636" y="130" type="curve" smooth="yes"/>
			<point x="636" y="204"/>
			<point x="588" y="244"/>
			<point x="524" y="284" type="curve" smooth="yes"/>
			<point x="460" y="324"/>
			<point x="428" y="348"/>
			<point x="428" y="388" type="curve" smooth="yes"/>
			<point x="428" y="428"/>
			<point x="456" y="460"/>
			<point x="496" y="492" type="curve" smooth="yes"/>
			<point x="536" y="524"/>
			<point x="572" y="560"/>
			<point x="572" y="624" type="curve" smooth="yes"/>
			<point x="572" y="704"/>
			<point x="496" y="752"/>
			<point x="380" y="752" type="curve" smooth="yes"/>
			<point x="320" y="752"/>
			<point x="262" y="736"/>
			<point x="217" y="701" type="curve" smooth="yes"/>
			<point x="161" y="656"/>
			<point x="124" y="581"/>
			<point x="124" y="468" type="curve" smooth="yes"/>
			<point x="124" y="220" type="line" smooth="yes"/>
		</contour>
	</outline>
</glyph>
<glyph name="ae" format="2">
	<unicode hex="00E6"/>
	<advance width="868"/>
	<outline>
		<contour>
			<point x="198" y="-16" type="curve" smooth="yes"/>
			<point x="304" y="-16"/>
			<point x="344" y="36"/>
			<point x="384" y="100" type="curve"/>
			<point x="404" y="100" type="line"/>
			<point x="404" y="156" type="line"/>
			<point x="344" y="100"/>
			<point x="304" y="56"/>
			<point x="236" y="56" type="curve" smooth="yes"/>
			<point x="176" y="56"/>
			<point x="144" y="92"/>
			<point x="144" y="140" type="curve" smooth="yes"/>
			<point x="144" y="188"/>
			<point x="168" y="214"/>
			<point x="240" y="236" type="curve" smooth="yes"/>
			<point x="292" y="252"/>
			<point x="344" y="268"/>
			<point x="396" y="284" type="curve"/>
			<point x="396" y="330" type="line"/>
			<point x="333" y="313"/>
			<point x="271" y="297"/>
			<point x="208" y="280" type="curve" smooth="yes"/>
			<point x="104" y="252"/>
			<point x="48" y="208"/>
			<point x="48" y="120" type="curve" smooth="yes"/>
			<point x="48" y="32"/>
			<point x="112" y="-16"/>
		</contour>
		<contour>
			<point x="606" y="-12" type="curve" smooth="yes"/>
			<point x="720" y="-12"/>
			<point x="776" y="36"/>
			<point x="824" y="96" type="curve"/>
			<point x="778" y="142" type="line"/>
			<point x="744" y="100"/>
			<point x="704" y="58"/>
			<point x="626" y="58" type="curve" smooth="yes"/>
			<point x="528" y="58"/>
			<point x="460" y="132"/>
			<point x="460" y="254" type="curve" smooth="yes"/>
			<point x="460" y="376"/>
			<point x="516" y="462"/>
			<point x="604" y="462" type="curve" smooth="yes"/>
			<point x="676" y="462"/>
			<point x="718" y="416"/>
			<point x="718" y="332" type="curve" smooth="yes"/>
			<point x="718" y="316"/>
			<point x="716" y="302"/>
			<point x="714" y="296" type="curve"/>
			<point x="428" y="288" type="line"/>
			<point x="428" y="244" type="line"/>
			<point x="804" y="236" type="line"/>
			<point x="808" y="252"/>
			<point x="812" y="284"/>
			<point x="812" y="312" type="curve" smooth="yes"/>
			<point x="812" y="448"/>
			<point x="740" y="520"/>
			<point x="604" y="520" type="curve" smooth="yes"/>
			<point x="516" y="520"/>
			<point x="464" y="484"/>
			<point x="432" y="412" type="curve"/>
			<point x="420" y="412" type="line"/>
			<point x="402" y="483"/>
			<point x="352" y="520"/>
			<point x="276" y="520" type="curve" smooth="yes"/>
			<point x="168" y="520"/>
			<point x="76" y="456"/>
			<point x="60" y="372" type="curve"/>
			<point x="64" y="352"/>
			<point x="80" y="328"/>
			<point x="116" y="328" type="curve" smooth="yes"/>
			<point x="152" y="328"/>
			<point x="172" y="348"/>
			<point x="176" y="396" type="curve" smooth="yes"/>
			<point x="184" y="492" type="line"/>
			<point x="156" y="444" type="line"/>
			<point x="180" y="456"/>
			<point x="208" y="464"/>
			<point x="248" y="464" type="curve" smooth="yes"/>
			<point x="324" y="464"/>
			<point x="364" y="428"/>
			<point x="364" y="340" type="curve" smooth="yes"/>
			<point x="364" y="246" type="line" smooth="yes"/>
			<point x="364" y="92"/>
			<point x="448" y="-12"/>
		</contour>
	</outline>
	<anchor name="aboveLC" x="434" y="544"/>
	<anchor name="belowLC" x="434" y="-24"/>
</glyph>
<glyph name="divide" format="2">
	<unicode hex="00F7"/>
	<advance width="538"/>
	<outline>
		<contour>
			<point x="269" y="68" type="curve" smooth="yes"/>
			<point x="306" y="68"/>
			<point x="337" y="95"/>
			<point x="337" y="134" type="curve" smooth="yes"/>
			<point x="337" y="174"/>
			<point x="306" y="200"/>
			<point x="269" y="200" type="curve" smooth="yes"/>
			<point x="232" y="200"/>
			<point x="201" y="174"/>
			<point x="201" y="134" type="curve" smooth="yes"/>
			<point x="201" y="95"/>
			<point x="232" y="68"/>
		</contour>
		<contour>
			<point x="269" y="460" type="curve" smooth="yes"/>
			<point x="306" y="460"/>
			<point x="337" y="487"/>
			<point x="337" y="526" type="curve" smooth="yes"/>
			<point x="337" y="566"/>
			<point x="306" y="592"/>
			<point x="269" y="592" type="curve" smooth="yes"/>
			<point x="232" y="592"/>
			<point x="201" y="566"/>
			<point x="201" y="526" type="curve" smooth="yes"/>
			<point x="201" y="487"/>
			<point x="232" y="460"/>
		</contour>
		<component base="minus"/>
	</outline>
</glyph>
<glyph name="oslash" format="2">
	<unicode hex="00F8"/>
	<advance width="608"/>
	<outline>
		<contour>
			<point x="544" y="488" type="line"/>
			<point x="508" y="520" type="line"/>
			<point x="64" y="20" type="line"/>
			<point x="100" y="-12" type="line"/>
		</contour>
		<component base="o"/>
	</outline>
</glyph>
<glyph name="thorn" format="2">
	<unicode hex="00FE"/>
	<advance width="551"/>
	<outline>
		<contour>
			<point x="420" y="233" type="curve" smooth="yes"/>
			<point x="420" y="104"/>
			<point x="358" y="42"/>
			<point x="286" y="42" type="curve" smooth="yes"/>
			<point x="239" y="42"/>
			<point x="185" y="69"/>
			<point x="133" y="135" type="curve"/>
			<point x="124" y="119" type="line"/>
			<point x="177" y="15"/>
			<point x="239" y="-13"/>
			<point x="300" y="-13" type="curve" smooth="yes"/>
			<point x="417" y="-13"/>
			<point x="505" y="88"/>
			<point x="505" y="242" type="curve" smooth="yes"/>
			<point x="505" y="396"/>
			<point x="421" y="487"/>
			<point x="315" y="487" type="curve" smooth="yes"/>
			<point x="247" y="487"/>
			<point x="182" y="449"/>
			<point x="124" y="361" type="curve"/>
			<point x="133" y="343" type="line"/>
			<point x="206" y="416"/>
			<point x="255" y="432"/>
			<point x="291" y="432" type="curve" smooth="yes"/>
			<point x="367" y="432"/>
			<point x="420" y="362"/>
		</contour>
		<contour>
			<point x="138" y="-185" type="line"/>
			<point x="118" y="-185" type="line"/>
			<point x="5" y="-205" type="line"/>
			<point x="5" y="-240" type="line"/>
			<point x="261" y="-240" type="line"/>
			<point x="261" y="-205" type="line"/>
		</contour>
		<contour>
			<point x="169" y="385" type="line"/>
			<point x="166" y="398" type="line"/>
			<point x="166" y="590" type="line"/>
			<point x="170" y="732" type="line"/>
			<point x="156" y="740" type="line"/>
			<point x="6" y="695" type="line"/>
			<point x="6" y="660" type="line"/>
			<point x="89" y="650" type="line"/>
			<point x="89" y="-30" type="line" smooth="yes"/>
			<point x="89" y="-100"/>
			<point x="88" y="-170"/>
			<point x="86" y="-240" type="curve"/>
			<point x="169" y="-240" type="line"/>
			<point x="167" y="-170"/>
			<point x="166" y="-100"/>
			<point x="166" y="-30" type="curve" smooth="yes"/>
			<point x="166" y="72" type="line"/>
			<point x="169" y="78" type="line"/>
		</contour>
	</outline>
	<anchor name="aboveLC" x="276" y="739"/>
	<anchor name="belowLC" x="369" y="-4"/>
</glyph>
<glyph name="aogonek" format="2">
	<unicode hex="0105"/>
	<advance width="572"/>
	<outline>
		<contour>
			<point x="190" y="-16" type="curve" smooth="yes"/>
			<point x="280" y="-16"/>
			<point x="320" y="40"/>
			<point x="340" y="84" type="curve"/>
			<point x="380" y="84" type="line"/>
			<point x="380" y="148" type="line"/>
			<point x="336" y="100"/>
			<point x="296" y="56"/>
			<point x="232" y="56" type="curve" smooth="yes"/>
			<point x="176" y="56"/>
			<point x="144" y="92"/>
			<point x="144" y="140" type="curve" smooth="yes"/>
			<point x="144" y="188"/>
			<point x="168" y="214"/>
			<point x="240" y="236" type="curve" smooth="yes"/>
			<point x="292" y="252"/>
			<point x="344" y="268"/>
			<point x="396" y="284" type="curve"/>
			<point x="396" y="330" type="line"/>
			<point x="333" y="313"/>
			<point x="271" y="297"/>
			<point x="208" y="280" type="curve" smooth="yes"/>
			<point x="104" y="252"/>
			<point x="48" y="208"/>
			<point x="48" y="120" type="curve" smooth="yes"/>
			<point x="48" y="32"/>
			<point x="112" y="-16"/>
		</contour>
		<contour>
			<point x="454" y="-225" type="curve" smooth="yes"/>
			<point x="500" y="-225"/>
			<point x="520" y="-210"/>
			<point x="538" y="-199" type="curve"/>
			<point x="525" y="-157" type="line"/>
			<point x="512" y="-161"/>
			<point x="495" y="-165"/>
			<point x="476" y="-165" type="curve" smooth="yes"/>
			<point x="440" y="-165"/>
			<point x="416" y="-141"/>
			<point x="416" y="-109" type="curve" smooth="yes"/>
			<point x="416" y="-61"/>
			<point x="444" y="-36"/>
			<point x="508" y="-8" type="curve" smooth="yes"/>
			<point x="536" y="4"/>
			<point x="550" y="13"/>
			<point x="560" y="20" type="curve"/>
			<point x="548" y="68" type="line"/>
			<point x="538" y="64"/>
			<point x="524" y="60"/>
			<point x="508" y="60" type="curve" smooth="yes"/>
			<point x="476" y="60"/>
			<point x="460" y="76"/>
			<point x="460" y="116" type="curve" smooth="yes"/>
			<point x="460" y="348" type="line" smooth="yes"/>
			<point x="460" y="476"/>
			<point x="380" y="520"/>
			<point x="276" y="520" type="curve" smooth="yes"/>
			<point x="168" y="520"/>
			<point x="76" y="456"/>
			<point x="60" y="372" type="curve"/>
			<point x="64" y="352"/>
			<point x="80" y="328"/>
			<point x="116" y="328" type="curve" smooth="yes"/>
			<point x="152" y="328"/>
			<point x="172" y="348"/>
			<point x="176" y="396" type="curve" smooth="yes"/>
			<point x="184" y="492" type="line"/>
			<point x="156" y="444" type="line"/>
			<point x="180" y="456"/>
			<point x="208" y="464"/>
			<point x="248" y="464" type="curve" smooth="yes"/>
			<point x="324" y="464"/>
			<point x="364" y="428"/>
			<point x="364" y="340" type="curve" smooth="yes"/>
			<point x="364" y="108" type="line"/>
			<point x="368" y="108" type="line"/>
			<point x="372" y="40"/>
			<point x="404" y="16"/>
			<point x="444" y="0" type="curve"/>
			<point x="444" y="-10"/>
			<point x="444" y="-20"/>
			<point x="444" y="-30" type="curve"/>
			<point x="450" y="-17" type="line"/>
			<point x="381" y="-40"/>
			<point x="348" y="-78"/>
			<point x="348" y="-129" type="curve" smooth="yes"/>
			<point x="348" y="-189"/>
			<point x="390" y="-225"/>
		</contour>
	</outline>
	<anchor name="aboveLC" x="276" y="528"/>
</glyph>
<glyph name="Dcroat" format="2">
	<unicode hex="0110"/>
	<advance width="710"/>
	<outline>
		<contour>
			<point x="389" y="316" type="line"/>
			<point x="389" y="370" type="line"/>
			<point x="37" y="370" type="line"/>
			<point x="37" y="316" type="line"/>
		</contour>
		<component base="D"/>
	</outline>
</glyph>
<glyph name="dcroat" format="2">
	<unicode hex="0111"/>
	<advance width="660"/>
	<outline>
		<contour>
			<point x="628" y="556" type="line"/>
			<point x="628" y="608" type="line"/>
			<point x="284" y="608" type="line"/>
			<point x="284" y="556" type="line"/>
		</contour>
		<component base="d"/>
	</outline>
</glyph>
<glyph name="eogonek" format="2">
	<unicode hex="0119"/>
	<advance width="556"/>
	<outline>
		<contour>
			<point x="378" y="-225" type="curve" smooth="yes"/>
			<point x="428" y="-225"/>
			<point x="456" y="-205"/>
			<point x="472" y="-189" type="curve"/>
			<point x="450" y="-151" type="line"/>
			<point x="436" y="-159"/>
			<point x="422" y="-165"/>
			<point x="400" y="-165" type="curve" smooth="yes"/>
			<point x="364" y="-165"/>
			<point x="340" y="-141"/>
			<point x="340" y="-107" type="curve" smooth="yes"/>
			<point x="340" y="-65"/>
			<point x="356" y="-36"/>
			<point x="416" y="8" type="curve" smooth="yes"/>
			<point x="460" y="40"/>
			<point x="492" y="68"/>
			<point x="512" y="96" type="curve"/>
			<point x="466" y="142" type="line"/>
			<point x="432" y="100"/>
			<point x="392" y="60"/>
			<point x="314" y="60" type="curve" smooth="yes"/>
			<point x="216" y="60"/>
			<point x="148" y="132"/>
			<point x="148" y="254" type="curve" smooth="yes"/>
			<point x="148" y="376"/>
			<point x="204" y="462"/>
			<point x="292" y="462" type="curve" smooth="yes"/>
			<point x="364" y="462"/>
			<point x="404" y="416"/>
			<point x="404" y="332" type="curve" smooth="yes"/>
			<point x="404" y="316"/>
			<point x="402" y="302"/>
			<point x="400" y="296" type="curve"/>
			<point x="116" y="288" type="line"/>
			<point x="116" y="244" type="line"/>
			<point x="492" y="236" type="line"/>
			<point x="496" y="252"/>
			<point x="500" y="284"/>
			<point x="500" y="312" type="curve" smooth="yes"/>
			<point x="500" y="448"/>
			<point x="428" y="520"/>
			<point x="292" y="520" type="curve" smooth="yes"/>
			<point x="148" y="520"/>
			<point x="48" y="400"/>
			<point x="48" y="246" type="curve" smooth="yes"/>
			<point x="48" y="94"/>
			<point x="136" y="-8"/>
			<point x="292" y="-8" type="curve" smooth="yes"/>
			<point x="312" y="-8"/>
			<point x="330" y="-6"/>
			<point x="340" y="-4" type="curve"/>
			<point x="344" y="-20" type="line"/>
			<point x="308" y="-40"/>
			<point x="272" y="-77"/>
			<point x="272" y="-129" type="curve" smooth="yes"/>
			<point x="272" y="-189"/>
			<point x="316" y="-225"/>
		</contour>
	</outline>
	<anchor name="aboveLC" x="292" y="528"/>
	<anchor name="belowLC" x="304" y="-20"/>
</glyph>
<glyph name="Hbar" format="2">
	<unicode hex="0126"/>
	<advance width="840"/>
	<outline>
		<contour>
			<point x="32" y="468" type="line"/>
			<point x="808" y="468" type="line"/>
			<point x="808" y="524" type="line"/>
			<point x="32" y="524" type="line"/>
		</contour>
		<component base="H"/>
	</outline>
</glyph>
<glyph name="hbar" format="2">
	<unicode hex="0127"/>
	<advance width="680"/>
	<outline>
		<contour>
			<point x="132" y="0" type="line"/>
			<point x="228" y="0" type="line"/>
			<point x="228" y="220" type="line"/>
			<point x="228" y="392" type="line"/>
			<point x="228" y="394" type="line"/>
			<point x="228" y="628" type="line"/>
			<point x="228" y="740" type="line"/>
			<point x="188" y="740" type="line"/>
			<point x="40" y="716" type="line"/>
			<point x="40" y="668" type="line"/>
			<point x="132" y="648" type="line"/>
			<point x="132" y="220" type="line"/>
		</contour>
		<contour>
			<point x="48" y="0" type="line"/>
			<point x="312" y="0" type="line"/>
			<point x="312" y="60" type="line"/>
			<point x="196" y="60" type="line"/>
			<point x="164" y="60" type="line"/>
			<point x="48" y="60" type="line"/>
		</contour>
		<contour>
			<point x="396" y="0" type="line"/>
			<point x="656" y="0" type="line"/>
			<point x="656" y="60" type="line"/>
			<point x="540" y="60" type="line"/>
			<point x="508" y="60" type="line"/>
			<point x="396" y="60" type="line"/>
		</contour>
		<contour>
			<point x="32" y="556" type="line"/>
			<point x="376" y="556" type="line"/>
			<point x="376" y="608" type="line"/>
			<point x="32" y="608" type="line"/>
		</contour>
		<contour>
			<point x="476" y="0" type="line"/>
			<point x="572" y="0" type="line"/>
			<point x="572" y="220" type="line"/>
			<point x="572" y="352" type="line" smooth="yes"/>
			<point x="572" y="460"/>
			<point x="520" y="520"/>
			<point x="416" y="520" type="curve" smooth="yes"/>
			<point x="336" y="520"/>
			<point x="288" y="472"/>
			<point x="262" y="416" type="curve"/>
			<point x="212" y="416" type="line"/>
			<point x="212" y="368" type="line"/>
			<point x="268" y="408"/>
			<point x="328" y="436"/>
			<point x="384" y="436" type="curve" smooth="yes"/>
			<point x="448" y="436"/>
			<point x="476" y="404"/>
			<point x="476" y="328" type="curve" smooth="yes"/>
			<point x="476" y="220" type="line"/>
		</contour>
	</outline>
</glyph>
<glyph name="dotlessi" format="2">
	<unicode hex="0131"/>
	<advance width="360"/>
	<outline>
		<contour>
			<point x="48" y="0" type="line"/>
			<point x="312" y="0" type="line"/>
			<point x="312" y="60" type="line"/>
			<point x="196" y="60" type="line"/>
			<point x="164" y="60" type="line"/>
			<point x="48" y="60" type="line"/>
		</contour>
		<contour>
			<point x="132" y="0" type="line"/>
			<point x="228" y="0" type="line"/>
			<point x="228" y="220" type="line"/>
			<point x="228" y="408" type="line"/>
			<point x="228" y="508" type="line"/>
			<point x="188" y="508" type="line"/>
			<point x="44" y="468" type="line"/>
			<point x="44" y="416" type="line"/>
			<point x="132" y="416" type="line"/>
			<point x="132" y="276" type="line"/>
			<point x="132" y="220" type="line"/>
		</contour>
	</outline>
	<anchor name="aboveLC" x="147" y="506"/>
	<anchor name="belowLC" x="148" y="-22"/>
	<anchor name="ogonek" x="187" y="0"/>
</glyph>
<glyph name="kgreenlandic" format="2">
	<unicode hex="0138"/>
	<advance width="648"/>
	<outline>
		<contour>
			<point x="132" y="0" type="line"/>
			<point x="228" y="0" type="line"/>
			<point x="228" y="220" type="line"/>
			<point x="228" y="408" type="line"/>
			<point x="228" y="508" type="line"/>
			<point x="188" y="508" type="line"/>
			<point x="44" y="468" type="line"/>
			<point x="44" y="416" type="line"/>
			<point x="132" y="416" type="line"/>
			<point x="132" y="276" type="line"/>
			<point x="132" y="220" type="line"/>
		</contour>
		<contour>
			<point x="468" y="0" type="line"/>
			<point x="628" y="0" type="line"/>
			<point x="628" y="56" type="line"/>
			<point x="525" y="66" type="line"/>
			<point x="553" y="54" type="line"/>
			<point x="364" y="344" type="line"/>
			<point x="304" y="280" type="line"/>
		</contour>
		<contour>
			<point x="48" y="0" type="line"/>
			<point x="312" y="0" type="line"/>
			<point x="312" y="60" type="line"/>
			<point x="196" y="60" type="line"/>
			<point x="164" y="60" type="line"/>
			<point x="48" y="60" type="line"/>
		</contour>
		<contour>
			<point x="352" y="452" type="line"/>
			<point x="476" y="444" type="line"/>
			<point x="492" y="444" type="line"/>
			<point x="624" y="452" type="line"/>
			<point x="624" y="508" type="line"/>
			<point x="352" y="508" type="line"/>
		</contour>
		<contour>
			<point x="208" y="148" type="line"/>
			<point x="596" y="508" type="line"/>
			<point x="508" y="508" type="line"/>
			<point x="244" y="240" type="line"/>
			<point x="208" y="240" type="line"/>
		</contour>
	</outline>
</glyph>
<glyph name="Lslash" format="2">
	<unicode hex="0141"/>
	<advance width="640"/>
	<outline>
		<contour>
			<point x="438" y="484" type="line"/>
			<point x="185" y="339" type="line"/>
			<point x="185" y="277" type="line"/>
			<point x="438" y="422" type="line"/>
		</contour>
		<contour>
			<point x="185" y="344" type="line"/>
			<point x="45" y="264" type="line"/>
			<point x="45" y="203" type="line"/>
			<point x="185" y="282" type="line"/>
		</contour>
		<component base="L"/>
	</outline>
</glyph>
<glyph name="lslash" format="2">
	<unicode hex="0142"/>
	<advance width="360"/>
	<outline>
		<contour>
			<point x="180" y="414" type="line"/>
			<point x="58" y="351" type="line"/>
			<point x="58" y="303" type="line"/>
			<point x="180" y="366" type="line"/>
		</contour>
		<contour>
			<point x="304" y="474" type="line"/>
			<point x="180" y="409" type="line"/>
			<point x="180" y="361" type="line"/>
			<point x="304" y="425" type="line"/>
		</contour>
		<component base="l"/>
	</outline>
</glyph>
<glyph name="Eng" format="2">
	<unicode hex="014A"/>
	<advance width="800"/>
	<outline>
		<contour>
			<point x="36" y="0" type="line"/>
			<point x="316" y="0" type="line"/>
			<point x="316" y="64" type="line"/>
			<point x="192" y="64" type="line"/>
			<point x="156" y="64" type="line"/>
			<point x="36" y="64" type="line"/>
		</contour>
		<contour>
			<point x="140" y="0" type="line"/>
			<point x="208" y="0" type="line"/>
			<point x="208" y="295" type="line"/>
			<point x="180" y="648" type="line"/>
			<point x="140" y="648" type="line"/>
		</contour>
		<contour>
			<point x="474" y="-132" type="curve" smooth="yes"/>
			<point x="538" y="-132"/>
			<point x="582" y="-108"/>
			<point x="612" y="-72" type="curve" smooth="yes"/>
			<point x="652" y="-24"/>
			<point x="672" y="32"/>
			<point x="672" y="157" type="curve" smooth="yes"/>
			<point x="672" y="670" type="line"/>
			<point x="604" y="670" type="line"/>
			<point x="604" y="385" type="line"/>
			<point x="624" y="116" type="line"/>
			<point x="626" y="-11"/>
			<point x="584" y="-48"/>
			<point x="542" y="-85" type="curve"/>
			<point x="558" y="-80" type="line"/>
			<point x="518" y="-80" type="line"/>
			<point x="543" y="-88" type="line"/>
			<point x="520" y="-65" type="line" smooth="yes"/>
			<point x="496" y="-41"/>
			<point x="479" y="-32"/>
			<point x="447" y="-32" type="curve" smooth="yes"/>
			<point x="408" y="-32"/>
			<point x="386" y="-49"/>
			<point x="382" y="-84" type="curve"/>
			<point x="389" y="-117"/>
			<point x="419" y="-132"/>
		</contour>
		<contour>
			<point x="608" y="-8" type="line"/>
			<point x="645" y="-9" type="line"/>
			<point x="650" y="140" type="line"/>
			<point x="611" y="140" type="line"/>
			<point x="234" y="670" type="line"/>
			<point x="36" y="670" type="line"/>
			<point x="36" y="606" type="line"/>
			<point x="163" y="606" type="line"/>
			<point x="163" y="563" type="line"/>
			<point x="198" y="563" type="line"/>
		</contour>
		<contour>
			<point x="620" y="606" type="line"/>
			<point x="656" y="606" type="line"/>
			<point x="772" y="606" type="line"/>
			<point x="772" y="670" type="line"/>
			<point x="496" y="670" type="line"/>
			<point x="496" y="606" type="line"/>
		</contour>
	</outline>
</glyph>
<glyph name="eng" format="2">
	<unicode hex="014B"/>
	<advance width="680"/>
	<outline>
		<contour>
			<point x="44" y="0" type="line"/>
			<point x="304" y="0" type="line"/>
			<point x="304" y="60" type="line"/>
			<point x="192" y="60" type="line"/>
			<point x="160" y="60" type="line"/>
			<point x="44" y="60" type="line"/>
		</contour>
		<contour>
			<point x="128" y="0" type="curve"/>
			<point x="224" y="0" type="line"/>
			<point x="224" y="73"/>
			<point x="224" y="155"/>
			<point x="224" y="220" type="curve" smooth="yes"/>
			<point x="224" y="408" type="line"/>
			<point x="216" y="408" type="line"/>
			<point x="200" y="508" type="line"/>
			<point x="160" y="508" type="line"/>
			<point x="40" y="468" type="line"/>
			<point x="40" y="416" type="line"/>
			<point x="128" y="416" type="line"/>
			<point x="128" y="369"/>
			<point x="128" y="323"/>
			<point x="128" y="276" type="curve" smooth="yes"/>
			<point x="128" y="220" type="line" smooth="yes"/>
			<point x="128" y="147"/>
			<point x="128" y="73"/>
		</contour>
		<contour>
			<point x="352" y="-224" type="curve" smooth="yes"/>
			<point x="440" y="-224"/>
			<point x="488" y="-188"/>
			<point x="520" y="-132" type="curve" smooth="yes"/>
			<point x="552" y="-76"/>
			<point x="568" y="-12"/>
			<point x="568" y="108" type="curve" smooth="yes"/>
			<point x="568" y="352" type="line" smooth="yes"/>
			<point x="568" y="460"/>
			<point x="516" y="520"/>
			<point x="412" y="520" type="curve" smooth="yes"/>
			<point x="332" y="520"/>
			<point x="280" y="472"/>
			<point x="248" y="416" type="curve"/>
			<point x="208" y="416" type="line"/>
			<point x="208" y="368" type="line"/>
			<point x="264" y="408"/>
			<point x="324" y="436"/>
			<point x="380" y="436" type="curve" smooth="yes"/>
			<point x="444" y="436"/>
			<point x="472" y="404"/>
			<point x="472" y="328" type="curve" smooth="yes"/>
			<point x="472" y="108" type="line" smooth="yes"/>
			<point x="472" y="-4"/>
			<point x="466" y="-68"/>
			<point x="460" y="-108" type="curve" smooth="yes"/>
			<point x="454" y="-148"/>
			<point x="450" y="-164"/>
			<point x="444" y="-180" type="curve"/>
			<point x="392" y="-180" type="line"/>
			<point x="428" y="-200" type="line"/>
			<point x="396" y="-160" type="line" smooth="yes"/>
			<point x="380" y="-140"/>
			<point x="356" y="-120"/>
			<point x="316" y="-120" type="curve" smooth="yes"/>
			<point x="272" y="-120"/>
			<point x="252" y="-144"/>
			<point x="244" y="-172" type="curve"/>
			<point x="252" y="-192"/>
			<point x="284" y="-224"/>
		</contour>
	</outline>
</glyph>
<glyph name="OE" format="2">
	<unicode hex="0152"/>
	<advance width="1004"/>
	<outline>
		<contour>
			<point x="528" y="84" type="line"/>
			<point x="496" y="64"/>
			<point x="456" y="48"/>
			<point x="388" y="48" type="curve" smooth="yes"/>
			<point x="240" y="48"/>
			<point x="160" y="172"/>
			<point x="160" y="336" type="curve" smooth="yes"/>
			<point x="160" y="500"/>
			<point x="240" y="624"/>
			<point x="388" y="624" type="curve" smooth="yes"/>
			<point x="456" y="624"/>
			<point x="496" y="608"/>
			<point x="528" y="588" type="curve"/>
			<point x="528" y="664" type="line"/>
			<point x="496" y="676"/>
			<point x="464" y="688"/>
			<point x="384" y="688" type="curve" smooth="yes"/>
			<point x="188" y="688"/>
			<point x="48" y="544"/>
			<point x="48" y="332" type="curve" smooth="yes"/>
			<point x="48" y="120"/>
			<point x="188" y="-16"/>
			<point x="384" y="-16" type="curve" smooth="yes"/>
			<point x="464" y="-16"/>
			<point x="496" y="-4"/>
			<point x="528" y="8" type="curve"/>
		</contour>
		<contour>
			<point x="496" y="0" type="line"/>
			<point x="604" y="0" type="line"/>
			<point x="604" y="312" type="line"/>
			<point x="604" y="360" type="line"/>
			<point x="604" y="672" type="line"/>
			<point x="496" y="672" type="line"/>
			<point x="496" y="360" type="line"/>
			<point x="496" y="312" type="line"/>
		</contour>
		<contour>
			<point x="544" y="0" type="line"/>
			<point x="948" y="0" type="line"/>
			<point x="956" y="192" type="line"/>
			<point x="892" y="192" type="line"/>
			<point x="852" y="24" type="line"/>
			<point x="900" y="64" type="line"/>
			<point x="544" y="64" type="line"/>
		</contour>
		<contour>
			<point x="552" y="312" type="line"/>
			<point x="780" y="312" type="line"/>
			<point x="780" y="372" type="line"/>
			<point x="552" y="372" type="line"/>
		</contour>
		<contour>
			<point x="752" y="224" type="line"/>
			<point x="812" y="224" type="line"/>
			<point x="812" y="460" type="line"/>
			<point x="752" y="460" type="line"/>
			<point x="728" y="356" type="line"/>
			<point x="728" y="328" type="line"/>
		</contour>
		<contour>
			<point x="872" y="488" type="line"/>
			<point x="936" y="488" type="line"/>
			<point x="928" y="672" type="line"/>
			<point x="544" y="672" type="line"/>
			<point x="544" y="608" type="line"/>
			<point x="880" y="608" type="line"/>
			<point x="832" y="648" type="line"/>
		</contour>
	</outline>
</glyph>
<glyph name="oe" format="2">
	<unicode hex="0153"/>
	<advance width="960"/>
	<outline>
		<contour>
			<point x="524" y="336" type="line"/>
			<point x="500" y="456"/>
			<point x="416" y="520"/>
			<point x="304" y="520" type="curve" smooth="yes"/>
			<point x="168" y="520"/>
			<point x="48" y="420"/>
			<point x="48" y="252" type="curve" smooth="yes"/>
			<point x="48" y="84"/>
			<point x="168" y="-12"/>
			<point x="304" y="-12" type="curve" smooth="yes"/>
			<point x="424" y="-12"/>
			<point x="500" y="52"/>
			<point x="524" y="172" type="curve"/>
			<point x="488" y="172" type="line"/>
			<point x="512" y="52"/>
			<point x="588" y="-12"/>
			<point x="698" y="-12" type="curve" smooth="yes"/>
			<point x="812" y="-12"/>
			<point x="868" y="36"/>
			<point x="916" y="96" type="curve"/>
			<point x="870" y="142" type="line"/>
			<point x="836" y="100"/>
			<point x="796" y="58"/>
			<point x="718" y="58" type="curve" smooth="yes"/>
			<point x="620" y="58"/>
			<point x="552" y="132"/>
			<point x="552" y="254" type="curve" smooth="yes"/>
			<point x="552" y="376"/>
			<point x="608" y="462"/>
			<point x="696" y="462" type="curve" smooth="yes"/>
			<point x="768" y="462"/>
			<point x="810" y="416"/>
			<point x="810" y="332" type="curve" smooth="yes"/>
			<point x="810" y="316"/>
			<point x="808" y="302"/>
			<point x="806" y="296" type="curve"/>
			<point x="520" y="288" type="line"/>
			<point x="520" y="244" type="line"/>
			<point x="896" y="236" type="line"/>
			<point x="900" y="252"/>
			<point x="904" y="284"/>
			<point x="904" y="312" type="curve" smooth="yes"/>
			<point x="904" y="448"/>
			<point x="832" y="520"/>
			<point x="696" y="520" type="curve" smooth="yes"/>
			<point x="592" y="520"/>
			<point x="512" y="456"/>
			<point x="488" y="336" type="curve"/>
		</contour>
		<contour>
			<point x="304" y="48" type="curve" smooth="yes"/>
			<point x="208" y="48"/>
			<point x="152" y="116"/>
			<point x="152" y="256" type="curve" smooth="yes"/>
			<point x="152" y="392"/>
			<point x="208" y="460"/>
			<point x="304" y="460" type="curve" smooth="yes"/>
			<point x="400" y="460"/>
			<point x="456" y="392"/>
			<point x="456" y="252" type="curve" smooth="yes"/>
			<point x="456" y="116"/>
			<point x="400" y="48"/>
		</contour>
	</outline>
	<anchor name="aboveLC" x="456" y="506"/>
</glyph>
<glyph name="Tbar" format="2">
	<unicode hex="0166"/>
	<advance width="660"/>
	<outline>
		<contour>
			<point x="110" y="307" type="line"/>
			<point x="550" y="307" type="line"/>
			<point x="550" y="353" type="line"/>
			<point x="110" y="353" type="line"/>
		</contour>
		<component base="T"/>
	</outline>
</glyph>
<glyph name="tbar" format="2">
	<unicode hex="0167"/>
	<advance width="392"/>
	<outline>
		<contour>
			<point x="27" y="251" type="line"/>
			<point x="361" y="251" type="line"/>
			<point x="361" y="296" type="line"/>
			<point x="27" y="296" type="line"/>
		</contour>
		<component base="t"/>
	</outline>
</glyph>
<glyph name="Uogonek" format="2">
	<unicode hex="0172"/>
	<advance width="788"/>
	<outline>
		<contour>
			<point x="504" y="-224" type="curve" smooth="yes"/>
			<point x="554" y="-224"/>
			<point x="582" y="-204"/>
			<point x="598" y="-188" type="curve"/>
			<point x="576" y="-150" type="line"/>
			<point x="562" y="-158"/>
			<point x="548" y="-164"/>
			<point x="526" y="-164" type="curve" smooth="yes"/>
			<point x="490" y="-164"/>
			<point x="466" y="-140"/>
			<point x="466" y="-108" type="curve" smooth="yes"/>
			<point x="466" y="-68"/>
			<point x="480" y="-36"/>
			<point x="536" y="4" type="curve" smooth="yes"/>
			<point x="608" y="56"/>
			<point x="664" y="124"/>
			<point x="664" y="260" type="curve" smooth="yes"/>
			<point x="664" y="672" type="line"/>
			<point x="596" y="672" type="line"/>
			<point x="596" y="264" type="line" smooth="yes"/>
			<point x="596" y="116"/>
			<point x="528" y="48"/>
			<point x="416" y="48" type="curve" smooth="yes"/>
			<point x="304" y="48"/>
			<point x="236" y="116"/>
			<point x="236" y="264" type="curve" smooth="yes"/>
			<point x="236" y="360" type="line" smooth="yes"/>
			<point x="236" y="464"/>
			<point x="236" y="568"/>
			<point x="236" y="672" type="curve"/>
			<point x="128" y="672" type="line"/>
			<point x="128" y="568"/>
			<point x="128" y="464"/>
			<point x="128" y="360" type="curve" smooth="yes"/>
			<point x="128" y="248" type="line" smooth="yes"/>
			<point x="128" y="76"/>
			<point x="232" y="-12"/>
			<point x="388" y="-12" type="curve" smooth="yes"/>
			<point x="428" y="-12"/>
			<point x="458" y="-4"/>
			<point x="474" y="4" type="curve"/>
			<point x="480" y="-8" type="line"/>
			<point x="432" y="-36"/>
			<point x="398" y="-72"/>
			<point x="398" y="-128" type="curve" smooth="yes"/>
			<point x="398" y="-188"/>
			<point x="442" y="-224"/>
		</contour>
		<contour>
			<point x="24" y="608" type="line"/>
			<point x="144" y="608" type="line"/>
			<point x="220" y="608" type="line"/>
			<point x="348" y="608" type="line"/>
			<point x="348" y="672" type="line"/>
			<point x="24" y="672" type="line"/>
		</contour>
		<contour>
			<point x="484" y="608" type="line"/>
			<point x="612" y="608" type="line"/>
			<point x="648" y="608" type="line"/>
			<point x="764" y="608" type="line"/>
			<point x="764" y="672" type="line"/>
			<point x="484" y="672" type="line"/>
		</contour>
	</outline>
	<anchor name="aboveUC" x="394" y="700"/>
	<anchor name="belowLC" x="394" y="-24"/>
	<anchor name="hornLC" x="583" y="728"/>
</glyph>
<glyph name="uogonek" format="2">
	<unicode hex="0173"/>
	<advance width="672"/>
	<outline>
		<contour>
			<point x="364" y="-128" type="curve" smooth="yes"/>
			<point x="364" y="-188"/>
			<point x="408" y="-224"/>
			<point x="470" y="-224" type="curve" smooth="yes"/>
			<point x="520" y="-224"/>
			<point x="548" y="-204"/>
			<point x="564" y="-188" type="curve"/>
			<point x="542" y="-150" type="line"/>
			<point x="528" y="-158"/>
			<point x="514" y="-164"/>
			<point x="492" y="-164" type="curve" smooth="yes"/>
			<point x="456" y="-164"/>
			<point x="432" y="-140"/>
			<point x="432" y="-108" type="curve" smooth="yes"/>
			<point x="432" y="-68"/>
			<point x="456" y="-36"/>
			<point x="500" y="12" type="curve"/>
			<point x="468" y="12" type="line"/>
			<point x="416" y="-20"/>
			<point x="364" y="-60"/>
		</contour>
		<component base="u"/>
	</outline>
	<anchor name="aboveLC" x="291" y="544"/>
	<anchor name="belowLC" x="291" y="-23"/>
	<anchor name="hornLC" x="449" y="505"/>
</glyph>
<glyph name="longs" format="2">
	<unicode hex="017F"/>
	<advance width="376"/>
	<outline>
		<contour>
			<point x="48" y="0" type="line"/>
			<point x="328" y="0" type="line"/>
			<point x="328" y="60" type="line"/>
			<point x="212" y="60" type="line"/>
			<point x="148" y="60" type="line"/>
			<point x="48" y="60" type="line"/>
		</contour>
		<contour>
			<point x="132" y="0" type="line"/>
			<point x="228" y="0" type="line"/>
			<point x="228" y="220" type="line"/>
			<point x="228" y="480" type="line" smooth="yes"/>
			<point x="228" y="588"/>
			<point x="244" y="648"/>
			<point x="280" y="700" type="curve"/>
			<point x="324" y="700" type="line"/>
			<point x="372" y="684" type="line"/>
			<point x="372" y="712" type="line"/>
			<point x="292" y="712" type="line"/>
			<point x="324" y="688" type="line" smooth="yes"/>
			<point x="356" y="664"/>
			<point x="380" y="644"/>
			<point x="420" y="644" type="curve" smooth="yes"/>
			<point x="460" y="644"/>
			<point x="476" y="676"/>
			<point x="480" y="700" type="curve"/>
			<point x="464" y="728"/>
			<point x="424" y="748"/>
			<point x="368" y="748" type="curve" smooth="yes"/>
			<point x="312" y="748"/>
			<point x="264" y="728"/>
			<point x="228" y="696" type="curve" smooth="yes"/>
			<point x="192" y="664"/>
			<point x="132" y="604"/>
			<point x="132" y="472" type="curve" smooth="yes"/>
			<point x="132" y="220" type="line"/>
		</contour>
	</outline>
</glyph>
<glyph name="Schwa" format="2">
	<unicode hex="018F"/>
	<advance width="680"/>
	<outline>
		<contour>
			<point x="48" y="280" type="curve" smooth="yes"/>
			<point x="48" y="96"/>
			<point x="160" y="-16"/>
			<point x="332" y="-16" type="curve" smooth="yes"/>
			<point x="504" y="-16"/>
			<point x="632" y="120"/>
			<point x="632" y="348" type="curve"/>
			<point x="632" y="568"/>
			<point x="512" y="688"/>
			<point x="320" y="688" type="curve"/>
			<point x="204" y="688"/>
			<point x="132" y="640"/>
			<point x="80" y="572" type="curve"/>
			<point x="120" y="532" type="line"/>
			<point x="164" y="584"/>
			<point x="220" y="612"/>
			<point x="300" y="612" type="curve" smooth="yes"/>
			<point x="440" y="612"/>
			<point x="520" y="520"/>
			<point x="520" y="332" type="curve" smooth="yes"/>
			<point x="520" y="144"/>
			<point x="456" y="48"/>
			<point x="332" y="48" type="curve" smooth="yes"/>
			<point x="208" y="48"/>
			<point x="152" y="136"/>
			<point x="152" y="260" type="curve" smooth="yes"/>
			<point x="152" y="280"/>
			<point x="154" y="300"/>
			<point x="156" y="316" type="curve"/>
			<point x="552" y="316" type="line"/>
			<point x="552" y="372" type="line"/>
			<point x="56" y="372" type="line"/>
			<point x="52" y="356"/>
			<point x="48" y="320"/>
		</contour>
	</outline>
	<anchor name="aboveUC" x="340" y="700"/>
	<anchor name="belowLC" x="340" y="-24"/>
</glyph>
<glyph name="florin" format="2">
	<unicode hex="0192"/>
	<advance width="537"/>
	<outline>
		<contour>
			<point x="122" y="345" type="line"/>
			<point x="444" y="345" type="line"/>
			<point x="444" y="395" type="line"/>
			<point x="122" y="395" type="line"/>
		</contour>
		<contour>
			<point x="314" y="349" type="line" smooth="yes"/>
			<point x="324" y="470"/>
			<point x="325" y="530"/>
			<point x="353" y="577" type="curve" smooth="yes"/>
			<point x="366" y="598"/>
			<point x="385" y="616"/>
			<point x="416" y="628" type="curve"/>
			<point x="383" y="628" type="line"/>
			<point x="416" y="595" type="line" smooth="yes"/>
			<point x="440" y="571"/>
			<point x="462" y="563"/>
			<point x="485" y="563" type="curve" smooth="yes"/>
			<point x="518" y="563"/>
			<point x="537" y="581"/>
			<point x="542" y="607" type="curve"/>
			<point x="532" y="637"/>
			<point x="494" y="660"/>
			<point x="440" y="660" type="curve" smooth="yes"/>
			<point x="398" y="660"/>
			<point x="351" y="643"/>
			<point x="318" y="610" type="curve" smooth="yes"/>
			<point x="265" y="557"/>
			<point x="247" y="483"/>
			<point x="236" y="354" type="curve" smooth="yes"/>
			<point x="224" y="217" type="line" smooth="yes"/>
			<point x="213" y="96"/>
			<point x="213" y="30"/>
			<point x="185" y="-17" type="curve" smooth="yes"/>
			<point x="172" y="-38"/>
			<point x="153" y="-56"/>
			<point x="122" y="-68" type="curve"/>
			<point x="156" y="-68" type="line"/>
			<point x="122" y="-35" type="line" smooth="yes"/>
			<point x="98" y="-11"/>
			<point x="76" y="-3"/>
			<point x="52" y="-3" type="curve" smooth="yes"/>
			<point x="19" y="-3"/>
			<point x="0" y="-21"/>
			<point x="-5" y="-47" type="curve"/>
			<point x="5" y="-77"/>
			<point x="44" y="-100"/>
			<point x="98" y="-100" type="curve" smooth="yes"/>
			<point x="140" y="-100"/>
			<point x="184" y="-85"/>
			<point x="221" y="-48" type="curve" smooth="yes"/>
			<point x="274" y="5"/>
			<point x="290" y="86"/>
			<point x="304" y="233" type="curve" smooth="yes"/>
		</contour>
	</outline>
</glyph>
<glyph name="Uhorn" format="2">
	<unicode hex="01AF"/>
	<advance width="788"/>
	<outline>
		<contour>
			<point x="400" y="-16" type="curve" smooth="yes"/>
			<point x="568" y="-16"/>
			<point x="664" y="84"/>
			<point x="664" y="260" type="curve" smooth="yes"/>
			<point x="664" y="672" type="line"/>
			<point x="596" y="672" type="line"/>
			<point x="596" y="264" type="line" smooth="yes"/>
			<point x="596" y="116"/>
			<point x="528" y="48"/>
			<point x="416" y="48" type="curve" smooth="yes"/>
			<point x="304" y="48"/>
			<point x="236" y="116"/>
			<point x="236" y="264" type="curve" smooth="yes"/>
			<point x="236" y="360" type="line" smooth="yes"/>
			<point x="236" y="464"/>
			<point x="236" y="568"/>
			<point x="236" y="672" type="curve"/>
			<point x="128" y="672" type="line"/>
			<point x="128" y="568"/>
			<point x="128" y="464"/>
			<point x="128" y="360" type="curve" smooth="yes"/>
			<point x="128" y="248" type="line" smooth="yes"/>
			<point x="128" y="76"/>
			<point x="232" y="-16"/>
		</contour>
		<contour>
			<point x="648" y="608" type="line"/>
			<point x="732" y="624"/>
			<point x="764" y="672"/>
			<point x="764" y="752" type="curve" smooth="yes"/>
			<point x="764" y="784"/>
			<point x="758" y="814"/>
			<point x="752" y="824" type="curve"/>
			<point x="744" y="826"/>
			<point x="736" y="828"/>
			<point x="722" y="828" type="curve" smooth="yes"/>
			<point x="688" y="828"/>
			<point x="668" y="808"/>
			<point x="668" y="780" type="curve" smooth="yes"/>
			<point x="668" y="744"/>
			<point x="692" y="736"/>
			<point x="692" y="708" type="curve" smooth="yes"/>
			<point x="692" y="688"/>
			<point x="676" y="672"/>
			<point x="640" y="672" type="curve"/>
		</contour>
		<contour>
			<point x="24" y="608" type="line"/>
			<point x="144" y="608" type="line"/>
			<point x="220" y="608" type="line"/>
			<point x="348" y="608" type="line"/>
			<point x="348" y="672" type="line"/>
			<point x="24" y="672" type="line"/>
		</contour>
		<contour>
			<point x="484" y="608" type="line"/>
			<point x="612" y="608" type="line"/>
			<point x="628" y="608" type="line"/>
			<point x="628" y="672" type="line"/>
			<point x="484" y="672" type="line"/>
		</contour>
	</outline>
	<anchor name="aboveUC" x="394" y="700"/>
	<anchor name="belowLC" x="394" y="-23"/>
</glyph>
<glyph name="dotlessj" format="2">
	<unicode hex="0237"/>
	<advance width="328"/>
	<outline>
		<contour>
			<point x="24" y="-224" type="curve" smooth="yes"/>
			<point x="100" y="-224"/>
			<point x="144" y="-188"/>
			<point x="172" y="-132" type="curve" smooth="yes"/>
			<point x="200" y="-76"/>
			<point x="212" y="-12"/>
			<point x="212" y="108" type="curve" smooth="yes"/>
			<point x="212" y="400" type="line"/>
			<point x="212" y="508" type="line"/>
			<point x="172" y="508" type="line"/>
			<point x="28" y="468" type="line"/>
			<point x="28" y="416" type="line"/>
			<point x="116" y="416" type="line"/>
			<point x="116" y="369"/>
			<point x="116" y="323"/>
			<point x="116" y="276" type="curve" smooth="yes"/>
			<point x="116" y="108" type="line" smooth="yes"/>
			<point x="116" y="-4"/>
			<point x="110" y="-68"/>
			<point x="104" y="-108" type="curve" smooth="yes"/>
			<point x="98" y="-148"/>
			<point x="94" y="-164"/>
			<point x="84" y="-189" type="curve"/>
			<point x="98" y="-180" type="line"/>
			<point x="74" y="-180" type="line"/>
			<point x="97" y="-189" type="line"/>
			<point x="78" y="-160" type="line" smooth="yes"/>
			<point x="62" y="-136"/>
			<point x="38" y="-116"/>
			<point x="-2" y="-116" type="curve" smooth="yes"/>
			<point x="-48" y="-116"/>
			<point x="-68" y="-140"/>
			<point x="-74" y="-168" type="curve"/>
			<point x="-66" y="-188"/>
			<point x="-40" y="-224"/>
		</contour>
	</outline>
	<anchor name="aboveLC" x="164" y="544"/>
</glyph>
<glyph name="schwa" format="2">
	<unicode hex="0259"/>
	<advance width="566"/>
	<outline>
		<contour>
			<point x="271" y="-12" type="curve" smooth="yes"/>
			<point x="428" y="-12"/>
			<point x="518" y="105"/>
			<point x="518" y="255" type="curve" smooth="yes"/>
			<point x="518" y="416"/>
			<point x="429" y="520"/>
			<point x="271" y="520" type="curve" smooth="yes"/>
			<point x="170" y="520"/>
			<point x="106" y="470"/>
			<point x="63" y="397" type="curve"/>
			<point x="107" y="365" type="line"/>
			<point x="146" y="428"/>
			<point x="187" y="450"/>
			<point x="266" y="450" type="curve" smooth="yes"/>
			<point x="353" y="450"/>
			<point x="418" y="387"/>
			<point x="418" y="254" type="curve" smooth="yes"/>
			<point x="418" y="113"/>
			<point x="377" y="49"/>
			<point x="271" y="49" type="curve" smooth="yes"/>
			<point x="172" y="49"/>
			<point x="130" y="114"/>
			<point x="130" y="192" type="curve" smooth="yes"/>
			<point x="130" y="202"/>
			<point x="131" y="215"/>
			<point x="133" y="226" type="curve"/>
			<point x="450" y="226" type="line"/>
			<point x="450" y="278" type="line"/>
			<point x="42" y="278" type="line"/>
			<point x="38" y="257"/>
			<point x="36" y="232"/>
			<point x="36" y="199" type="curve" smooth="yes"/>
			<point x="36" y="79"/>
			<point x="119" y="-12"/>
		</contour>
	</outline>
	<anchor name="aboveLC" x="271" y="528"/>
	<anchor name="belowLC" x="273" y="-20"/>
</glyph>
<glyph name="gscript" format="2">
	<unicode hex="0261"/>
	<advance width="644"/>
	<outline>
		<contour>
			<point x="268" y="-237" type="curve" smooth="yes"/>
			<point x="339" y="-237"/>
			<point x="399" y="-220"/>
			<point x="444" y="-186" type="curve" smooth="yes"/>
			<point x="497" y="-144"/>
			<point x="528" y="-77"/>
			<point x="528" y="19" type="curve" smooth="yes"/>
			<point x="528" y="400" type="line"/>
			<point x="528" y="508" type="line"/>
			<point x="476" y="508" type="line"/>
			<point x="438" y="408" type="line"/>
			<point x="432" y="408" type="line"/>
			<point x="432" y="100" type="line"/>
			<point x="440" y="100" type="line"/>
			<point x="439" y="67"/>
			<point x="437" y="20"/>
			<point x="436" y="-13" type="curve" smooth="yes"/>
			<point x="434" y="-61"/>
			<point x="419" y="-105"/>
			<point x="390" y="-136" type="curve" smooth="yes"/>
			<point x="362" y="-166"/>
			<point x="322" y="-185"/>
			<point x="268" y="-185" type="curve" smooth="yes"/>
			<point x="228" y="-185"/>
			<point x="195" y="-179"/>
			<point x="160" y="-169" type="curve"/>
			<point x="197" y="-192" type="line"/>
			<point x="183" y="-127" type="line" smooth="yes"/>
			<point x="175" y="-90"/>
			<point x="160" y="-58"/>
			<point x="120" y="-58" type="curve" smooth="yes"/>
			<point x="93" y="-58"/>
			<point x="76" y="-75"/>
			<point x="67" y="-96" type="curve"/>
			<point x="77" y="-187"/>
			<point x="146" y="-237"/>
		</contour>
		<contour>
			<point x="260" y="-12" type="curve" smooth="yes"/>
			<point x="348" y="-12"/>
			<point x="380" y="36"/>
			<point x="408" y="92" type="curve"/>
			<point x="464" y="92" type="line"/>
			<point x="464" y="180" type="line"/>
			<point x="408" y="104"/>
			<point x="364" y="60"/>
			<point x="292" y="60" type="curve" smooth="yes"/>
			<point x="212" y="60"/>
			<point x="152" y="120"/>
			<point x="152" y="256" type="curve" smooth="yes"/>
			<point x="152" y="392"/>
			<point x="212" y="452"/>
			<point x="292" y="452" type="curve" smooth="yes"/>
			<point x="364" y="452"/>
			<point x="408" y="408"/>
			<point x="464" y="332" type="curve"/>
			<point x="464" y="420" type="line"/>
			<point x="412" y="420" type="line"/>
			<point x="380" y="472"/>
			<point x="348" y="520"/>
			<point x="260" y="520" type="curve" smooth="yes"/>
			<point x="140" y="520"/>
			<point x="48" y="424"/>
			<point x="48" y="252" type="curve" smooth="yes"/>
			<point x="48" y="80"/>
			<point x="140" y="-12"/>
		</contour>
	</outline>
	<anchor name="aboveLC" x="307" y="528"/>
	<anchor name="belowLC" x="281" y="-245"/>
</glyph>
<glyph name="h.sups" format="2">
	<unicode hex="02B0"/>
	<advance width="469"/>
	<outline>
		<contour>
			<point x="33" y="406" type="line"/>
			<point x="217" y="406" type="line"/>
			<point x="217" y="450" type="line"/>
			<point x="144" y="450" type="line"/>
			<point x="109" y="450" type="line"/>
			<point x="33" y="450" type="line"/>
		</contour>
		<contour>
			<point x="85" y="406" type="curve"/>
			<point x="168" y="406" type="line"/>
			<point x="168" y="454"/>
			<point x="168" y="503"/>
			<point x="168" y="552" type="curve" smooth="yes"/>
			<point x="168" y="669" type="line"/>
			<point x="167" y="669" type="line"/>
			<point x="168" y="803" type="line"/>
			<point x="168" y="885" type="line"/>
			<point x="137" y="885" type="line"/>
			<point x="29" y="867" type="line"/>
			<point x="29" y="832" type="line"/>
			<point x="85" y="819" type="line"/>
			<point x="85" y="552" type="line" smooth="yes"/>
			<point x="85" y="503"/>
			<point x="85" y="454"/>
		</contour>
		<contour>
			<point x="266" y="406" type="line"/>
			<point x="448" y="406" type="line"/>
			<point x="448" y="450" type="line"/>
			<point x="372" y="450" type="line"/>
			<point x="337" y="450" type="line"/>
			<point x="266" y="450" type="line"/>
		</contour>
		<contour>
			<point x="313" y="406" type="curve"/>
			<point x="396" y="406" type="line"/>
			<point x="396" y="455"/>
			<point x="396" y="503"/>
			<point x="396" y="552" type="curve" smooth="yes"/>
			<point x="396" y="639" type="line" smooth="yes"/>
			<point x="396" y="713"/>
			<point x="361" y="754"/>
			<point x="293" y="754" type="curve" smooth="yes"/>
			<point x="238" y="754"/>
			<point x="207" y="718"/>
			<point x="191" y="683" type="curve"/>
			<point x="155" y="683" type="line"/>
			<point x="155" y="645" type="line"/>
			<point x="189" y="669"/>
			<point x="224" y="684"/>
			<point x="257" y="684" type="curve" smooth="yes"/>
			<point x="296" y="684"/>
			<point x="313" y="665"/>
			<point x="313" y="622" type="curve" smooth="yes"/>
			<point x="313" y="552" type="line" smooth="yes"/>
			<point x="313" y="503"/>
			<point x="313" y="455"/>
		</contour>
	</outline>
</glyph>
<glyph name="j.sups" format="2">
	<unicode hex="02B2"/>
	<advance width="213"/>
	<outline>
		<contour>
			<point x="-4" y="264" type="curve" smooth="yes"/>
			<point x="57" y="264"/>
			<point x="90" y="287"/>
			<point x="113" y="324" type="curve" smooth="yes"/>
			<point x="135" y="361"/>
			<point x="147" y="400"/>
			<point x="147" y="481" type="curve" smooth="yes"/>
			<point x="147" y="679" type="line"/>
			<point x="147" y="742" type="line"/>
			<point x="115" y="742" type="line"/>
			<point x="16" y="711" type="line"/>
			<point x="16" y="672" type="line"/>
			<point x="69" y="672" type="line"/>
			<point x="69" y="588" type="line"/>
			<point x="69" y="481" type="line" smooth="yes"/>
			<point x="69" y="406"/>
			<point x="68" y="363"/>
			<point x="67" y="341" type="curve"/>
			<point x="66" y="316"/>
			<point x="63" y="303"/>
			<point x="61" y="296" type="curve"/>
			<point x="25" y="296" type="line"/>
			<point x="51" y="281" type="line"/>
			<point x="27" y="312" type="line" smooth="yes"/>
			<point x="17" y="327"/>
			<point x="0" y="342"/>
			<point x="-30" y="342" type="curve" smooth="yes"/>
			<point x="-64" y="342"/>
			<point x="-79" y="324"/>
			<point x="-85" y="304" type="curve"/>
			<point x="-79" y="288"/>
			<point x="-55" y="264"/>
		</contour>
		<contour>
			<point x="108" y="789" type="curve" smooth="yes"/>
			<point x="138" y="789"/>
			<point x="163" y="813"/>
			<point x="163" y="842" type="curve" smooth="yes"/>
			<point x="163" y="872"/>
			<point x="138" y="896"/>
			<point x="108" y="896" type="curve" smooth="yes"/>
			<point x="78" y="896"/>
			<point x="53" y="872"/>
			<point x="53" y="842" type="curve" smooth="yes"/>
			<point x="53" y="813"/>
			<point x="78" y="789"/>
		</contour>
	</outline>
</glyph>
<glyph name="w.sups" format="2">
	<unicode hex="02B7"/>
	<advance width="594"/>
	<outline>
		<contour>
			<point x="143" y="406" type="line"/>
			<point x="256" y="406" type="line"/>
			<point x="292" y="617" type="line"/>
			<point x="305" y="617" type="line"/>
			<point x="345" y="406" type="line"/>
			<point x="455" y="406" type="line"/>
			<point x="552" y="742" type="line"/>
			<point x="488" y="742" type="line"/>
			<point x="426" y="448" type="line"/>
			<point x="408" y="448" type="line"/>
			<point x="345" y="733" type="line"/>
			<point x="278" y="733" type="line"/>
			<point x="225" y="448" type="line"/>
			<point x="207" y="448" type="line"/>
			<point x="131" y="742" type="line"/>
			<point x="43" y="742" type="line"/>
		</contour>
		<contour>
			<point x="12" y="700" type="line"/>
			<point x="84" y="694" type="line"/>
			<point x="114" y="694" type="line"/>
			<point x="191" y="700" type="line"/>
			<point x="191" y="742" type="line"/>
			<point x="12" y="742" type="line"/>
		</contour>
		<contour>
			<point x="225" y="700" type="line"/>
			<point x="283" y="696" type="line"/>
			<point x="340" y="696" type="line"/>
			<point x="398" y="700" type="line"/>
			<point x="398" y="742" type="line"/>
			<point x="225" y="742" type="line"/>
		</contour>
		<contour>
			<point x="435" y="700" type="line"/>
			<point x="492" y="694" type="line"/>
			<point x="524" y="694" type="line"/>
			<point x="582" y="700" type="line"/>
			<point x="582" y="742" type="line"/>
			<point x="435" y="742" type="line"/>
		</contour>
	</outline>
</glyph>
<glyph name="y.sups" format="2">
	<unicode hex="02B8"/>
	<advance width="442"/>
	<outline>
		<contour>
			<point x="91" y="264" type="curve" smooth="yes"/>
			<point x="176" y="264"/>
			<point x="224" y="305"/>
			<point x="271" y="416" type="curve" smooth="yes"/>
			<point x="405" y="742" type="line"/>
			<point x="341" y="742" type="line"/>
			<point x="239" y="441" type="line"/>
			<point x="220" y="406" type="line" smooth="yes"/>
			<point x="194" y="356"/>
			<point x="178" y="325"/>
			<point x="148" y="296" type="curve"/>
			<point x="122" y="296" type="line"/>
			<point x="133" y="295" type="line"/>
			<point x="117" y="312" type="line" smooth="yes"/>
			<point x="100" y="330"/>
			<point x="83" y="342"/>
			<point x="55" y="342" type="curve" smooth="yes"/>
			<point x="28" y="342"/>
			<point x="12" y="327"/>
			<point x="6" y="309" type="curve"/>
			<point x="12" y="287"/>
			<point x="39" y="264"/>
		</contour>
		<contour>
			<point x="12" y="700" type="line"/>
			<point x="90" y="694" type="line"/>
			<point x="122" y="694" type="line"/>
			<point x="207" y="700" type="line"/>
			<point x="207" y="742" type="line"/>
			<point x="12" y="742" type="line"/>
		</contour>
		<contour>
			<point x="267" y="700" type="line"/>
			<point x="335" y="694" type="line"/>
			<point x="367" y="694" type="line"/>
			<point x="430" y="700" type="line"/>
			<point x="430" y="742" type="line"/>
			<point x="267" y="742" type="line"/>
		</contour>
		<contour>
			<point x="204" y="348" type="line"/>
			<point x="257" y="451" type="line"/>
			<point x="231" y="451" type="line"/>
			<point x="129" y="742" type="line"/>
			<point x="41" y="742" type="line"/>
		</contour>
	</outline>
</glyph>
<glyph name="verticallinemod" format="2">
	<unicode hex="02C8"/>
	<advance width="180"/>
	<outline>
		<contour>
			<point x="52" y="546" type="line"/>
			<point x="128" y="546" type="line"/>
			<point x="136" y="742" type="line"/>
			<point x="44" y="742" type="line"/>
		</contour>
	</outline>
</glyph>
<glyph name="colontriangularmod" format="2">
	<unicode hex="02D0"/>
	<advance width="300"/>
	<outline>
		<contour>
			<point x="72" y="480" type="line"/>
			<point x="146" y="352" type="line"/>
			<point x="154" y="352" type="line"/>
			<point x="228" y="480" type="line"/>
			<point x="224" y="487" type="line"/>
			<point x="76" y="487" type="line"/>
		</contour>
		<contour>
			<point x="72" y="7" type="line"/>
			<point x="76" y="0" type="line"/>
			<point x="224" y="0" type="line"/>
			<point x="228" y="7" type="line"/>
			<point x="154" y="135" type="line"/>
			<point x="146" y="135" type="line"/>
		</contour>
	</outline>
</glyph>
<glyph name="l.sups" format="2">
	<unicode hex="02E1"/>
	<advance width="253"/>
	<outline>
		<contour>
			<point x="33" y="406" type="line"/>
			<point x="220" y="406" type="line"/>
			<point x="220" y="450" type="line"/>
			<point x="144" y="450" type="line"/>
			<point x="109" y="450" type="line"/>
			<point x="33" y="450" type="line"/>
		</contour>
		<contour>
			<point x="85" y="406" type="curve"/>
			<point x="168" y="406" type="line"/>
			<point x="168" y="454"/>
			<point x="168" y="503"/>
			<point x="168" y="552" type="curve" smooth="yes"/>
			<point x="168" y="803" type="line"/>
			<point x="168" y="885" type="line"/>
			<point x="137" y="885" type="line"/>
			<point x="29" y="867" type="line"/>
			<point x="29" y="832" type="line"/>
			<point x="85" y="819" type="line"/>
			<point x="85" y="552" type="line" smooth="yes"/>
			<point x="85" y="503"/>
			<point x="85" y="454"/>
		</contour>
	</outline>
</glyph>
<glyph name="s.sups" format="2">
	<unicode hex="02E2"/>
	<advance width="347"/>
	<outline>
		<contour>
			<point x="162" y="397" type="curve" smooth="yes"/>
			<point x="253" y="397"/>
			<point x="309" y="441"/>
			<point x="309" y="507" type="curve" smooth="yes"/>
			<point x="309" y="567"/>
			<point x="265" y="595"/>
			<point x="194" y="616" type="curve" smooth="yes"/>
			<point x="180" y="620" type="line" smooth="yes"/>
			<point x="133" y="634"/>
			<point x="116" y="647"/>
			<point x="116" y="671" type="curve" smooth="yes"/>
			<point x="116" y="696"/>
			<point x="136" y="715"/>
			<point x="181" y="715" type="curve" smooth="yes"/>
			<point x="209" y="715"/>
			<point x="235" y="710"/>
			<point x="255" y="702" type="curve"/>
			<point x="255" y="731" type="line"/>
			<point x="226" y="731" type="line"/>
			<point x="240" y="653" type="line"/>
			<point x="288" y="653" type="line"/>
			<point x="290" y="732" type="line"/>
			<point x="263" y="743"/>
			<point x="221" y="754"/>
			<point x="179" y="754" type="curve" smooth="yes"/>
			<point x="93" y="754"/>
			<point x="38" y="713"/>
			<point x="38" y="650" type="curve" smooth="yes"/>
			<point x="38" y="592"/>
			<point x="80" y="565"/>
			<point x="150" y="544" type="curve" smooth="yes"/>
			<point x="165" y="539" type="line" smooth="yes"/>
			<point x="211" y="525"/>
			<point x="229" y="512"/>
			<point x="229" y="487" type="curve" smooth="yes"/>
			<point x="229" y="460"/>
			<point x="210" y="436"/>
			<point x="160" y="436" type="curve" smooth="yes"/>
			<point x="122" y="436"/>
			<point x="87" y="444"/>
			<point x="67" y="452" type="curve"/>
			<point x="67" y="424" type="line"/>
			<point x="102" y="425" type="line"/>
			<point x="85" y="503" type="line"/>
			<point x="37" y="503" type="line"/>
			<point x="38" y="419" type="line"/>
			<point x="65" y="409"/>
			<point x="109" y="397"/>
		</contour>
	</outline>
</glyph>
<glyph name="x.sups" format="2">
	<unicode hex="02E3"/>
	<advance width="399"/>
	<outline>
		<contour>
			<point x="11" y="406" type="line"/>
			<point x="164" y="406" type="line"/>
			<point x="164" y="451" type="line"/>
			<point x="104" y="451" type="line"/>
			<point x="76" y="451" type="line"/>
			<point x="11" y="451" type="line"/>
		</contour>
		<contour>
			<point x="9" y="700" type="line"/>
			<point x="88" y="694" type="line"/>
			<point x="119" y="694" type="line"/>
			<point x="193" y="700" type="line"/>
			<point x="193" y="742" type="line"/>
			<point x="9" y="742" type="line"/>
		</contour>
		<contour>
			<point x="290" y="406" type="line"/>
			<point x="383" y="406" type="line"/>
			<point x="221" y="599" type="line"/>
			<point x="104" y="742" type="line"/>
			<point x="14" y="742" type="line"/>
			<point x="168" y="560" type="line"/>
		</contour>
		<contour>
			<point x="201" y="406" type="line"/>
			<point x="388" y="406" type="line"/>
			<point x="388" y="451" type="line"/>
			<point x="316" y="451" type="line"/>
			<point x="271" y="451" type="line"/>
			<point x="201" y="451" type="line"/>
		</contour>
		<contour>
			<point x="226" y="700" type="line"/>
			<point x="286" y="694" type="line"/>
			<point x="304" y="694" type="line"/>
			<point x="376" y="700" type="line"/>
			<point x="376" y="742" type="line"/>
			<point x="226" y="742" type="line"/>
		</contour>
		<contour>
			<point x="23" y="406" type="line"/>
			<point x="93" y="406" type="line"/>
			<point x="199" y="579" type="line"/>
			<point x="172" y="600" type="line"/>
		</contour>
		<contour>
			<point x="216" y="556" type="line"/>
			<point x="367" y="742" type="line"/>
			<point x="301" y="742" type="line"/>
			<point x="188" y="577" type="line"/>
		</contour>
	</outline>
</glyph>
<glyph name="gravecmb" format="2">
	<unicode hex="0300"/>
	<outline>
		<contour>
			<point x="60" y="586" type="line"/>
			<point x="31" y="629"/>
			<point x="1" y="673"/>
			<point x="-28" y="716" type="curve" smooth="yes"/>
			<point x="-46" y="742"/>
			<point x="-60" y="756"/>
			<point x="-84" y="756" type="curve" smooth="yes"/>
			<point x="-108" y="756"/>
			<point x="-126" y="740"/>
			<point x="-126" y="717" type="curve" smooth="yes"/>
			<point x="-126" y="694"/>
			<point x="-116" y="682"/>
			<point x="-92" y="660" type="curve" smooth="yes"/>
			<point x="-55" y="625"/>
			<point x="-17" y="591"/>
			<point x="20" y="556" type="curve"/>
		</contour>
	</outline>
	<anchor name="_aboveLC" x="0" y="544"/>
	<anchor name="aboveLC" x="0" y="800"/>
</glyph>
<glyph name="acutecmb" format="2">
	<unicode hex="0301"/>
	<outline>
		<contour>
			<point x="-64" y="586" type="curve"/>
			<point x="-24" y="556" type="line"/>
			<point x="13" y="591"/>
			<point x="51" y="625"/>
			<point x="88" y="660" type="curve" smooth="yes"/>
			<point x="112" y="682"/>
			<point x="122" y="694"/>
			<point x="122" y="717" type="curve" smooth="yes"/>
			<point x="122" y="740"/>
			<point x="104" y="756"/>
			<point x="80" y="756" type="curve" smooth="yes"/>
			<point x="56" y="756"/>
			<point x="42" y="742"/>
			<point x="24" y="716" type="curve" smooth="yes"/>
			<point x="-5" y="673"/>
			<point x="-35" y="629"/>
		</contour>
	</outline>
</glyph>
<glyph name="circumflexcmb" format="2">
	<unicode hex="0302"/>
	<outline>
		<contour>
			<point x="120" y="548" type="line"/>
			<point x="156" y="580" type="line"/>
			<point x="24" y="748" type="line"/>
			<point x="-24" y="748" type="line"/>
			<point x="-156" y="580" type="line"/>
			<point x="-120" y="548" type="line"/>
			<point x="40" y="700" type="line"/>
			<point x="-40" y="700" type="line"/>
		</contour>
	</outline>
</glyph>
<glyph name="tildecmb" format="2">
	<unicode hex="0303"/>
	<outline>
		<contour>
			<point x="-176" y="602" type="curve"/>
			<point x="-128" y="588" type="line"/>
			<point x="-116" y="646"/>
			<point x="-100" y="662"/>
			<point x="-74" y="662" type="curve" smooth="yes"/>
			<point x="-48" y="662"/>
			<point x="-28" y="640"/>
			<point x="-4" y="624" type="curve" smooth="yes"/>
			<point x="20" y="608"/>
			<point x="44" y="586"/>
			<point x="82" y="586" type="curve" smooth="yes"/>
			<point x="128" y="586"/>
			<point x="160" y="630"/>
			<point x="176" y="726" type="curve"/>
			<point x="128" y="740" type="line"/>
			<point x="116" y="682"/>
			<point x="100" y="666"/>
			<point x="74" y="666" type="curve" smooth="yes"/>
			<point x="48" y="666"/>
			<point x="28" y="688"/>
			<point x="4" y="704" type="curve" smooth="yes"/>
			<point x="-20" y="720"/>
			<point x="-44" y="742"/>
			<point x="-78" y="742" type="curve" smooth="yes"/>
			<point x="-128" y="742"/>
			<point x="-160" y="698"/>
		</contour>
	</outline>
	<anchor name="_aboveLC" x="0" y="528"/>
	<anchor name="aboveLC" x="1" y="712"/>
</glyph>
<glyph name="macroncmb" format="2">
	<unicode hex="0304"/>
	<outline>
		<contour>
			<point x="-128" y="600" type="line"/>
			<point x="128" y="600" type="line"/>
			<point x="128" y="668" type="line"/>
			<point x="-128" y="668" type="line"/>
		</contour>
	</outline>
	<anchor name="_aboveLC" x="0" y="544"/>
	<anchor name="aboveLC" x="0" y="772"/>
</glyph>
<glyph name="brevecmb" format="2">
	<unicode hex="0306"/>
	<outline>
		<contour>
			<point x="-156" y="720" type="line"/>
			<point x="-140" y="632"/>
			<point x="-92" y="572"/>
			<point x="0" y="572" type="curve" smooth="yes"/>
			<point x="92" y="572"/>
			<point x="140" y="632"/>
			<point x="156" y="720" type="curve"/>
			<point x="108" y="728" type="line"/>
			<point x="92" y="672"/>
			<point x="60" y="640"/>
			<point x="0" y="640" type="curve" smooth="yes"/>
			<point x="-60" y="640"/>
			<point x="-92" y="672"/>
			<point x="-108" y="728" type="curve"/>
		</contour>
	</outline>
	<anchor name="_aboveLC" x="0" y="528"/>
	<anchor name="aboveLC" x="0" y="728"/>
</glyph>
<glyph name="dotaccentcmb" format="2">
	<unicode hex="0307"/>
	<outline>
		<contour>
			<point x="0" y="588" type="curve" smooth="yes"/>
			<point x="38" y="588"/>
			<point x="68" y="618"/>
			<point x="68" y="656" type="curve" smooth="yes"/>
			<point x="68" y="694"/>
			<point x="38" y="724"/>
			<point x="0" y="724" type="curve" smooth="yes"/>
			<point x="-38" y="724"/>
			<point x="-68" y="694"/>
			<point x="-68" y="656" type="curve" smooth="yes"/>
			<point x="-68" y="618"/>
			<point x="-38" y="588"/>
		</contour>
	</outline>
	<anchor name="_aboveLC" x="0" y="544"/>
	<anchor name="aboveLC" x="0" y="772"/>
</glyph>
<glyph name="dieresiscmb" format="2">
	<unicode hex="0308"/>
	<outline>
		<contour>
			<point x="-108" y="592" type="curve" smooth="yes"/>
			<point x="-72" y="592"/>
			<point x="-44" y="620"/>
			<point x="-44" y="656" type="curve" smooth="yes"/>
			<point x="-44" y="692"/>
			<point x="-72" y="720"/>
			<point x="-108" y="720" type="curve" smooth="yes"/>
			<point x="-144" y="720"/>
			<point x="-172" y="692"/>
			<point x="-172" y="656" type="curve" smooth="yes"/>
			<point x="-172" y="620"/>
			<point x="-144" y="592"/>
		</contour>
		<contour>
			<point x="108" y="592" type="curve" smooth="yes"/>
			<point x="144" y="592"/>
			<point x="172" y="620"/>
			<point x="172" y="656" type="curve" smooth="yes"/>
			<point x="172" y="692"/>
			<point x="144" y="720"/>
			<point x="108" y="720" type="curve" smooth="yes"/>
			<point x="72" y="720"/>
			<point x="44" y="692"/>
			<point x="44" y="656" type="curve" smooth="yes"/>
			<point x="44" y="620"/>
			<point x="72" y="592"/>
		</contour>
	</outline>
	<anchor name="_aboveLC" x="0" y="544"/>
	<anchor name="aboveLC" x="0" y="772"/>
</glyph>
